<svg xmlns="http://www.w3.org/2000/svg" width="272" height="70" fill="none" xmlns:v="https://vecta.io/nano"><style><![CDATA[.B{fill:#fff}]]></style><g clip-path="url(#B)" class="B"><path d="M99.005 48.623v.277l-.034.112-.413.265c-.103.065-.16.118-.178.159s-.04.218-.063.548l-.04 1.202c0 .536.029 1.113.092 1.737l-.052.094c-1.53.642-3.1.966-4.716.966-1.238 0-2.361-.259-3.358-.772-.997-.518-1.793-1.278-2.378-2.291s-.877-2.215-.877-3.605c0-2.12.659-3.811 1.983-5.059s3.054-1.891 5.18-1.891c1.564 0 2.968.294 4.212.872l.057.1c-.103.412-.218 1.272-.35 2.586l-.069.065h-.384l-.069-.071-.04-.978-.052-.559c-.017-.053-.08-.13-.178-.218s-.361-.23-.773-.424-.831-.336-1.249-.424-.865-.135-1.347-.135c-1.02 0-1.925.236-2.71.701s-1.381 1.149-1.776 2.038-.596 1.885-.596 2.974.212 2.179.642 3.151 1.049 1.732 1.851 2.279 1.736.819 2.802.819c.464 0 .934-.053 1.421-.153s.882-.242 1.192-.43c.051-.194.075-.589.075-1.19v-1.019c0-.483-.029-.789-.086-.907s-.195-.206-.413-.253-.699-.082-1.427-.094l-.075-.082v-.406l.075-.082.51.018 2.143.047 1.398-.053.086.071-.017.018zm1.112.801c0-.73.137-1.431.412-2.114.275-.677.751-1.266 1.427-1.755.676-.495 1.484-.742 2.413-.742 1.174 0 2.125.406 2.865 1.219s1.106 1.855 1.106 3.133c0 1.408-.424 2.562-1.267 3.469s-1.868 1.361-3.06 1.361a3.37 3.37 0 0 1-2.091-.695c-.613-.465-1.066-1.031-1.358-1.696-.293-.672-.442-1.396-.442-2.179h-.005zm1.581-.636c0 .86.103 1.626.304 2.303s.521 1.225.957 1.631c.435.412.934.618 1.49.618.659 0 1.203-.289 1.633-.86s.642-1.437.642-2.592c0-1.307-.235-2.379-.699-3.21s-1.135-1.249-2.012-1.249a1.97 1.97 0 0 0-1.702.866c-.407.577-.613 1.408-.613 2.491zm11.478 5.018l-.521-1.443-.619-1.572-1.714-4.388c-.114-.289-.212-.477-.298-.571s-.172-.147-.263-.165a4.31 4.31 0 0 0-.539-.047l-.069-.071v-.395l.075-.082 1.856.065 1.949-.065.068.071v.406l-.068.071c-.579.018-.917.065-1.015.136s-.143.159-.143.271c0 .183.109.577.333 1.19l1.02 2.798.802 2.091.836-2.091.694-1.896.521-1.525c.08-.3.115-.501.115-.601 0-.118-.063-.2-.184-.253s-.429-.088-.928-.118l-.069-.071v-.395l.075-.082 1.559.065 1.489-.065.075.082v.395l-.069.071c-.326.029-.55.083-.659.159s-.218.218-.321.43l-.894 1.973-.802 1.885-1.45 3.746h-.871l.029-.006zm12.526-1.52l-.269.66c-.579.412-1.1.677-1.553.801s-.859.183-1.22.183a4.39 4.39 0 0 1-1.903-.43c-.602-.289-1.089-.778-1.467-1.461-.378-.689-.567-1.514-.567-2.486a6.52 6.52 0 0 1 .218-1.743c.143-.518.298-.901.458-1.154s.43-.53.808-.836.779-.554 1.203-.736.883-.277 1.376-.277c.67 0 1.26.171 1.77.518s.871.789 1.078 1.331a4.79 4.79 0 0 1 .309 1.72l-.023.554-.092.1c-.378.094-.888.153-1.53.183l-1.272.047h-2.687c.011 1.272.304 2.209.871 2.81s1.266.901 2.091.901a2.82 2.82 0 0 0 1.124-.224c.355-.153.739-.353 1.14-.618l.132.159h.005zm-5.363-3.764c.103.018.487.041 1.157.065l1.496.035 1.415-.047.006-.342c0-.948-.178-1.655-.527-2.12s-.831-.695-1.438-.695a1.79 1.79 0 0 0-1.553.783c-.373.524-.556 1.296-.556 2.321zm9.392-3.651l.16.118c-.034.353-.057.989-.074 1.897l.63-.872c.206-.289.39-.512.55-.666a1.71 1.71 0 0 1 .556-.365 1.68 1.68 0 0 1 .653-.13 1.49 1.49 0 0 1 .694.165l.057.13-.149 2.156h-.378c-.224-.565-.585-.848-1.078-.848a1.29 1.29 0 0 0-.905.365 1.78 1.78 0 0 0-.516.913c-.086.365-.131.825-.131 1.384v1.019l.034 1.355.069 1.243c.023.112.063.194.114.242a.39.39 0 0 0 .212.106c.086.018.482.047 1.192.094l.075.071v.389l-.075.083-2.326-.071-2.012.071-.074-.083v-.389l.074-.071.917-.082a.37.37 0 0 0 .184-.118c.051-.059.091-.147.108-.265s.041-.518.069-1.19l.04-1.525v-1.814l-.034-1.001-.052-.783a.28.28 0 0 0-.131-.218c-.075-.047-.218-.071-.436-.071l-.705-.012-.074-.071v-.395l.069-.071c1.065-.141 1.965-.371 2.693-.689zm6.418 0l.16.118-.069 1.62 1.273-1.231a1.49 1.49 0 0 1 .332-.259c.103-.053.275-.112.516-.177.24-.059.487-.094.739-.094a2.84 2.84 0 0 1 1.232.283c.401.188.699.418.905.677a2.27 2.27 0 0 1 .424.925c.08.353.115.795.115 1.313v1.62l.04 2.291c.011.583.069.931.178 1.042s.452.165 1.037.165l.069.071v.395l-.069.071-1.439-.071c-.143 0-.55.024-1.22.071l-.103-.1c.074-.795.109-1.838.109-3.122v-1.207l-.046-1.567a2.08 2.08 0 0 0-.281-.872c-.155-.259-.367-.465-.63-.607s-.573-.218-.94-.218c-.292 0-.539.029-.745.094s-.436.194-.693.395a2.8 2.8 0 0 0-.568.56 1.31 1.31 0 0 0-.223.489c-.028.153-.04.471-.04.96v1.602l.034 1.302.069 1.284c.023.124.063.212.114.265s.109.088.184.106.372.041.905.077l.075.071v.389l-.069.083-2.017-.071-2.011.071-.075-.083v-.389l.075-.071.916-.082a.37.37 0 0 0 .184-.118.52.52 0 0 0 .109-.265 20.18 20.18 0 0 0 .068-1.19l.041-1.526v-1.814l-.035-1.001-.057-.783a.28.28 0 0 0-.132-.218c-.074-.047-.218-.071-.435-.071l-.705-.012-.075-.071v-.395l.069-.071c1.066-.141 1.965-.371 2.693-.689l.012.035zm10.2 0l.16.118-.069 1.455.797-.801.441-.436c.069-.065.241-.141.51-.224a2.69 2.69 0 0 1 .848-.13 2.46 2.46 0 0 1 1.467.453c.418.3.728.724.928 1.255l1.318-1.307c.126-.088.327-.171.596-.265a2.66 2.66 0 0 1 .82-.135c.441 0 .848.106 1.215.312s.659.483.876.819.344.701.378 1.096l.058 1.62v.966l.051 2.291c.012.583.069.931.178 1.042.103.112.447.165 1.031.165l.069.071v.395l-.069.071-1.438-.071c-.137 0-.544.024-1.215.071l-.109-.1c.075-.795.109-1.838.109-3.122v-1.107c0-.978-.04-1.655-.126-2.05a1.66 1.66 0 0 0-.584-.954c-.31-.247-.671-.371-1.095-.371a1.83 1.83 0 0 0-.848.2c-.263.13-.498.33-.705.589s-.326.501-.349.725-.035.636-.035 1.237v1.148l.035 1.52.069 1.296a.51.51 0 0 0 .114.265.34.34 0 0 0 .184.1c.068.018.372.041.899.077l.075.071v.389l-.069.082-2.017-.071-2.011.071-.075-.082v-.389l.075-.071.916-.082a.37.37 0 0 0 .184-.118.52.52 0 0 0 .109-.265 20.18 20.18 0 0 0 .068-1.19l.04-1.525v-1.048c0-.695-.045-1.225-.131-1.602a1.81 1.81 0 0 0-.556-.948c-.281-.259-.642-.389-1.072-.389-.332 0-.641.071-.917.218s-.504.324-.676.536-.286.412-.326.595-.063.583-.063 1.196v1.361l.034 1.52.069 1.296c.023.124.063.212.114.265s.115.088.184.1c.069.018.372.041.899.077l.075.071v.389l-.069.082-2.017-.071-2.011.071-.075-.082v-.389l.075-.071.917-.083c.068-.018.131-.059.183-.118s.092-.147.109-.265.04-.518.069-1.19l.04-1.526v-1.814l-.035-1.001-.057-.783c-.011-.1-.057-.171-.132-.218s-.218-.071-.435-.071l-.705-.012-.075-.071v-.395l.069-.071c1.066-.141 1.966-.371 2.693-.689l.018.029zm19.454 7.415l-.269.66c-.579.412-1.101.677-1.553.801s-.86.183-1.221.183a4.39 4.39 0 0 1-1.902-.43c-.602-.289-1.089-.778-1.467-1.461-.378-.689-.568-1.514-.568-2.486a6.56 6.56 0 0 1 .218-1.743c.143-.518.298-.901.459-1.154s.429-.53.808-.836.779-.554 1.203-.736a3.44 3.44 0 0 1 1.375-.277c.671 0 1.261.171 1.771.518s.871.789 1.077 1.331a4.77 4.77 0 0 1 .31 1.72l-.023.554-.092.1c-.378.094-.888.153-1.53.183l-1.272.047h-2.688c.012 1.272.304 2.209.871 2.81a2.77 2.77 0 0 0 2.092.901c.39 0 .768-.071 1.123-.224s.739-.353 1.14-.618l.132.159h.006zm-5.364-3.764c.104.018.488.041 1.158.065l1.496.035 1.415-.047.006-.342c0-.948-.178-1.655-.528-2.12s-.83-.695-1.438-.695c-.665 0-1.18.259-1.553.783s-.556 1.296-.556 2.321zm9.037-3.651l.16.118-.068 1.62 1.272-1.231a1.49 1.49 0 0 1 .332-.259c.103-.053.275-.112.516-.177a3.1 3.1 0 0 1 .739-.094 2.83 2.83 0 0 1 1.232.283c.401.188.699.418.906.677s.343.571.424.925.114.795.114 1.313v1.62l.04 2.291c.012.583.069.931.178 1.042s.453.165 1.037.165l.069.071v.395l-.069.071-1.438-.071c-.143 0-.55.024-1.221.071l-.103-.1c.075-.795.109-1.838.109-3.122v-1.207l-.046-1.567a2.08 2.08 0 0 0-.281-.872 1.62 1.62 0 0 0-.63-.607c-.264-.142-.573-.218-.94-.218-.292 0-.538.029-.745.094s-.435.194-.693.395-.447.389-.567.56a1.31 1.31 0 0 0-.224.489c-.023.153-.04.471-.04.96v1.602l.034 1.302.069 1.284c.023.124.063.212.115.265a.36.36 0 0 0 .183.106c.075.018.373.041.906.077l.074.071v.389l-.069.083-2.017-.071-2.011.071-.075-.083v-.389l.075-.071.917-.082c.069-.018.132-.059.183-.118s.092-.147.109-.265.04-.518.069-1.19l.04-1.526v-1.814l-.035-1.001-.057-.783c-.011-.1-.057-.171-.132-.218s-.217-.071-.435-.071l-.705-.012-.074-.071v-.395l.068-.071c1.066-.141 1.966-.371 2.694-.689l.011.035zm7.501 1.543v-.242l.057-.094c.527-.212.952-.412 1.272-.601l-.051-2.798c.573-.224 1.048-.459 1.415-.707l.201.183c-.058.389-.121 1.508-.201 3.369l.906.012 1.415-.053.057.065-.16.771-.069.083-.945-.012-1.204.012-.051 3.746.057 1.696c.034.265.137.477.304.624.166.153.407.224.733.224a1.79 1.79 0 0 0 1.037-.324l.201.33c-.132.106-.453.412-.963.919-.292.147-.584.224-.888.224-1.255 0-1.885-.672-1.885-2.008l.034-1.249.006-.324v-3.817h-.344l-.86.035-.074-.071v.006zm10.068 3.01a5.6 5.6 0 0 1 .413-2.114c.275-.677.75-1.266 1.427-1.755.676-.495 1.484-.742 2.412-.742 1.175 0 2.126.406 2.865 1.219s1.106 1.855 1.106 3.133c0 1.408-.424 2.562-1.266 3.469-.848.907-1.868 1.361-3.06 1.361a3.37 3.37 0 0 1-2.092-.695c-.613-.465-1.066-1.031-1.358-1.696a5.4 5.4 0 0 1-.441-2.179h-.006zm1.582-.636c0 .86.103 1.626.303 2.303s.522 1.225.957 1.631c.436.412.934.618 1.49.618.659 0 1.204-.289 1.633-.86s.642-1.437.642-2.592c0-1.307-.235-2.379-.699-3.21s-1.135-1.249-2.011-1.249a1.97 1.97 0 0 0-1.702.866c-.412.577-.613 1.408-.613 2.491zm12.028 4.382l.068.071v.389l-.068.082a24.48 24.48 0 0 1-.98-.035l-1.347-.035-2.017.071-.069-.082v-.389l.069-.071.923-.082a.35.35 0 0 0 .183-.118c.052-.059.086-.147.103-.265s.04-.518.069-1.19l.04-1.525v-3.552l-1.077.065-.075-.071v-.23l.057-.094 1.095-.618v-.554c0-.613.023-1.078.074-1.396a2.87 2.87 0 0 1 .281-.872c.137-.265.373-.607.717-1.013l.893-1.001c.258-.259.482-.436.671-.524s.412-.136.67-.136a2.04 2.04 0 0 1 .688.136v1.508l-.201.082c-.315-.306-.676-.459-1.088-.459-.293 0-.539.065-.751.2-.212.13-.355.347-.435.642s-.115.789-.115 1.478v1.902h.894l1.312-.053.075.1-.149.813-.075.094-.327-.012-1.088-.012h-.642v3.71l.04 1.349.069 1.237c.023.124.057.212.114.265a.49.49 0 0 0 .258.118c.121.023.505.047 1.152.065l-.011.012zm5.478-11.945l-.069-.065v-.459l.069-.065 2.212.071 2.32-.071.946-.018c.751 0 1.352.082 1.793.247s.797.459 1.066.878.401.895.401 1.431c0 .683-.223 1.313-.67 1.897s-1.175 1.001-2.178 1.249c.602.059 1.101.153 1.49.265.39.118.728.294 1.015.536s.51.56.676.942.246.836.246 1.343a4.71 4.71 0 0 1-.166 1.213c-.109.412-.315.819-.613 1.225a4.42 4.42 0 0 1-1.083 1.043c-.424.289-.86.495-1.301.624s-.997.194-1.656.194a50.2 50.2 0 0 1-1.203-.047l-1.204-.029a16.89 16.89 0 0 0-1.398.071l-.069-.071v-.306l.069-.094c.321-.159.51-.271.562-.33s.091-.607.12-1.632l.046-2.344v-5.454l-.023-1.107-.046-.613a.49.49 0 0 0-.097-.259.6.6 0 0 0-.189-.124c-.081-.035-.218-.065-.413-.088l-.636-.053h-.017zm3.002 4.83l.946.035c1.157 0 1.96-.23 2.412-.683s.677-1.078.677-1.867c0-.459-.086-.854-.258-1.172-.172-.324-.447-.571-.814-.742-.373-.171-.877-.259-1.513-.259-.521 0-.974.047-1.375.136-.052.554-.075 1.514-.075 2.892v1.655.006zm.018 6.708a5.22 5.22 0 0 0 1.323.165c.797 0 1.421-.141 1.874-.424s.785-.671 1.003-1.172c.212-.501.321-1.042.321-1.631 0-.883-.229-1.59-.682-2.12s-1.438-.795-2.951-.795l-.906.035v3.139l.018 2.809v-.006zm8.922-5.365l-.327-.094-.069-.094v-1.143c.992-.813 1.96-1.213 2.894-1.213.642 0 1.175.13 1.599.395s.733.595.922.989.287.86.287 1.384l-.04 1.849v2.745c0 .377.023.601.069.683s.103.136.16.159a1.25 1.25 0 0 0 .344.071l.475.047.069.082v.365l-.069.071-1.14-.053-1.203.053-.126-.13.034-1.484-1.822 1.567a2.38 2.38 0 0 1-1.003.212c-.447 0-.831-.088-1.152-.265a1.8 1.8 0 0 1-.739-.748c-.172-.318-.258-.707-.258-1.16 0-.901.258-1.608.768-2.114s1.914-.937 4.2-1.296c0-.907-.183-1.549-.55-1.92s-.859-.56-1.484-.56c-.321 0-.619.053-.882.159s-.419.188-.459.253-.189.442-.453 1.125l-.057.047.012.018zm3.885 1.455c-1.565.289-2.539.601-2.923.931s-.578.842-.578 1.537c0 .954.429 1.437 1.295 1.437.745 0 1.478-.471 2.2-1.419v-2.486h.006zm5.759-8.841l.16.112c-.063.707-.092 2.12-.092 4.241v2.273l1.307-1.26a1.51 1.51 0 0 1 .332-.259c.104-.059.275-.112.516-.177.235-.059.481-.094.734-.094a2.84 2.84 0 0 1 1.232.283c.401.188.699.418.905.677a2.27 2.27 0 0 1 .424.925c.08.353.115.795.115 1.313v1.62l.04 2.291c.017.583.074.931.177 1.042s.447.165 1.032.165l.069.071v.395l-.069.071-1.438-.071a29.49 29.49 0 0 0-1.221.071l-.103-.1c.074-.795.109-1.838.109-3.122v-1.207l-.046-1.567a2.08 2.08 0 0 0-.281-.872c-.155-.259-.367-.465-.625-.607s-.573-.218-.939-.218-.699.059-.952.171-.51.306-.773.577-.418.495-.476.677c-.051.183-.08.53-.08 1.043v1.637l.034 1.302.069 1.284c.023.124.063.212.115.265a.37.37 0 0 0 .183.106c.074.018.373.041.906.077l.074.071v.389l-.069.082-2.017-.071-2.011.071-.075-.082v-.389l.075-.071.917-.083a.37.37 0 0 0 .183-.118c.051-.059.092-.147.109-.265s.04-.518.069-1.19l.04-1.526V45.2l-.035-1.95-.057-1.419c-.017-.265-.046-.418-.08-.471-.034-.047-.092-.088-.178-.112s-.424-.035-1.014-.035l-.074-.082v-.389l.068-.082c1.066-.136 1.966-.359 2.694-.683l.017.035zm10.349 4.859l.16.118c-.034.353-.057.989-.074 1.897l.63-.872c.206-.289.39-.512.55-.666a1.7 1.7 0 0 1 .556-.365 1.68 1.68 0 0 1 .653-.13 1.48 1.48 0 0 1 .693.165l.058.13-.149 2.156h-.378c-.224-.565-.585-.848-1.078-.848a1.29 1.29 0 0 0-.905.365 1.78 1.78 0 0 0-.516.913c-.086.365-.132.825-.132 1.384v1.019l.035 1.355.069 1.243c.022.112.063.194.114.242.052.053.12.088.212.106.086.018.482.047 1.192.094l.075.071v.389l-.075.083-2.326-.071-2.012.071-.074-.083v-.389l.074-.071.917-.082c.069-.018.132-.059.183-.118s.092-.147.109-.265.04-.518.069-1.19l.04-1.525v-1.814l-.034-1.001-.052-.783c-.011-.1-.057-.171-.132-.218s-.217-.071-.435-.071l-.705-.012-.074-.071v-.395l.068-.071c1.066-.141 1.966-.371 2.694-.689zm5.335 2.527l-.327-.094-.069-.094v-1.143c.991-.813 1.96-1.213 2.894-1.213.642 0 1.175.13 1.599.395s.733.595.922.989.287.86.287 1.384l-.04 1.849v2.745c0 .377.023.601.068.683s.104.136.161.159a1.25 1.25 0 0 0 .344.071l.475.047.069.082v.365l-.069.071-1.14-.053-1.203.053-.126-.13.034-1.484-1.822 1.567a2.38 2.38 0 0 1-1.003.212c-.447 0-.831-.088-1.152-.265a1.8 1.8 0 0 1-.739-.748c-.172-.318-.258-.707-.258-1.16 0-.901.258-1.608.768-2.114s1.914-.937 4.2-1.296c0-.907-.183-1.549-.55-1.92s-.859-.56-1.484-.56c-.321 0-.619.053-.883.159s-.418.188-.458.253-.189.442-.453 1.125l-.057.047.012.018zm3.885 1.455c-1.565.289-2.539.601-2.923.931s-.579.842-.579 1.537c0 .954.43 1.437 1.296 1.437.744 0 1.478-.471 2.2-1.419v-2.486h.006zm6.034-3.982l.16.118-.092 3.063v2.079l.035 1.302.069 1.284a.51.51 0 0 0 .114.265c.052.053.109.088.184.106s.372.041.905.077l.074.071v.389l-.068.082-2.017-.071-2.012.071-.074-.082v-.389l.074-.071.917-.082c.069-.018.132-.059.183-.118s.092-.147.109-.265.04-.518.069-1.19l.04-1.525v-1.814l-.034-1.001-.052-.783c-.011-.1-.057-.171-.132-.218s-.217-.071-.435-.071l-.705-.012-.074-.071v-.395l.068-.071c1.066-.141 1.966-.371 2.694-.689v.012zm-.711-4.117a.86.86 0 0 1 .671.306c.183.206.275.448.275.736s-.092.524-.275.724a.88.88 0 0 1-.671.306.87.87 0 0 1-.665-.3c-.189-.2-.28-.442-.28-.73s.091-.536.28-.736.407-.306.665-.306zm5.438 4.117l.161.118-.069 1.62 1.272-1.231a1.51 1.51 0 0 1 .332-.259c.103-.053.275-.112.516-.177a3.1 3.1 0 0 1 .739-.094 2.83 2.83 0 0 1 1.232.283c.401.188.699.418.906.677s.343.571.424.925.114.795.114 1.313v1.62l.04 2.291c.012.583.069.931.178 1.042s.453.165 1.037.165l.069.071v.395l-.069.071-1.438-.071c-.143 0-.55.024-1.221.071l-.103-.1c.075-.795.109-1.838.109-3.122v-1.207l-.046-1.567c-.028-.318-.126-.607-.281-.872a1.62 1.62 0 0 0-.63-.607 1.95 1.95 0 0 0-.94-.218c-.292 0-.538.029-.745.094s-.435.194-.693.395-.447.389-.567.56a1.31 1.31 0 0 0-.224.489c-.023.153-.04.471-.04.96v1.602l.035 1.302.068 1.284c.023.124.063.212.115.265a.37.37 0 0 0 .183.106c.074.018.373.041.906.077l.074.071v.389l-.069.083-2.017-.071-2.011.071-.074-.083v-.389l.074-.071.917-.082c.069-.018.132-.059.183-.118s.092-.147.109-.265.04-.518.069-1.19l.04-1.526v-1.814l-.034-1.001-.058-.783a.28.28 0 0 0-.131-.218c-.075-.047-.218-.071-.436-.071l-.705-.012-.074-.071v-.395l.068-.071c1.066-.141 1.966-.371 2.694-.689l.011.035z"/></g><g class="B"><path d="M93.892 24.207l-.045.045-1.054-.027-.824.027c-.072-.154-.231-.376-.48-.656l-1.38-1.575c-.299-.339-.624-.652-.968-.937v1.104l.059 1.439c.014.09.068.145.158.172.045.014.226.027.543.045l.045.045v.312l-.041.045-1.43-.027-1.43.027-.045-.041v-.317l.045-.045.543-.045c.09-.023.14-.081.158-.172.041-.222.059-.702.059-1.439V19.73l-.059-1.439c-.014-.091-.068-.145-.158-.172-.045-.014-.226-.027-.543-.045L87 18.03v-.317l.045-.041 1.43.027 1.43-.027.041.041v.321l-.045.041-.543.045c-.09.023-.14.081-.158.172-.041.222-.059.701-.059 1.439v1.154l1.245-1.199.661-.683.869-.969v-.321l.05-.045.701.027.946-.027.045.045v.29l-.045.045c-.358 0-.624.059-.796.172-.249.167-.724.584-1.425 1.244l-.937.892c.131.181.349.444.652.796l1.041 1.208 1.335 1.425c.072.032.199.054.367.054l.045.05v.312.005zm3.453-.001l-.041.045-1.434-.027-1.43.027-.041-.045v-.312l.045-.045.543-.045a.2.2 0 0 0 .158-.172c.041-.222.059-.701.059-1.439v-2.457l-.059-1.439c-.014-.091-.068-.145-.158-.172-.045-.014-.226-.027-.543-.045l-.045-.045v-.317l.045-.041 1.43.027 1.425-.027.045.041v.317l-.045.045-.543.045a.2.2 0 0 0-.158.172c-.041.222-.059.701-.059 1.439v2.457l.059 1.439c.013.091.068.145.158.172.045.014.226.027.543.045l.045.045v.312zm7.992-6.176l-.05.045-.543.045c-.09.023-.14.081-.158.172-.041.222-.059.701-.059 1.439v1.887l.059 2.715-.059.041-.796-.127-4.25-5.1v3.037l.059 1.439c.014.09.068.145.158.172.045.014.226.027.543.045l.046.045v.317l-.046.041-.995-.027-1.073.027-.045-.041v-.317l.045-.045.543-.045a.2.2 0 0 0 .158-.172c.041-.222.059-.701.059-1.439v-2.457l-.059-1.439c-.014-.091-.068-.145-.158-.172-.045-.014-.226-.027-.543-.045l-.045-.045v-.317l.045-.041.842.027 1.041-.027 3.928 4.779v-2.715l-.059-1.439c-.013-.091-.068-.145-.158-.172-.046-.014-.227-.027-.543-.045l-.046-.045v-.317l.046-.041.991.027 1.077-.027.045.041v.317zm7.775 3.851l-.045.05c-.191.045-.304.109-.335.195s-.046.394-.046.941l.037.778c-1.032.389-1.973.584-2.815.584s-2.005-.312-2.693-.932-1.027-1.466-1.027-2.539.606-2.394 1.815-2.987c.552-.271 1.258-.407 2.113-.407s.996.054 1.502.163c.417.091.747.19.991.308l.041.081c-.081.272-.145.747-.199 1.421l-.05.045h-.28l-.046-.045-.018-.367-.045-.389c-.136-.186-.366-.344-.697-.475a3.15 3.15 0 0 0-1.145-.204c-1.095 0-1.851.443-2.271 1.33-.191.407-.29.882-.29 1.421 0 .86.231 1.575.688 2.14.475.588 1.099.883 1.864.883s.797-.086 1.177-.262c.022-.217.032-.516.032-.892s-.01-.493-.032-.557c-.018-.05-.077-.086-.177-.109-.081-.018-.344-.041-.787-.068l-.05-.045v-.294l.05-.045 1.412.014 1.276-.014.045.045v.222l.005.009zm7.923-1.304c0 1.05-.344 1.919-1.027 2.611-.335.339-.738.597-1.217.783-.512.199-1.109.294-1.788.285l-1.638-.027a11.33 11.33 0 0 0-1.104.027l-.046-.045v-.131l.023-.054c.231-.145.353-.235.371-.276.027-.054.045-.263.05-.62l.014-1.041v-2.353l-.059-1.439c-.014-.09-.068-.145-.159-.172-.045-.014-.226-.027-.543-.045l-.045-.045v-.317l.045-.041.937.027 1.95-.027.869-.014c.806 0 1.421.09 1.851.276.471.199.837.516 1.104.946.272.444.408 1.009.408 1.697l.004-.005zm-1.425.222c0-.86-.208-1.516-.625-1.978a1.77 1.77 0 0 0-.814-.511c-.308-.095-.742-.14-1.295-.14s-.565.018-.828.059c-.031.348-.045 1.186-.045 2.516l.009 2.027.036.901a5.66 5.66 0 0 0 .837.063c.616 0 1.105-.091 1.458-.271.384-.195.688-.525.914-.996.231-.484.348-1.041.348-1.679l.005.009z"/><use href="#D"/><path d="M138.571 24.206l-.045.045-1.43-.027-1.43.027-.041-.041v-.317l.046-.045.543-.045c.09-.023.14-.081.158-.172.041-.222.059-.701.059-1.439v-3.141l-1.037 2.122-.601 1.299-.851 1.86h-.312l-.657-1.453-.651-1.38-1.218-2.53v3.222l.059 1.439c.014.091.068.145.159.172.045.014.226.027.543.045l.045.045v.317l-.045.041-.996-.027-1.072.027-.046-.041v-.317l.046-.045.543-.045c.09-.023.14-.081.158-.172.041-.222.059-.701.059-1.439v-2.457l-.059-1.439c-.014-.091-.068-.145-.158-.172-.046-.014-.227-.027-.543-.045l-.046-.045v-.317l.046-.041 1.221.027.991-.027.439.996.299.643 1.475 3.086.711-1.439 1.109-2.371.38-.91.706.027 1.394-.027.045.041v.321l-.045.041-.544.045c-.09.023-.14.082-.158.172-.041.222-.059.701-.059 1.439v2.457l.059 1.439c.014.091.068.145.158.172.046.014.227.027.544.045l.045.045v.312l.004-.005z"/><use href="#D" x="19.812"/><path d="M154.157 17.713l-.059.529-.04.466-.027.371-.046.05h-.271l-.046-.045c-.004-.416-.031-.656-.072-.715-.072-.095-.502-.145-1.294-.145l-.598.027c-.036.317-.049.882-.049 1.701v.629l.525.014.878-.018c.081 0 .14-.027.167-.068.045-.072.072-.281.081-.611l.046-.045h.289l.046.045-.019.95.019 1.027-.046.041h-.312l-.045-.045c0-.326-.014-.516-.041-.57-.054-.109-.213-.172-.48-.195l-.538-.023-.57.014v1.104l.059 1.439c.013.091.067.145.158.172a13.02 13.02 0 0 0 .665.045l.045.045v.312l-.049.045-1.869-.027-1.105.027-.045-.041v-.317l.045-.045.543-.045c.091-.023.141-.081.159-.172.041-.226.059-.706.059-1.439v-2.457l-.059-1.439c-.014-.09-.068-.145-.159-.172-.045-.014-.226-.027-.543-.045l-.045-.045v-.317l.045-.041 1.43.027 3.132-.027.045.036-.009-.009zm8.476 4.421c0 .778-.375 1.38-1.131 1.806-.371.213-.851.317-1.435.317s-.339 0-.461-.005l-1.109-.023-.919.027-.045-.045v-.131l.023-.054c.231-.145.353-.235.371-.276.027-.054.045-.263.05-.62l.013-1.041v-2.353l-.059-1.439c-.013-.09-.068-.145-.158-.172-.045-.014-.226-.027-.543-.045l-.045-.045v-.317l.045-.041 1.421.027 1.154-.023.692-.018c.865 0 1.43.195 1.702.588a1.22 1.22 0 0 1 .212.715c0 .439-.171.805-.515 1.1-.163.14-.335.244-.512.312a4.79 4.79 0 0 1-.67.199c1.277.054 1.915.575 1.915 1.557h.004zm-1.62-2.942c0-.683-.357-1.027-1.068-1.027s-.434.014-.597.036l-.018.901v1.281l.425.009c.561 0 .928-.181 1.104-.539.104-.208.154-.43.154-.665v.005zm.199 3.082c0-.928-.488-1.394-1.461-1.394l-.421.014v2.15l.018.683a3.25 3.25 0 0 0 .534.032c.434 0 .769-.136 1.004-.407.222-.262.331-.62.331-1.077h-.005zm9.132 1.933l-.04.045-1.245-.027-1.588.027-.041-.045v-.294l.045-.05.403-.023c.172-.009.254-.068.254-.181s-.046-.208-.132-.434l-.375-.982-1.308-.009-1.077.009-.204.566c-.154.43-.231.701-.231.81s.073.186.218.208c.081.014.239.027.475.036l.045.045v.299l-.045.045-1.104-.027-.942.027-.045-.041v-.303l.05-.045c.321-.018.516-.081.588-.19s.349-.756.819-1.937l1.213-3.032.407-1.063h.661l2.462 5.793c.095.222.181.344.262.371.104.036.249.054.439.054l.041.05v.299h-.005zm-2.946-2.498l-.995-2.435-.95 2.435.991.014.954-.014zm10.798 2.497l-.045.045-1.43-.027-1.43.027-.045-.041v-.317l.049-.045.543-.045c.091-.023.141-.081.159-.172.041-.222.059-.701.059-1.439v-1.118c-.159-.014-.661-.023-1.507-.023l-1.543.023v1.118l.058 1.439c.014.091.068.145.159.172.045.014.226.027.543.045l.045.045v.312l-.041.045-1.43-.027-1.43.027-.045-.041v-.317l.045-.045.543-.045c.091-.023.141-.081.159-.172.04-.222.059-.701.059-1.439v-2.457l-.059-1.439c-.014-.091-.068-.145-.159-.172-.045-.014-.226-.027-.543-.045l-.045-.045v-.317l.045-.041 1.43.027 1.43-.027.041.041v.321l-.045.041-.543.045c-.091.023-.141.081-.159.172-.04.222-.058.701-.058 1.439v.765l1.357.023 1.693-.023v-.765l-.059-1.439c-.014-.091-.068-.145-.159-.172-.045-.014-.226-.027-.543-.045l-.049-.045v-.317l.045-.041 1.43.027 1.43-.027.045.041v.321l-.041.041-.547.045c-.091.023-.14.081-.159.172-.04.222-.058.701-.058 1.439v2.457l.058 1.439c.014.091.068.145.159.172.045.014.226.027.543.045l.045.045v.312zm6.955.001l-.045.045c-.023 0-.081 0-.176-.005l-.797-.023-.751.027c-.014-.072-.072-.199-.177-.371l-1.149-1.923-.516-.788a1.22 1.22 0 0 0-.276-.28l.05-.158.158.004c.303 0 .543-.045.715-.145.159-.086.303-.24.435-.453s.199-.475.199-.774c0-.52-.195-.873-.584-1.059-.186-.086-.457-.131-.815-.131s-.303.014-.448.036c-.031.303-.045.819-.045 1.552v2.43l.059 1.439c.014.091.068.145.158.172.046.014.227.027.543.045l.046.045v.312l-.041.045-1.43-.027-1.43.027-.045-.041v-.317l.045-.045.543-.045c.09-.023.14-.081.158-.172.041-.222.059-.701.059-1.439v-2.457l-.059-1.439c-.013-.09-.068-.145-.158-.172-.045-.014-.226-.027-.543-.045l-.045-.045v-.317l.045-.041 1.43.027.919-.014 1.049-.027c.534 0 .928.045 1.182.145.339.131.561.348.678.661.055.154.082.33.082.538 0 .842-.475 1.439-1.421 1.792l.493.788.715 1.1c.421.652.702 1.023.842 1.109.072.045.172.068.299.068l.045.045v.299h.004zm7.304 0l-.04.045-1.245-.027-1.588.027-.041-.045v-.294l.045-.05.403-.023c.172-.009.253-.068.253-.181s-.045-.208-.131-.434l-.375-.982-1.308-.009-1.077.009-.204.566c-.154.43-.231.701-.231.81s.073.186.217.208c.082.014.24.027.476.036l.045.045v.299l-.045.045-1.105-.027-.941.027-.045-.041v-.303l.05-.045c.321-.018.516-.081.588-.19s.348-.756.819-1.937l1.213-3.032.407-1.063h.661l2.462 5.793c.095.222.181.344.262.371.104.036.249.054.439.054l.041.05v.299h-.005zm-2.946-2.498l-.995-2.435-.951 2.435.991.014.955-.014zm6.499 2.497l-.041.045-1.434-.027-1.43.027-.041-.045v-.312l.045-.045.543-.045c.091-.023.141-.081.159-.172.04-.222.058-.701.058-1.439v-2.457l-.058-1.439c-.014-.091-.068-.145-.159-.172-.045-.014-.226-.027-.543-.045l-.045-.045v-.317l.045-.041 1.43.027 1.426-.027.045.041v.317l-.045.045-.543.045c-.091.023-.141.081-.159.172-.04.222-.059.701-.059 1.439v2.457l.059 1.439c.014.091.068.145.159.172.045.014.226.027.543.045l.045.045v.312zM204 18.03l-.05.045-.543.045c-.09.023-.14.081-.158.172-.041.222-.059.701-.059 1.439v1.887l.059 2.715-.059.041-.796-.127-4.25-5.1v3.037l.059 1.439c.014.09.068.145.158.172.046.014.227.027.544.045l.045.045v.317l-.045.041-.996-.027-1.073.027-.045-.041v-.317l.045-.045.543-.045c.091-.023.141-.081.159-.172.041-.222.059-.701.059-1.439v-2.457l-.059-1.439c-.014-.091-.068-.145-.159-.172-.045-.014-.226-.027-.543-.045l-.045-.045v-.317l.045-.041.842.027 1.041-.027 3.928 4.779v-2.715l-.059-1.439c-.013-.091-.068-.145-.158-.172-.045-.014-.226-.027-.543-.045l-.045-.045v-.317l.045-.041.991.027 1.077-.027.045.041v.317z"/></g><g clip-path="url(#C)"><mask id="A" maskUnits="userSpaceOnUse" x="0" y="0" width="70" height="70"><path d="M70 0H0V70H70V0Z" class="B"/></mask><g mask="url(#A)" class="B"><path d="M44.668 15.763l-.045-.017a.12.12 0 0 0 .039.023m11.4 22.452l-.017-.017.017.017zm11.714-24.754s0-.028.006-.045c0 .017 0 .028-.006.045zm-5.582 17.577l-.09-.05.09.05zm.084-13.192l-.023-.023c.006.006.011.017.023.023zm-6.699 19.807l.118.157c-.039-.051-.084-.101-.118-.157zM2.488 14.118s-.017-.022-.022-.039c0 .011.011.023.022.039zM52.996 3.751l.045.011c-.017 0-.028-.006-.045-.011z"/><path d="M53.361 3.841s.017 0 .023.006c-.006 0-.017 0-.023-.006zm8.39 26.888l-.017-.017.017.017zm-28.899-18.88l.006-.011h-.006v.011zm17.15 1.898c.028.062.758 1.471 2.28 1.471l.197-.006-.028-.337c-1.438.118-2.123-1.224-2.151-1.28l-.298.152zm6.762 2.842c-.64-.932-1.258-1.247-1.275-1.258l-.152.309s.567.292 1.146 1.134c.011.017.904 1.454 2.426 1.454a2.5 2.5 0 0 0 .629-.079l-.084-.326c-1.657.421-2.651-1.157-2.696-1.23"/><path d="M56.427 15.893s.388.208.781.786c0 .011.651 1.044 1.741 1.044a1.88 1.88 0 0 0 .455-.056l-.084-.326c-1.117.286-1.797-.786-1.831-.842-.449-.657-.893-.887-.91-.893l-.152.298v-.011zm-5.38-5.319l.084-.331c-.079-.017-1.752-.404-2.724.943l.27.197c.842-1.163 2.308-.825 2.37-.809zM17.268 9.086c.247 0 .511-.039.792-.14l-.112-.314c-1.348.477-2.37-.635-2.409-.685l-.253.225c.039.045.831.915 1.982.915zM7.39 5.116c-.062-1.325 1.342-1.842 1.404-1.864.854-.343 1.213-.786 1.224-.803l-.258-.208s-.331.387-1.084.702c-.022 0-1.696.618-1.623 2.196l.337-.017v-.006zm55.955 24.737c-.826.18-1.196-.691-1.213-.73l-.309.129c.146.354.59.955 1.314.955.095 0 .197-.011.309-.034.011 0 1.129-.494.562-1.932l-.314.123c.449 1.129-.343 1.494-.348 1.494m-14.09-14.471h.197l-.023-.337c-1.432.107-2.123-1.224-2.156-1.28l-.303.146c.034.062.758 1.471 2.286 1.471z"/><path d="M56.191 12.057l.152-.303c-.062-.034-1.606-.786-2.864.303l.225.253c1.084-.944 2.437-.286 2.488-.258M10.614 8.575c.056-.017 1.353-.365 2.027.668l.281-.185c-.803-1.241-2.387-.809-2.392-.809-.73.168-1.174.051-1.185.051l-.09.32s.522.146 1.353-.045m47.217 13.248l.315-.112c-.303-.865-1.303-1.606-1.342-1.64l-1.488-1.117-.202.27 1.488 1.117s.955.708 1.224 1.483m2.341 8.523l.264-.208-.764-.977s-.483-.607-.522-1.129l-.337.023c.051.623.573 1.286.595 1.314l.769.977h-.006z"/><path d="M60.408 12.237l-.337.045s.079.663-.331 1.106c-.264.292-.685.427-1.241.41l-.017.337h.118c.612 0 1.078-.174 1.387-.517.517-.556.421-1.348.416-1.381m.848 3.218l-.14.303s.567.27 1.168 1.084c.011.017.915 1.348 2.359 1.348a2.72 2.72 0 0 0 .707-.101l-.095-.32c-1.617.472-2.645-1.05-2.696-1.117-.663-.899-1.28-1.185-1.303-1.196zm-4.077 9.833l.045-.337c-1.309-.185-1.55-1.617-1.567-1.685-.185-.882-.539-1.303-.556-1.325l-.258.219s.32.382.483 1.162c0 .017.292 1.735 1.853 1.96M19.571 7.295l-.14-.303c-1.297.618-2.426-.376-2.471-.416l-.219.253a2.93 2.93 0 0 0 1.814.702 2.29 2.29 0 0 0 1.022-.236m2.055-2.409l.253-.225c-.051-.056-1.213-1.325-2.78-.764l.112.314c1.353-.477 2.37.629 2.409.674m38.429 18.319c.225-.595-.09-1.185-.101-1.213l-.298.163s.258.477.084.927c-.112.292-.387.522-.82.68l.112.32c.528-.191.87-.483 1.022-.876zM11.995 3.661c.05-.039 1.112-1.078 2.274-.455l.157-.292c-1.387-.758-2.656.494-2.668.5-.612.556-1.106.68-1.106.68l.073.331s.573-.14 1.264-.769m-2.47 10.479l.084-.331c-1.685-.416-1.808-2.347-1.814-2.432-.112-1.162-.505-1.752-.528-1.775l-.275.191s.365.545.466 1.606c0 .023.14 2.263 2.067 2.741z"/><path d="M60.049 8.289c.831.668 1.095 1.275 1.095 1.28l.309-.124s-.292-.691-1.207-1.421c-.017-.011-1.623-1.196-1.05-2.881l-.32-.101c-.646 1.915 1.151 3.24 1.168 3.251M14.466 22.491l1.039-.668-.185-.286-1.039.674c-.034.023-.747.472-.994 1.05l.309.129c.208-.477.854-.893.865-.899m2.594 20.565s-1.505 1.533-.623 3.235l.303-.157c-.78-1.483.5-2.78.562-2.842.741-.82.904-1.483.91-1.511l-.326-.073s-.157.607-.826 1.353"/><path d="M14.556 23.137c-.028.017-.741.477-.988 1.05l.309.135c.208-.483.854-.893.865-.904l1.044-.674-.18-.281-1.045.674h-.006zm-5.807 2.381c.331.292.747.337.988.337.107 0 .18-.011.191-.011l-.051-.331s-.545.079-.915-.247c-.236-.213-.359-.55-.354-1.016h-.337c0 .562.157.988.477 1.264m6.645-6.179l-.326-.079c-.348 1.404-1.926 1.522-2.005 1.522-.966.107-1.46.449-1.477.466l.191.275s.449-.309 1.314-.399c.017 0 1.893-.129 2.297-1.78M55 7.334s-1.163.966-2.274.258l-.185.281a1.91 1.91 0 0 0 1.067.314c.893 0 1.6-.59 1.606-.595.635-.489 1.129-.567 1.134-.567l-.056-.337s-.567.095-1.292.646zm8.295-1.376l.331-.056c-.017-.067-.343-1.758-1.977-2.1l-.067.331c1.41.292 1.702 1.769 1.718 1.825m-43.566 41.31c.011.079.124 1.954-1.477 2.589l.118.315c1.831-.724 1.696-2.903 1.696-2.915-.028-1.039.264-1.617.264-1.623l-.303-.152s-.331.646-.303 1.791m4.447 6.256c-.286-1.067-.752-1.561-.775-1.584l-.242.236s.433.461.691 1.426c0 .023.477 2.095 2.387 2.269l.034-.337c-1.662-.152-2.072-1.926-2.095-2.016"/><path d="M24.883 11.164c-.056-.045-1.381-1.146-2.858-.376l.157.298c1.275-.663 2.437.298 2.482.337l.219-.258zM8.311 29.674c.64 0 1.118-.444 1.14-.466l-.236-.247s-.449.432-1.011.371c-.365-.039-.702-.275-1-.713l-.275.191c.359.522.775.803 1.241.848a.6.6 0 0 0 .14.011m6.695-2.247c-.017.039-.314.96-.118 1.651l.32-.096c-.168-.584.112-1.443.112-1.449l.444-1.37-.326-.101L15 27.422h.006zM19.52 14.91v.337h.05c1.741 0 2.331-1.32 2.359-1.376l-.309-.135s-.533 1.174-2.055 1.174h-.045z"/><path d="M16.909 12.197c.607.595 1.106.741 1.123.747l.09-.32s-.444-.135-.971-.657c-.011-.011-1.129-1.207-2.465-.573l.14.303c1.112-.528 2.033.455 2.083.5zm-6.907 3.258s-1.831.388-2.656-1.045l-.292.168c.618 1.078 1.713 1.264 2.398 1.264.359 0 .612-.051.612-.051.983-.168 1.567.023 1.572.028l.107-.32s-.663-.219-1.747-.039m12.748-.14c1.668-.606 1.763-2.078 1.769-2.145l-.337-.017s-.084 1.32-1.544 1.848l.112.314zM3.886 12.046c-.876.348-.803 1.269-.64 1.713l.314-.118c-.011-.039-.343-.96.477-1.292 0 0 .489-.253 1.46.584l.219-.258c-1.157-1-1.791-.657-1.831-.629zM62.25 9.648l.337.028c.079-.854-.483-1.876-.505-1.926l-.825-1.533-.298.157.831 1.539s.528.983.466 1.735m-6.189-.938c-.719.348-1.219.337-1.219.337l-.022.337h.028c.129 0 .651-.022 1.365-.371.017-.011 1.331-.719 2.28.202l.236-.241c-1.129-1.089-2.662-.27-2.673-.264m-44.539 8.985v.343c.073 0 1.797-.034 2.415-1.578l-.315-.124c-.528 1.331-2.038 1.359-2.106 1.359M54.141 5.599l.152.303c1.601-.803 3.038.41 3.094.466l.219-.253s-1.657-1.421-3.465-.511"/><path d="M16.757 14.595l.23-.247c-.994-.966-2.353-.253-2.359-.253-.629.303-1.061.281-1.061.281v.168l-.017.168h.039c.135 0 .584-.023 1.191-.315.05-.028 1.162-.601 1.977.202m-.23 34.078c.685 0 1.179-.522 1.196-.545l-.247-.225s-.449.455-.983.438c-.365-.011-.719-.225-1.045-.635l-.264.213c.393.489.831.741 1.297.764h.045v-.011zm30.932 6.166s-.045 1.325-1.168 1.64l.096.326c1.353-.382 1.41-1.937 1.41-1.943.051-.708.286-1.067.286-1.073l-.281-.185s-.286.432-.343 1.241M18.51 52.12h-.034c-.365-.011-.719-.225-1.045-.635l-.264.208c.393.489.825.747 1.297.764h.045c.691 0 1.179-.528 1.202-.55l-.247-.225s-.415.438-.955.438z"/><path d="M47.167 52.765l-.292-.174s-.23.371-.842.724c-.011.006-1.387.73-1.14 2.117l.326-.062c-.202-1.14.921-1.73.977-1.758.702-.399.96-.831.971-.848zm8.019-5.924c.511-.213.696-.764.702-.786l-.32-.107s-.146.432-.517.584c-.241.095-.539.062-.882-.112l-.152.303a1.64 1.64 0 0 0 .741.202.97.97 0 0 0 .421-.084"/><path d="M55.203 47.217c-.247.09-.539.045-.876-.14l-.157.292c.27.152.533.225.775.225a1.12 1.12 0 0 0 .382-.067c.517-.197.719-.736.73-.758l-.32-.118s-.157.421-.528.562M5.397 17.976h.343s0-.46.309-.713c.197-.174.489-.23.859-.174l.056-.337c-.477-.067-.859.017-1.14.253-.416.365-.421.949-.421.971m43.841 43.943s.213.129.511.129.674-.123 1.016-.629l-.286-.185c-.489.73-1.005.438-1.039.421-.449-.421-.079-1.005-.062-1.028l-.275-.185c-.191.292-.416.966.135 1.483"/><path d="M6.043 18.695h.343s0-.46.303-.713c.197-.174.489-.23.859-.174l.051-.337c-.477-.073-.859.011-1.134.253-.416.359-.421.944-.421.966m48.619 25.73l.264.202c.539-.736.185-1.595-.073-1.937-.303-.455-.337-.792-.337-.792l-.168.017-.168.011s.039.416.399.955c.028.039.606.831.084 1.544z"/><path d="M54.972 44.662l.27.197c.927-1.264-.09-2.673-.101-2.679-.449-.668-.505-1.162-.505-1.162l-.331.023s.05.578.556 1.331c.039.051.887 1.224.107 2.291m-2.646 3.526s.887 1.219.107 2.291l.275.197c.921-1.269-.101-2.673-.107-2.684-.449-.668-.494-1.162-.494-1.162l-.337.022s.056.578.562 1.331m-31.061 4.02l-.337-.045c-.14 1.05.494 2.359.522 2.409l.955 1.96.303-.146-.96-1.965s-.618-1.264-.483-2.218m3.555 13.264l.331.067c.208-1.039-.348-2.381-.365-2.437l-.837-2.027-.314.129.837 2.022s.534 1.303.348 2.246zm-3.274-5.217c.129-.27.185-.657.056-1.185l-.326.084c.298 1.179-.534 1.432-.539 1.438-.854.079-1.095-.837-1.112-.876l-.326.084c.112.421.556 1.207 1.499 1.112 0 0 .466-.135.719-.601.264 1.134-.55 1.382-.55 1.387-.848.062-1.101-.837-1.112-.876l-.326.079c.112.404.528 1.129 1.365 1.129l.135-.006c.011 0 1.185-.348.803-1.853l-.281.067-.006.017zm10.344 6.396l.337-.034c-.163-1.977-2.302-2.476-2.314-2.476-1.011-.286-1.477-.73-1.482-.73l-.236.236s.528.505 1.634.82c.073.022 1.921.455 2.061 2.185zm-4.173.893s.786 1.612 2.359 1.612a2.46 2.46 0 0 0 .348-.028l-.045-.331c-1.561.219-2.319-1.331-2.359-1.404-.494-.921-1.039-1.28-1.056-1.297l-.185.281s.5.337.943 1.162m16.91-5.156s-1.185 1.37-.343 2.752l.292-.169c-.713-1.174.264-2.308.309-2.364.578-.724.679-1.286.679-1.309l-.331-.056s-.096.505-.606 1.151m.505-3.633c-.927.017-1.426.303-1.443.315l.174.286s.449-.258 1.275-.264c.017 0 1.814.028 2.342-1.499l-.314-.112c-.449 1.303-1.954 1.28-2.022 1.269m3.588 4.217c-.449-.421-.084-1.011-.067-1.033l-.281-.18c-.191.286-.404.966.135 1.477a1.03 1.03 0 0 0 .517.135c.298 0 .668-.129 1.005-.635l-.275-.191c-.489.724-1.005.444-1.033.427z"/><path d="M40.81 61.981l-.129.309a2.09 2.09 0 0 0 .719.124c.573 0 1.365-.236 1.881-1.348l-.309-.14c-.747 1.617-2.106 1.078-2.162 1.056zm-12.765-2.634c.382 0 .797-.045 1.163-.18l-.118-.314c-.899.337-2.258.023-2.269.023l-2.128-.489-.073.326 2.128.494a6.13 6.13 0 0 0 1.303.146"/><path d="M67.776 12.815c-.006-.039-.017-.073-.023-.107-.118-.567-.483-1.039-1.078-1.398-1.179-.713-2.201-.68-2.943-.472a3.24 3.24 0 0 0-.5.18c.388-.651.584-1.325.584-2.005a3.76 3.76 0 0 0-.197-1.174c.646-1.191.831-2.201.533-3.01-.348-.955-1.286-1.454-2.067-1.78l-.438-.18-.129-.051-.067-.028-.388-.185c-.011 0-.017 0-.022-.006-.393-.236-.584-.494-.674-.696-.039-.084-.056-.163-.067-.219 0-.022-.006-.039-.006-.056 0-.045-.006-.073-.006-.079l-.337.011a.99.99 0 0 0 .011.157c.039.376.174 1.471.533 2.364l-.045.994c-.477-.955-1.376-1.387-2.067-1.578-.522-.146-.927-.157-.932-.157l-1.561-.095.303.314.753.837.348.449a2.48 2.48 0 0 0-.994-.331c-.371-.045-.775-.022-1.213.073a7.83 7.83 0 0 0-1.118-.528h-.022c-.185-.073-.387-.14-.601-.197-.034-.011-.067-.017-.101-.028l-.09-.022-.118-.028c-.017 0-.034-.006-.05-.011l-.298-.056h-.023c-.05-.011-.107-.017-.163-.022h-.034c-.056-.011-.118-.017-.174-.017.056 0 .118.011.174.017l-.348-.022h-.09c-2.196 0-3.583 1.645-4.111 3.066l-.05.14-.09.236.365-.163.404-.163c.286-.107.685-.241 1.078-.32.242-.051.483-.073.691-.062a7.29 7.29 0 0 0 1.106.011h.028.028c.331-.028.64-.101.91-.23.006 0 .017-.006.023-.011.028-.017.062-.028.09-.051.028.039.062.084.112.129a1.2 1.2 0 0 0 .27.202c.073.039.152.073.242.101l-.056.034a3.47 3.47 0 0 0-.59.455c-.028.028-.062.051-.09.084a.48.48 0 0 1-.101.079c-.309.197-.842.225-1.044.219l-.337-.011.101.146.095.135c.393.562.854.915 1.331 1.112a2.93 2.93 0 0 0 .853.213c.416.792 1.129 1.022 1.853 1.022.584 0 1.174-.135 1.629-.241l.404-.09.163-.028.41-.022c.281 0 .505.017.68.045a2.25 2.25 0 0 1 .309.719c.05.219.079.477.039.764-.05.359-.213.752-.562 1.157-.612.702-1.758.775-2.712.679 1.14-.286 1.78-1.056 1.791-1.067l.084-.107.011-.017-.045-.045-.067-.067c-.326-.292-.651-.511-1-.663a4.03 4.03 0 0 1 .505.275 2.77 2.77 0 0 0-.505-.275c-.825-.365-1.752-.343-2.948-.067h-.039a18.3 18.3 0 0 0-1.466.41c-.489.152-.915.247-1.292.309l-.247.034c-.028 0-.056.006-.079.011a2.85 2.85 0 0 0 .315-.18c.46-.298.82-.691 1.078-1.039.331-.449.494-.831.5-.837l.073-.185h-.028v-.006l-.157-.039c-1.707-.393-2.864.039-3.667.573-.702-.314-1.404-.343-1.971-.281l1.325-4.908.752-2.297-.152-.073-3.021 4.504.011-2.673-2.37 3.426-.59-7.138-3.212 6.801-.674-2.432-.988 2.179L35.559.039l-.932 3.111-1.101 3.673-.781-1.909-.764 2.471L29.556.91l-.163.017-.404 2.454-.708 4.251-2.213-3.504-.034 2.69-.556-.943-2.111-3.583-.157.067.595 2.404h-.011v.006l.46 1.971.859 3.684v-.028l-.05-.185c-.455-.292-1.269-.691-2.291-.646a1.23 1.23 0 0 0-.202.017c-.517.056-1 .213-1.511.382l-.921.281c-.629.163-1.303.247-2.067.079l-.23-.056-.213-.022v.292l.05.05c.062.062 1.41 1.404 3.667 1.258h.022.022a5.61 5.61 0 0 0 .708-.095l.494.247c-.011 0-.017-.006-.028-.011l.028.011c.034.011.062.028.096.039l.157.062c.028.011.056.022.084.028l.23.079a4.49 4.49 0 0 0 1.067.191 7.03 7.03 0 0 1-.915.174c-.46.056-1.011.079-1.685.05-.399-.017-.786-.079-1.112-.146a6.99 6.99 0 0 1-.758-.202c-.202-.135-1.701-1.118-3.246-1.499a4.72 4.72 0 0 0-.91-.146c-1.898-.107-2.954.736-2.999.769l-.32.264.41.039c.14.011.837.09 1.539.326h.022c.416.146.837.348 1.123.629.011.011.034.022.05.039.157.112.511.354.825.528-.387.107-.831.174-1.292.208-1.264.09-2.668-.101-3.454-.651-.213-.152-.371-.32-.477-.505a1.1 1.1 0 0 1-.135-.539c0-1.151.876-1.572 1.499-1.724a2.94 2.94 0 0 1 .618-.084v-.011l.455.174.185.084.045-.202.039-.241c.05-.511-.124-.938-.365-1.275l-.095-.129.314.163.365.191.129.067c.73.382 1.483.769 2.257.988h.022l.331.084c.685.146 1.393.124 2.033.034 1.224-.174 2.201-.612 2.263-.64l-.062-.32c-.365-.022-.747-.107-1.101-.219l-.494-.168c.056.011.123.017.185.022.55.051 1.056.017 1.511-.062l.152-.028h.022l.135-.028c.011 0 .022 0 .034-.006l.118-.028c.011 0 .028-.006.039-.011.034-.011.067-.017.107-.028.017 0 .034-.011.051-.011l.09-.028.056-.017c.028-.011.056-.017.079-.028.022-.006.045-.011.062-.022.022-.006.045-.017.067-.022s.045-.017.067-.022.039-.017.062-.022.045-.017.062-.022c.028-.006.045-.011.062-.022.022-.011.05-.022.073-.028l.045-.017.073-.034a.27.27 0 0 1 .039-.017l.062-.028a.19.19 0 0 0 .045-.017l.067-.034.034-.017.067-.034c.011 0 .017-.011.028-.017l.062-.034c.011 0 .017-.011.028-.011.017-.011.034-.017.045-.028.022-.006.028-.017.039-.022.017-.011.034-.017.051-.028.011-.006.017-.011.028-.017l.045-.028c.006-.006.017-.011.022-.017.011-.006.023-.011.028-.017.011-.006.017-.011.028-.017.006 0 .017-.011.023-.017.011-.006.017-.011.022-.017.006 0 .011-.011.017-.011.011-.006.017-.011.028-.017.023-.011.028-.017.039-.022.017-.011.028-.022.034-.022l-.107-.23-.028-.067a.87.87 0 0 1-.118.022c-.281.045-.668.051-1.084 0-.545-.067-1.146-.225-1.657-.528-.292-.174-.646-.326-.994-.46l-.55-.191a5.81 5.81 0 0 0 1.567-.365v.034l.225.039c.707.107 1.303.028 1.741-.09.489-.129.781-.303.803-.32l.073-.045.05-.034-.039-.095-.017-.039c-.017-.051-.522-1.275-2.769-1.87a5.82 5.82 0 0 0-.966-.168c-1.634-.135-2.712.522-2.836.606l-.472-.017a5.84 5.84 0 0 0-.747.045c-.034 0-.073.011-.112.017l-.404.062c-.011 0-.022 0-.034.006.646-.629.865-1.443.927-1.735l.023-.107.011-.09.011-.073h-.022l-.135-.028c-1.657-.286-3.1-.011-4.318.522C11.933 1 11.187.376 11.153.343l-.09-.067-.045-.034-.084.112-.017.022c-.988 1.286-1.325 1.432-2.454 1.909l-.904.393c-.045.017-.084.039-.124.062-.365.191-.646.438-.848.747-.09.135-.163.281-.219.438-.051.129-.084.264-.107.404-.202 1.073.241 2.218.376 2.527-.174.331-.775 1.657-.59 3.673.028.331.079.674.157 1.039-.387-.331-1.028-.685-1.915-.584-.247.028-.511.09-.797.202-.348.135-.601.309-.786.505-.326.337-.449.724-.483 1.039-.056.489.067.994.281 1.438l.124.236c0 .006.006.011.011.017.051.09.107.174.163.253.18.242.382.444.584.584l.225.152.022-.185.011-.084s0-.034.017-.09c.051-.208.213-.747.685-1.117.067-.051.135-.096.213-.14 0 0 .011-.006.017-.011l.152-.067 1.533 1.718c-.039.011-.079.028-.124.045a2.94 2.94 0 0 0-1.05.657c-.146.146-.286.314-.416.511-.539.865-.601 2.022-.185 3.448l.011.039.011.045.051.017.028.011s.095.034.236.034h.112c.056 0 .095-.011.135-.017h.028c.045-.006.09-.017.146-.028h.022a1.24 1.24 0 0 0 .18-.05 4.19 4.19 0 0 0 .623-.241c.522-.242 1.207-.635 2.083-1.28 1.129-.837 1.887-1.314 2.465-1.584.269-.123.5-.202.707-.253-.466.444-1.207 1.241-1.207 1.915v.168h.14.017c.112.006 2.752.084 5.155-1.657-.045.343-.208.899-.747 1.438-.415.416-1.061.82-2.044 1.101l-.814.219-.028.011-.534.135.528-.135-.533.135c-2.162.55-3.252.825-3.858 3.167-.146.573-.118 1.117.034 1.595a1.13 1.13 0 0 0 .039.129c-.028.023-.062.056-.095.09-.387.371-1.292 1.359-1.359 2.578-.028.5.017.972.135 1.393.14.517.382.949.708 1.247a.71.71 0 0 0 .073.062c.135.112.275.202.427.27-.32 1.056-.135 2.684.663 3.572a2.12 2.12 0 0 0 1.746.702c-.034.241-.062.68.006 1.219.039.292.107.618.225.955.225.651.635 1.353 1.337 1.993l.455.416-.118-.365-.067-.225c0-.017-.449-1.477.107-2.903.079-.197.174-.393.298-.59l-.006.219c-.011.994.202 2.325.865 3.038.303.326.668.511 1.095.545a2.43 2.43 0 0 0 .837-.096c2.493-.724 1.73-4.678 1.224-7.295 0-.011 0-.022-.006-.034v-.022l-.09-.46-.034-.191-.067-.376c-.034-.213-.051-.432-.045-.657.006-1.572.781-3.375 1.202-4.234l.107 1.365.034.32.034.393.034.365h-.006c0 .039.488 3.723-.197 7.654-.23 1.331-.64 2.443-1.106 3.459l-.854 1.707-.084.169-.337.646c-2.196 4.33-.983 6.436-.365 7.143.191.219.416.399.657.545a2.89 2.89 0 0 0 .584.27c-.023.393-.056 1.82.567 2.836.157.253.348.483.595.668.371.27.814.41 1.325.41.5 0 1.061-.112 1.696-.354.095 1.039.607 2.342 1.056 3.375l.067.163a2.97 2.97 0 0 1 .185.876c.028.399-.023.82-.27 1.073-.062.067-.146.118-.236.157-.18.079-.404.101-.68.067-.185-.022-.393-.079-.618-.152l-.242-.084-.191-.079-.022.157v.039s-.028.124-.039.292v.022c-.028.331-.045.882.084 1.432.112.489.326.977.741 1.32a1.1 1.1 0 0 0 .129.095c.612.427 1.488.477 2.606.152l.253-.079c.079.809.32 1.713.921 2.325 1.117 1.14 1.825 3.01 1.96 3.386a.38.38 0 0 1 .022.067l.146.432.107-.27.062-.152.107-.337.09-.32c.595.741 1.202 1.286 1.797 1.685 1.14.758 2.235.972 3.089.972 1.022 0 1.701-.298 1.718-.303l-.034-.107-.062-.213c-.331.045-.685-.157-1.005-.46-.298-.275-.567-.629-.781-.938l-.32-.528-.96-1.499c1.46.242 2.746 1.994 2.988 2.331l.039.056.219.326.348-1.477c.174-1.629-.118-2.909-.854-3.796a3.38 3.38 0 0 0-2.128-1.179l-.539-.258-3.774-1.803c3.796.371 5.329-.842 5.402-.898l.118-.101.051-.039-.185-.129c-.753-.528-1.774-1.117-4.392-1.443-.73-.09-1.365-.331-1.898-.724a3.99 3.99 0 0 1-.854-.882 3.77 3.77 0 0 0 1.64.679h.039a2.39 2.39 0 0 0 .197.023c.483.045 1.033 0 1.651-.191l.292-.084-.225-.202s-.921-.814-1.117-1.848l-.045-.213-.32-1.179.129.174.18.242.135.185.32.427.118.157.382.483.82.994.073.084.331.382 1.067 1.163.393.41.169.169 1.32 1.269.045.045c.067.067.146.123.213.191l.27.23.354.303.191.163.601.5.079.067.416.326 1.848 1.365.045.028h.107l.028-.022.011-.011 2.022-1.494.118-.096.202-.169 1.527-1.297.522-.494 1.179-1.134.612-.657.949-1.033.326-.382.359-.438.343-.416.399-.5.084-.112.483-.657.174-.241.545-.753.809-1.235.084-.129.27-.416.348-.573.545-.938.067-.112c.023-.034.039-.062.056-.096l.011.011c.006-.011.562-.612 1.14-.87.011 0 .023-.006.028-.011l.09-.034-.062.365a5.35 5.35 0 0 1-.393 1.207c0 .006-.006.011-.011.022-.18.382-.41.73-.724 1l-.578.46c-.618.477-1.365 1.056-1.971 1.915-.539.758-.977 1.735-1.14 3.061l-.017.163v.023h.191c.017 0 .253 0 .595-.101.011 0 .022-.006.034-.011l.101-.034c.011 0 .028-.011.039-.017l.101-.039c.292-.118.623-.298.955-.59a4.38 4.38 0 0 1-.174.629c-.174.46-.472 1-.988 1.477-.022.022-.045.039-.067.056-.438.359-1.129.494-1.859.635-1.28.242-2.847.539-3.622 2.229a3.64 3.64 0 0 0-.152.371l-.011.034-.034.095.123.073c.028.017.505.281 1.258.298-.376.157-.814.309-1.252.41l-.337.101c-.663.242-1.264.747-1.645 1.387-.084.135-.157.275-.219.427-.466 1.067-.472 2.432-.023 4.066l.118.438.124-.264.067-.14s.898-1.82 2.937-2.353c-.286.404-.758 1.095-1.14 1.853-.286.562-.674 1.011-1.073 1.275-.32.213-.651.303-.932.236l-.067.197-.039.118s.753.326 1.825.326c1.348 0 3.223-.511 4.891-2.797a3.35 3.35 0 0 0 .371.483l.112.124.309.343-.067-.326-.062-.292s-.112-.584.797-1.572l.146-.157c.561-.573.887-1.398 1.073-2.128.028-.096.05-.197.067-.286a2.5 2.5 0 0 0 .32.618c.056.079.112.146.168.208.472.505 1.157.758 2.044.758a2.37 2.37 0 0 0 .354-.028 2.07 2.07 0 0 0 1.219-.629c.848-.87 1.095-2.387 1.168-3.302l.028-.758v-.354l-.281.225c0 .006-.623.511-1.19.472H50.3c-.028 0-.056-.006-.084-.011-.197-.045-.359-.163-.494-.354-.202-.281-.281-.724-.303-1.207-.034-.994.208-2.185.292-2.578l.034-.135c.039-.146.898-3.465.573-5.284.124.051.286.163.432.393-.236.623-.298 1.213-.247 1.741.067.713.343 1.308.674 1.724.444.55 1.017.848 1.556.809a.69.69 0 0 0 .107-.011c.298-.045.567-.208.786-.455l.062-.067c.14-.174.258-.393.354-.64.691-1.864.079-4.296-.545-6.121l.079.079c.067.062.14.112.219.163.404.253.915.326 1.438.197l.191-.056c.854-.298 1.488-1.073 1.657-2.027.079-.477.079-.977.017-1.488-.286-2.398-1.881-4.88-1.96-5.009l-.05-.067-.096-.135c0-.011-.006-.017-.011-.022l-.028-.056c-.006-.017-.017-.034-.017-.045h-.017a11.8 11.8 0 0 1-.814-1.477c-.011-.034-.023-.062-.034-.084-.241-.539-.427-1.056-.567-1.527-.399-1.337-.438-2.308-.438-2.432l.286-1.595.55-4.083c.011-.067.017-.135.022-.202l.112-1.314c0-.039.006-.079.011-.118 0-.023 0-.045.006-.067 0-.028.006-.056.006-.079l.096.112a.92.92 0 0 0-.096-.112l.096.112c.006.006.011.011.017.022.028.039.062.073.084.112 0 .006.006.011.011.017.011.011.017.023.028.039a3.37 3.37 0 0 1 .421.792c.438 1.157.309 2.527.146 4.055l-.095.994-.079 1.965a11.28 11.28 0 0 0 .096 1.213c.124.904.461 1.64.915 2.218l.034.045a1.45 1.45 0 0 0 .118.135l.073.079.118.118c.595.584 1.314.938 2.011 1.073h.022c.023 0 .039.006.062.011l.225.034a2.96 2.96 0 0 0 .314.017c.118 0 .225-.006.337-.017.696-.084 1.241-.427 1.483-.96l.05-.129a3.24 3.24 0 0 0 .157-1.387c-.163-1.657-1.46-2.987-1.528-3.055l-.354-.354.067.494s.028.18.034.438l-.006-.18.006.18-.011.505v.028.056c-.034.32-.101.668-.247.955-.191-.438-.573-1.488-.657-3.044a11.9 11.9 0 0 1 .028-1.595c.039-.46.101-.949.202-1.46.095.152.225.331.399.528.505.567 1.365 1.241 2.752 1.567.034.006.062.017.09.023l.309.067-.118-.292s-.326-.82-.404-1.527l.101.135a.15.15 0 0 0 .028.034c.006.011.011.017.023.023l.112.129c.017.022.039.039.056.056l.062.062.067.062c.017.017.034.034.051.045.022.023.05.039.073.062.017.011.034.028.05.039l.073.056c.017.011.028.023.045.034.028.017.051.039.079.056.006 0 .017.011.022.017.483.292.971.382 1.37.337h.039c.034 0 .067-.011.101-.017h.023c.803-.163 1.359-.831 1.483-1.769.118-.904-.096-1.657-.388-2.235a4.24 4.24 0 0 0-.971-1.269 1.96 1.96 0 0 0 .376-.646l.062-.185c.303-1.151-.202-2.246-1.527-3.296l-.09-.067-.118-.09-.09-.067c.017.011.034.022.045.034-.017-.011-.034-.022-.045-.034l-.129-.09c-.028-.022-.062-.039-.09-.062-1.09-.747-2.6-1.466-4.537-2.179-.786-.286-1.393-.59-1.876-.882-1.331-.82-1.617-1.578-1.668-1.718v-.023l-.017-.129h-8.39a1.43 1.43 0 0 0-.157-.415h.011l.034-.55c.18-.067.359-.152.533-.275a2.69 2.69 0 0 0 .427-.354c.882.814 2.42 1.191 3.6.859l.146-.045-.011-.062-.017-.084s-.09-.5-.472-1.045l.225.168a2 2 0 0 1 .309.309c.056.067.118.129.191.185.696.556 2.117.629 2.825.354l.146-.056-.034-.101-.017-.051c0-.011-.017-.062-.051-.135-.101-.247-.371-.781-.932-1.264a5.92 5.92 0 0 1 .724.371 6.32 6.32 0 0 1 1.477 1.258l.101.112.466.567.123.152c.915 1.129 1.69 2.089 3.207 2.437l.09.022a.2.2 0 0 1 .056.011l.152.028a.33.33 0 0 1 .073.011c.556.084 1.202.095 1.977.017l.382-.045-.045-.039-.242-.213s-.129-.112-.292-.331c-.129-.174-.281-.416-.416-.719a3.74 3.74 0 0 1-.123-.331c-.067-.208-.163-.41-.275-.601-.275-.472-.663-.887-1.044-1.196-.023-.017-.045-.039-.073-.056h.006l.253.011v.05a2.39 2.39 0 0 0 .213.045c.23.056.618.174 1.056.404a4.47 4.47 0 0 1 1.505 1.258l.236.286.045.05.219.236.202.197c.842.781 1.819 1.168 2.948 1.168.281 0 .573-.028.87-.073l.668-.135.32-.084-.264-.213s-1.264-1.016-1.713-1.988c-.421-.904-1.494-1.791-2.561-2.033a4.26 4.26 0 0 0 .314-.196l.292-.202c.421-.309.814-.595 1.449-.64l.129-.006c1.084-.011 1.454 1.067 1.561 1.539a1.62 1.62 0 0 1 .039.213l.056.365.236-.275.096-.112c.118-.152.326-.438.511-.809l.096-.197.067-.157c.006-.017.011-.034.022-.05l.051-.14a3.76 3.76 0 0 0 .112-.449l-.028.163.034-.163c0-.022.006-.045.011-.067a2.3 2.3 0 0 0 0-.651M54.686 33.885l.045-.983-.045.983zm4.06 2.493c.449-.55.522-1.426.505-1.988.539.685 1.505 2.207.971 3.729-.213.618-.932.96-1.831.87l-.393-.073c.371-.118.663-.303.848-.573.432-.601.264-1.337.258-1.365l-.326.079s.14.618-.202 1.095c-.23.32-.64.511-1.207.556-1.056-.472-2.033-1.511-2.252-3.145l-.056-.472c.421.803 1.241 1.87 2.668 1.786a1.39 1.39 0 0 0 1.016-.5zm-.803-5.812l.185-1.174-.185 1.174zm3.532 1.207c-.281-.056-.539-.135-.786-.23a4.59 4.59 0 0 0 .786.23zm3.302-2.297c-.112.842-.601 1.41-1.314 1.505-.696.084-1.713-.292-2.314-1.696-.202-.786-.73-1.803-1.432-2.258 1.078-.202 1.814.477 1.848.505.5.5 1.157.567 1.185.567h.022.028c.219-.039.393-.152.505-.343.315-.505.067-1.376.056-1.415l.14-.107c.331.298 1.511 1.471 1.286 3.24m-.938-4.386c-.258.977-1.095 1.28-1.859 1.247.326-.191.651-.556.702-1.269l-.337-.028c-.073 1.101-.915 1.151-1.056 1.157-.404-.14-.708-.376-.809-.646.517-.084 1.943-.421 2.134-1.752 0-.05-.011-.971-.455-1.864 1.41 1.022 1.96 2.067 1.673 3.156m-4.094-4.526v.011c.511.292 1.32 1.533 1.348 2.589.011.55-.197.966-.612 1.23-1.269.809-2.707-.286-3.28-.814.741-.09 1.23-.376 1.443-.848.427-.915-.331-2.269-.786-2.954l1.887.781m-5.655 5.054l.028-.359c.219-3.645.09-6.447 0-7.739.432.567 1.331 1.365 3.184 2.067.123.157 1.516 2.005 1.044 3.021-.197.421-.713.657-1.528.691l-.359.011.236.264c.084.096 2.111 2.302 3.97 1.117.517-.331.781-.859.764-1.522-.017-.752-.393-1.589-.82-2.173l.865.477c.809.932.825 2.314.825 2.314-.191 1.331-1.988 1.46-1.999 1.466l-.168.011.011.169c.034.708.876 1.168 1.685 1.252.393.039.837 0 1.241-.18.062.253.152.803-.034 1.095-.056.095-.146.157-.258.18-.112-.017-.595-.107-.96-.472-.05-.039-1.129-1.033-2.628-.455l-.489.191.505.129c.932.241 1.707 1.965 1.707 2.74 0 .556.202 1.235.331 1.623-2.258-.629-2.915-2.252-2.92-2.269l-.197-.511-.123.534c-.915 4.021.202 6.486.444 6.952-.185.191-.427.292-.719.309h-.118c-1.887 0-2.561-2.392-2.566-2.409h-.011c0-.91.09-1.797.185-2.667.23-2.241.421-4.178-1.118-5.649 0-.067.011-.135.011-.197m3.049-2.179l-.303.034s.124 0 .303-.034zm3.274-20.902a2.69 2.69 0 0 0 .898.562l.197.079c.825.32 1.954.764 2.314 1.758.241.657.112 1.494-.388 2.488-.337-.764-.949-1.64-2.055-2.561-.534-.444-.814-1.516-.966-2.325zm-7.963 3.173l-.118.073c-.528.314-1.275.309-2.005.253-.629-.039-1.477.23-1.96.41.579-1.219 1.808-2.471 3.645-2.471h.084c.977.022 1.982.46 2.493.719a7.8 7.8 0 0 0-.882.354c-.331-.157-2.027-.848-3.42.32l.213.253c1.05-.87 2.258-.584 2.808-.376l-.859.466zm.152.185v-.034.034zm.343.921c-.101.067-.208.157-.309.258a2.51 2.51 0 0 1 .309-.258zM57.82 9.3l-.505.022c-.157.011-.371.062-.618.124-.944.225-2.331.55-3.004-.449a4.02 4.02 0 0 0 1.949-.595c.803-.511 1.937-.253 1.949-.247l.079-.331c-.056-.017-1.286-.292-2.207.292-.882.556-2.645 1.061-3.886-.393.32-.022.786-.118 1.056-.382.337-.331.786-.674 1.292-.747h.039c.202-.028.416 0 .635.09l.135-.309c-.258-.107-.522-.14-.803-.107-.747.056-1.033-.197-1.129-.343 2.269-1.348 3.92-1.449 4.908-.292l.124-.107h.163c0-.466-.786-1.387-1.258-1.892l.713.045c.107 0 2.679.062 2.976 2.46l.331-.045s0-.051-.011-.067l.067-1.325a1.75 1.75 0 0 0 .371.432c1.892 1.584 2.291 2.988 2.291 3.892 0 1.089-.556 2.151-1.651 3.167-.326-1.904-2.87-2.718-2.887-2.724-.022-.006-.404-.157-1.117-.157m-4.582-2.915c.157.039.359.067.607.079-.253-.011-.449-.039-.607-.079zm-5.234 3.858a7.74 7.74 0 0 0-.674.618l-.208.197c-.017.011-.028.028-.045.039-.258.225-.764.438-1.252.618l.32-1.185.135-.505-.017.056c.494-.067 1.117-.067 1.741.163zM23.519 2.836l2.516 4.268.219.371.219.371 1.398 2.37.112.202.326-1.954.056-.331.056-.331 1.095-6.582 2.392 6.385.129.343.129.343.607 1.623.657-2.201.101-.343.101-.343L35.553.623l1.769 6.733.09.343.09.343.522 1.982.848-1.791.146-.309.146-.309 3.021-6.408.556 6.716.028.354.028.348.168 2.039 1.836-2.735.225-.337.225-.337 2.825-4.206-.556 1.673-2.274 3.381-.225.337-.225.337-2.055 3.061-.365-.056-.129-2.364-.017-.365-.023-.365-.298-5.565-.163-.028-2.359 5.352-.14.326-.14.326-1.011 2.286c-.09 0-.185-.006-.275-.006l-.651-2.589-.09-.348-.09-.348-1.488-5.902-1.584 5.571-.101.348-.101.348-.831 2.937c-.039.006-.079.006-.118.006l-.854-2.342-.129-.348-.123-.348L29.747 3.1l-.169.017-.809 5.262-.051.337-.051.337-.432 2.825s-.051.011-.073.011l-1.718-2.931-.219-.371-.219-.371-2.038-3.482-.46-1.887.011-.011zm.14 6.761l-.343-.056c.118.011.23.034.343.056zm-5.279 1.089a4.52 4.52 0 0 0 1.067 0s.943-.011 2.196.752c-1.527.197-2.667-.354-3.268-.752m3.588.556c-.623-.399-1.179-.623-1.606-.741.281-.073.545-.168.803-.253.561-.18 1.095-.359 1.623-.382 1.241-.028 2.173.629 2.392.797l.281 1.207c-1.174.331-2.319.124-3.493-.629zm.966 1.32l-.399.022a4.38 4.38 0 0 0 .399-.022zm-6.677.618l-.303.073.303-.073zm-2.976-4.903l.05.067-.05-.067zm5.683 1.499l.432-.084-.432.084zm.932-3.965l.505-.168-.505.168zm.494-2.252c1.645.432 2.28 1.219 2.471 1.533-.275.129-.943.382-1.808.337l.208-.14.416-.331-.427.022h-.18c-.618-.045-1.19-.298-1.797-.556l-1.005-.41h-.011l-.96-.275c.584-.241 1.69-.545 3.089-.174m-13.708.421c.174-.477.522-.842 1.028-1.067l.899-.387c1.078-.46 1.511-.646 2.46-1.859.168.241.393.82-.135 1.819h.011C8.716 3.645 7.323 5.638 6.84 6.419c-.191-.517-.483-1.567-.168-2.432zm.286 2.915l.045-.079v-.017c.427-.747 3.392-5.509 8.48-4.745-.101.41-.472 1.505-1.522 1.965-2.241.685-4.296 2.106-4.397 2.173l.191.275s2.05-1.415 4.229-2.1c0 0 .056-.017.079-.028a8.92 8.92 0 0 1 1.426-.314c1.089-.129 1.932.045 2.662.298 1.112.545 1.876.792 2.353.899-.455.208-1.219.466-2.151.466-.241 0-.477 0-.713-.006h-.006-.354c-1.213-.022-2.359-.034-3.089.174l.095.32c.679-.197 1.803-.18 2.988-.163h.326c.247.056 1.718.404 2.595.932.736.438 1.657.595 2.364.607-.629.314-1.707.708-2.999.59-1.106-.112-2.016-.393-2.898-.668-.825-.253-1.595-.489-2.375-.522l-.017.331c.736.034 1.488.264 2.291.511l1.601.449-.023.034c.051.028 1.056.573 2.117.797-.786.264-2.207.629-3.493.359-.899-.191-1.792-.663-2.651-1.112-1-.522-1.943-1.022-2.881-1.101l-.028.337c.331.028.685.118 1.033.253v.011s1.258.708 1.157 1.825c-.567-.225-2.196-.769-3.347-.112-.657.382-1.039 1.078-1.14 2.095 0 .067-.073 1.696 1.864 2.735-1.056.14-3.459.157-4.167-2.46-.826-3.038.326-4.992.331-5.009m-2.544 6.554c-.646.359-.915.966-1.016 1.325-.494-.455-.91-1.309-.826-2.067.067-.595.427-1.022 1.061-1.264 1.825-.713 2.718.68 2.752.741h.011c.163.517.387.943.663 1.28-1.078-.371-1.977-.382-2.639-.011m3.566 4.813c-2.005 1.488-2.92 1.578-3.178 1.567-.359-1.275-.303-2.308.168-3.06.489-.792 1.286-1.05 1.55-1.118.343.247 1.567 1 3.785 1.095-.578.292-1.303.764-2.33 1.516m2.527.185c.146-.651 1.061-1.516 1.438-1.82h.399l.017-.337c-.438-.022-.82 0-1.269.135-2.544.067-3.942-.758-4.324-1.022l-1.662-1.853c.68-.14 1.55.034 2.6.517l.011-.011c.769.534 1.685.68 2.409.68s1.258-.129 1.275-.135l.477-.123-.46-.191c-2.196-.921-2.14-2.566-2.14-2.628.09-.887.416-1.499.972-1.82.607-.348 1.387-.303 2.033-.174-.719.197-1.702.702-1.702 2.027 0 .522.258.977.758 1.325 1.28.887 3.931.921 5.453.354l-.017-.326c-.152-.022-.73-.376-1.162-.685-.629-.612-1.763-.882-2.398-.983.438-.225 1.252-.522 2.381-.455 1.797.095 3.987 1.584 4.01 1.601l.039.023c.034.011.96.326 1.977.371 2.089.107 3.089-.331 3.684-.584l.258-.107.146.618-.017.028c-.219.168-.511.46-.887.983-.753 1.033-1.904 1.707-2.302 1.921-.045-.185-.062-.573-.034-.96a3.45 3.45 0 0 0 .494-.736l-.303-.14c-.118.247-.781 1.483-2.258 1.527-.944.034-1.527.185-1.864.32.387-1.067 1.454-1.713 1.466-1.718l-.011-.011s.017 0 .028-.006l.466-.084-.062-.331-.46.084c-.685.118-1.275.219-1.769.539-.354.236-.657.545-1.044.938-.399.404-.893.915-1.601 1.471-2.027 1.601-4.375 1.78-5.043 1.797m6.222-5.256l.022-.011s-.011 0-.022.011zm9.249.724c.157 0 .343.286.343.696s-.185.702-.343.702c-.056 0-.101-.028-.152-.067-.039-.039-.073-.09-.107-.152a1.13 1.13 0 0 1-.101-.477 1.13 1.13 0 0 1 .101-.477.36.36 0 0 1 .045-.079c.062-.09.129-.14.208-.14m9.62.803c3.173 0 6.048.258 7.856.651.039.011.079.017.112.022l.107.034.062.011.331.073c.23.062.421.135.584.197.022.006.039.011.045.017.275.112.489.23.595.348v.028h.017s.011.022.023.034c.056.09.135.253.174.399h-.404c-1.252-.668-5.02-1.157-9.479-1.157l-5.312.253c-1.786.174-3.409.46-4.184.899h-.438c.017-.157.056-.292.152-.399a.48.48 0 0 1 .112-.095c.674-.461 4.588-1.325 9.648-1.325m-5.947-1.022c0-.315.168-.578.404-.668.05-.022.107-.034.163-.034a.49.49 0 0 1 .18.039c.225.095.387.354.387.663 0 .382-.258.696-.567.696s-.567-.314-.567-.696zm6.452-.55c.023.067.034.135.034.208a.7.7 0 0 1-.696.696.7.7 0 0 1-.696-.696.65.65 0 0 1 .045-.236c.095-.27.354-.466.651-.466s.573.208.663.489m5.116.539c0 .382-.253.696-.562.696s-.573-.315-.573-.696c0-.174.056-.337.14-.461A.54.54 0 0 1 40.63 13c.174 0 .331.101.432.258a.81.81 0 0 1 .129.444zm3.897.219c.112 0 .23.129.292.342 0 .017.011.028.011.045l.028.163c.006.051.006.095.006.152 0 .067-.006.129-.011.185a1.01 1.01 0 0 1-.09.309c-.067.129-.152.202-.241.202-.191 0-.348-.32-.348-.696a1.32 1.32 0 0 1 .017-.213c.045-.281.18-.489.331-.489m-19.633.949c-.354-.123-.64-.253-.809-.331.14-.152.275-.32.404-.489l.438-.545c0 .067.017.135.028.197h-.017l.023.449c-.056.135-.09.303-.09.483 0 .084.006.163.017.236m-6.088.825l-.331.073c.101-.028.213-.05.331-.073zM7.738 23.294c.46-1.763 1.146-2.235 2.566-2.651-.691.494-1.314 1.269-1.348 2.606-.017.59.168 1.039.55 1.32.657.494 1.713.365 2.28.247-.713 1.224-1.696 1.735-2.684 1.365-.949-.354-1.713-1.527-1.365-2.892m-.533 2.426c.163-.197.314-.354.427-.455.298.59.803 1.033 1.353 1.241a2.14 2.14 0 0 0 .753.129c0 .073-.067.55-.438.826-.264.197-.635.247-1.101.152-.421-.09-.719-.286-.887-.584-.281-.483-.152-1.112-.101-1.303m-.118 4.279c-.511-.472-.792-1.381-.736-2.381.034-.483.213-.938.438-1.32 0 .281.051.601.219.887.219.382.595.635 1.112.747.562.124 1.033.05 1.376-.208.236-.174.382-.415.46-.618.292.753.292 1.584-.017 2.229-.197.416-.601.927-1.426 1.045-.578.079-1.056-.045-1.421-.382m1.185 3.925c-.719-.797-.882-2.274-.59-3.235l.157.028c.039.219.168.719.606 1.056.421.326 1 .41 1.718.258.685-.14 1.151-.444 1.398-.898l.084-.18a5.69 5.69 0 0 1 .101 1.645c-.067.157-.348.73-.915.943-.432.157-.943.084-1.516-.236l-.163.298c.432.236.837.354 1.213.354.202 0 .399-.034.584-.107.23-.084.416-.219.567-.359 0 .011 0 .022-.006.028-.247.466-.646.775-1.213.91-.854.213-1.539.039-2.027-.505zm7.632-1.915h0zm.185 2.027l.129 1.499c-.185.932-.91.842-.994.831l-.056.331a.76.76 0 0 0 .135.011 1.21 1.21 0 0 0 .898-.388c-.084 1.185-.483 2.134-1.482 2.42-.545.157-1 .09-1.37-.174.045 0 .079.017.118.017.269 0 .578-.095.915-.382l-.219-.258c-.719.623-1.241.107-1.303.045-.382-.68-.511-1.64-.5-2.392.18.236.444.488.82.634.505.191 1.089.112 1.724-.23.736-.388 1.061-1.151 1.19-1.965m-3.706.966c.028-.18.056-.315.09-.41.534-.988.921-2.084 1.146-2.819.05.337.129.668.236.977.803 2.325.196 3.195.185 3.207-.27.05-.522.039-.758-.051-.567-.213-.848-.786-.904-.904m4.661-18.431l-.017.146c0 .05-.365 3.426-.073 8.407-.107.18-1.819 3.291-1.449 5.61l.067.387h-.011l.056.253.05.253c.185 1.033.421 3.358-.932 4.077-.09.05-.18.09-.264.123.157-.472.298-1.46-.298-3.184-.747-2.162.095-5.217.663-6.851l.028-.079-.314-.107-.028.073c-.438 1.241-1.028 3.296-.977 5.194h-.023s-.646 2.555-1.735 4.189c-.792 1.191-.747 2.538-.629 3.285-1.286-1.477-1.112-3.162-1.05-3.555l.253-.056c.663-.157 1.146-.522 1.426-1.084.163-.303.236-.651.275-1.005.152-1.37-.415-2.892-.466-3.016l-.309.118s.253.663-.045 1.207c-.197.359-.59.601-1.168.724-.618.129-1.101.062-1.438-.191-.303-.23-.421-.567-.466-.764a2.74 2.74 0 0 0 .365-.028c.764-.107 1.359-.545 1.685-1.23.399-.848.337-1.96-.146-2.886.752-.14 1.544-.707 2.168-1.96l.174-.348-.376.112s-1.584.483-2.359-.095c-.292-.225-.427-.562-.416-1.05.051-2.016 1.584-2.623 2.505-2.988l.112-.039.837-.225c2.853-.814 3.049-2.684 3.049-3.128.685-.55 1.168-1.05 1.567-1.443.376-.382.668-.685.994-.893.258-.168.556-.27.893-.348-.438.387-1.005 1.033-1.179 1.892l-.084.46.365-.298s.483-.382 2.027-.432c.696-.017 1.269-.286 1.713-.646 0 .354.028.803.197.972l.084.079.101-.051c.05-.028 1.033-.5 1.921-1.359a9.53 9.53 0 0 0 1.174.477l.045.854h.017c-.095.135-.129.292-.146.449h-8.435l.023-.006zm-.657 21.581l-.326.809.326-.809zm-1.887 10.636c-.573-.651-1.685-2.623.415-6.767l.421-.814c.792-1.533 1.617-3.117 1.988-5.262.241-1.404.343-2.768.365-3.953.309 3.437-.197 6.941-1.41 9.687-.573 1.275-1.438 3.605-.876 4.824a1.22 1.22 0 0 0 .803.691c.298.09.584.062.842-.084.427-.236.691-.741.814-1.056a2.23 2.23 0 0 1 .438 1.909c-.163.702-.64 1.325-1.168 1.522-.938.331-1.971.062-2.645-.696m5.166 4.24c-1.219.494-2.156.511-2.802.034-1.045-.764-1.056-2.6-1.028-3.151a2.85 2.85 0 0 0 .927.017c.202.208 1.14 1.123 2.168.977.528-.084.988-.427 1.359-1.039.067.584.096 1.567-.371 2.229-.174.236-.247.567-.253.932zm10.176 9.496l.062.017s1.123.096 1.921 1.061c.685.82.944 2.016.781 3.521l-.169.719c-.517-.685-1.876-2.263-3.414-2.263h-.314l1.309 2.027c.039.073.781 1.488 1.724 1.96-1.118.219-3.538.27-5.734-2.623.023-.118.062-.376.096-.719a8.82 8.82 0 0 0-.146-2.965l-.056-.253c0-.017-.011-.039-.017-.056-.241-1.011-.702-2.072-1.522-2.971l.219.034 5.251 2.51h.011zm-3.24-4.656c2.302.281 3.325.781 4.032 1.247-.607.348-2.656 1.252-6.761.421l-.477-.096.034.045-.067-.011.286.264.646.753a7.27 7.27 0 0 1 1.269 2.549l.034.118c.006.045.017.084.028.129.258 1.224.208 2.359.135 3.038a11.17 11.17 0 0 1-.225 1.112c-.292-.724-.943-2.151-1.893-3.122-1.202-1.236-.775-3.914-.769-3.942l-.331-.056a7.6 7.6 0 0 0-.073 1.561c-1.241.427-2.168.393-2.746-.084-.792-.657-.747-2.027-.696-2.544.899.315 1.55.264 1.937-.135.59-.601.348-1.842.152-2.314l-.067-.163c-.988-2.286-1.28-3.751-.854-4.347.466-.663.505-1.578.455-2.218.505.511 1.499 1.668 1.803 3.156.573 2.819 1.966 4.38 4.144 4.65m-.573-3.51c.163.825.702 1.499 1.011 1.825-2.426.584-3.639-1.19-3.695-1.264l-.011.011c-.225-.522-.41-1.117-.545-1.786-.41-2.016-1.966-3.414-2.201-3.611l-.039-.23-.118-.472-.202.438c-.359.781-.814 1.219-1.342 1.297-.713.101-1.41-.444-1.73-.736.039-.011.073-.028.112-.039.646-.236 1.196-.944 1.387-1.758.202-.893-.056-1.758-.713-2.432l-.202-.208-.079.281s-.241.848-.752 1.134c-.18.107-.376.118-.584.056-.275-.084-.472-.253-.595-.517-.365-.797-.045-2.454.876-4.543.977-2.201 1.505-4.886 1.527-7.626.679 3.347 1.775 7.171 3.499 11.046 0 .006.011.017.011.034.309.685.635 1.376.983 2.061.056.118.112.225.168.337.315.601.646 1.207.994 1.803l.236.41a43.36 43.36 0 0 0 1.202 1.915c.039.056.067.118.101.169h-.022s.511 1.337.719 2.409m11.26 12.809c-.202-.859-.258-1.645-.18-2.336.051-.163.461-1.247 2.235-1.466.303-.039.59-.067.865-.096 1.196-.112 2.145-.197 3.083-.938-1.033 1.78-2.319 2.443-2.623 2.578-1.898.303-2.959 1.606-3.381 2.257zm.646 1.752c.573-.236 1.146-.814 1.539-1.589.505-1.005 1.196-1.921 1.342-2.117.275-.118 1.168-.573 2.067-1.673l-.286.691s-.674 1.696-1.707 2.398l.197.275c1.112-.764 1.797-2.482 1.825-2.55l.253-.623c-.073.786 0 1.662.416 2.482-2.067 2.954-4.459 2.948-5.644 2.701m11.495-13.354c-.028.129-.752 3.094.023 4.201a1.16 1.16 0 0 0 .82.505c.466.062.927-.168 1.213-.343-.028.736-.191 2.566-1.089 3.493-.359.365-.809.556-1.337.556-.786 0-1.387-.219-1.791-.651-.635-.668-.578-1.629-.578-1.64a4.66 4.66 0 0 0 .023-.292l-.337-.017s-.112 2.398-1.235 3.532c-.668.685-.921 1.213-1.005 1.567-1.499-2.112.017-4.981.034-5.015l-.275-.185c-.045.05-.084.096-.129.14 0 0-.006.017-.006.023-1.101 1.269-2.095 1.365-3.56 1.499l-.887.09c-.988.118-1.606.494-1.977.865a3.29 3.29 0 0 1 .27-.567c.601-.994 1.505-1.269 1.769-1.331 1.174-.275 2.359-.915 2.488-.988h.023l-.124-.309c-1.044.41-1.876.163-2.184.034.668-1.713 2.095-1.982 3.465-2.241a18.92 18.92 0 0 0 .651-.129c4.302-.387 5.009-3.875 5.11-4.571.27-1.887.814-2.959.82-2.982.067-.135.225-.382.371-.477.359 1.718-.539 5.194-.556 5.234m4.487-2.521c-.399.842-1.078.595-1.157.567l-.067.157-.062.152s.191.079.449.079a1.14 1.14 0 0 0 .607-.174c-.208.494-.511.792-.893.854-.438.067-.96-.191-1.348-.674-.264-.337-.489-.809-.573-1.365.163.107.359.208.629.208.225 0 .489-.067.781-.253l-.18-.286c-.752.472-1.185-.017-1.275-.135 0-.348.045-.724.169-1.112.32.348.983.943 1.685.803.511-.107.91-.579 1.202-1.41.146.882.185 1.775.034 2.583m2.83-7.02a2.24 2.24 0 0 1-1.432 1.769c-.562.197-1.123.107-1.505-.236-.466-.421-.623-1.174-.46-2.151.264.281.741.663 1.297.663.455 0 .87-.258 1.23-.758.59-.825.404-2.241.045-3.487.545 1.252 1.05 2.864.82 4.201m-3.572-1.387l-.084.365c-.107.438-.152.848-.14 1.213l-.146-.393c-.359-1.005-.427-3.027-.438-4.313.202.567.522 1.235.971 1.752.691.786.882 1.938.932 2.398-.505-.197-.882-.713-.887-.719l-.213-.303h.006zm1.533-5.094c.354.741 1.887 4.189.904 5.571-.298.41-.618.618-.955.618h-.022c-.039-.382-.208-1.758-1.033-2.696-.882-1.005-1.207-2.707-1.213-2.724l-.331.023c0 .168-.135 4.004.438 5.593l.208.556c.32.842.775 2.038 1.056 3.313h-.017c-.258 1.044-.64 1.645-1.118 1.741-.708.152-1.488-.837-1.539-.898-.286-.505-.674-.629-.865-.657a.51.51 0 0 0-.275 0h-.056v.022c-.337.135-.556.601-.584.663-.028.039-.573 1.129-.859 3.083-.073.562-.59 3.083-3.341 3.987 1.331-1.241 1.342-2.763 1.342-2.83v-.444l-.292.331c-.663.747-1.398.955-1.741 1.005.382-2.538 1.864-3.69 2.954-4.532.219-.169.416-.32.59-.472 1.174-1.017 1.331-2.976 1.337-3.055l.017-.208-.208.028c-.354.05-.708.264-1.005.483 2.42-4.577 3.869-9.215 4.734-13.242a12.23 12.23 0 0 0 1.87 4.74M45.56 16.903h8.176c.067.713.32 3.875.05 8.306l-3.465 7.896-3.689-8.396-3.69 8.396-3.69-8.396-3.69 8.396-3.689-8.396-3.69 8.396-3.684-8.396-3.689 8.396-3.504-7.98c-.253-4.386-.006-7.508.062-8.216h8.227.129 19.846l-.011-.006zm-.079-3.223s-.023-.034-.039-.05c-.079-.096-.202-.197-.376-.292-.505-.281-1.421-.55-2.707-.758l-1.179-.157a33.36 33.36 0 0 0-1.741-.157 52.9 52.9 0 0 0-2.864-.118c-.298 0-.601-.006-.915-.006h-.09-.337c-1.544.011-3.016.079-4.313.191-.056 0-.107.011-.163.017-.09.006-.185.017-.275.028-.831.084-1.589.185-2.241.309-.416.079-.792.163-1.123.253l-.23.067c-.416.129-.747.264-.96.416-.095.067-.174.135-.225.202-.011.017-.022.028-.034.045-.017-.067-.023-.135-.023-.208a.96.96 0 0 1 .056-.337c.028-.073.056-.123.09-.157.011-.011.017-.022.028-.028l.107-.107s.022-.017.034-.028c.062-.051.135-.095.225-.146.118-.062.264-.129.427-.185.399-.146.927-.281 1.556-.404.045-.011.09-.017.135-.022.607-.112 1.303-.208 2.067-.286a3.84 3.84 0 0 1 .253-.022c.084-.006.168-.017.253-.023.079-.006.157-.017.242-.022.517-.045 1.067-.079 1.628-.107.062 0 .124-.006.185-.011l2.038-.056h.242.354.129.247c.623 0 1.241.017 1.831.039.112 0 .225.011.343.017l1.702.101c.079.006.157.011.236.022a7.77 7.77 0 0 0 .348.028c.084.006.168.017.253.023.562.056 1.089.123 1.572.196a.33.33 0 0 1 .073.011c.152.022.292.045.432.073l.533.101c.045.011.09.017.135.028.724.157 1.275.337 1.612.534a1.56 1.56 0 0 1 .225.163c.011.011.028.022.039.034a1.59 1.59 0 0 0 .101.174c.006.017.017.034.022.05.017.034.028.067.045.101.028.073.05.146.056.213a1.48 1.48 0 0 1-.022.275m.46 1.308s-.039.028-.062.039c-.034.022-.067.045-.101.062-.023.011-.045.028-.067.039-.05.028-.096.051-.146.073l.023-.337a1.44 1.44 0 0 0 .022-.275v-.09-.09c.118 0 .242.006.365.028a1.52 1.52 0 0 1 .14.129c.045.045.096.09.14.14a1.96 1.96 0 0 1-.315.27m6.458-.983c.084.034.174.079.264.124-.09-.045-.18-.084-.264-.124zm4.498.657l-.146.303c.039.017.483.23 1.095.376l-.011.017c.567.163 1.64 1.067 1.96 2.078.191.595.477 1.022.68 1.269-2.785.202-3.69-.915-4.919-2.437-.219-.264-.444-.55-.696-.837-1.555-1.803-3.257-2.05-3.645-2.078-.208-.073-.432-.135-.685-.18l-.056.331a4.58 4.58 0 0 1 .651.168s0 .011.017.011c1.207.427 1.696 1.314 1.853 1.668-.713.191-2.027.062-2.471-.489-.539-.679-1.483-.999-1.55-1.022-.472-.337-1.123-.618-2.01-.708l-.034.337c2.19.225 2.78 1.606 2.909 2.072-1.095.241-2.488-.152-3.229-.932-.32-.337-.651-.623-.96-.865l-.011-.011a1.04 1.04 0 0 0 .045-.354 1.19 1.19 0 0 0-.174-.472l.213-.803c.579-.197 1.247-.46 1.584-.758.079-.067.168-.157.27-.253.696-.685 1.853-1.82 4.133-1.37-.292.562-1.314 2.19-3.094 1.893-.135-.045-.196-.084-.196-.084l-.09.14-.095.14s.079.051.219.101v.011s.045.011.067.011c.472.157 1.539.337 3.414-.247 2.426-.747 3.751-.915 4.998.135a3.22 3.22 0 0 1-3.004.854l-.067-.017a3.87 3.87 0 0 1-.943-.343l-.152.303c.371.18.724.303 1.05.376.466.14 3.414.96 4.661-.472.966-1.106.657-2.201.399-2.746.421.14 3.212 1.213 2.544 3.493-.242.82-.685 1.382-1.314 1.662-1.365.607-3.195-.264-3.207-.27m8.098 2.156c.354.775 1.14 1.533 1.55 1.893-1.876.393-3.353-.157-4.515-1.679-.719-.943-1.634-1.415-2.269-1.64a2.99 2.99 0 0 0 .477-.163c.213-.096.404-.219.573-.359.388.073.708.09.994.062v.022c1.162-.264 2.69.809 3.184 1.859m-1.836-2.847c-.539.382-1.044.753-2.033.612.27-.326.483-.73.623-1.224a3.08 3.08 0 0 0 .123-.775c.337-.298.629-.59.882-.893.067-.062 1.606-1.415 3.757-.112.202.129.371.264.511.41-1.32-.213-3.302 1.567-3.398 1.651-.168.101-.32.219-.472.326m3.633.977c-.208-.73-.758-1.679-1.842-1.679-.056 0-.112 0-.174.011-.051 0-.101.011-.152.017.382-.275.82-.545 1.252-.73.854.253.747.943.73 1.022l.163.034.169.039s.157-.831-.59-1.269c.399-.107.758-.101 1.005.112.045.112.084.236.095.359.124.814-.365 1.662-.663 2.089"/><path d="M55.792 31.257c-.011.129-.483 3.195 1.039 3.65l.101-.32c-1.033-.303-.932-2.465-.797-3.28.286-2.623-.343-4.116-.371-4.189-.376-.741-.157-1.567-.152-1.578l-.326-.09c-.017.039-.264.96.169 1.808.011.011.618 1.483.337 3.998z"/></g></g><defs><clipPath id="B"><path transform="translate(87 40)" d="M0 0h178v14H0z" class="B"/></clipPath><clipPath id="C"><path d="M0 0h70v70H0z" class="B"/></clipPath><path id="D" d="M128.96 20.794c0 1.145-.335 2.036-1 2.688-.647.633-1.53.946-2.652.946s-1.892-.299-2.494-.896-.905-1.426-.905-2.485.571-2.521 1.706-3.095c.516-.262 1.154-.389 1.91-.389 1.082 0 1.923.285 2.521.851.611.575.914 1.371.914 2.38zm-1.43.24c0-.896-.181-1.611-.543-2.14s-.887-.792-1.584-.792-1.53.412-1.828 1.24c-.154.425-.231.901-.231 1.425 0 .955.176 1.711.529 2.267.367.575.91.86 1.639.86s1.475-.434 1.778-1.303c.163-.462.24-.978.24-1.557z"/></defs></svg>