<svg width="210" height="102" viewBox="0 0 210 102" fill="none" xmlns="http://www.w3.org/2000/svg">
<g clip-path="url(#clip0_6143_75952)">
<path d="M73.9532 0.925781C58.1237 0.925781 45.2441 13.8069 45.2441 29.6383C45.2441 45.4696 58.1237 58.3508 73.9532 58.3508C89.7827 58.3508 102.662 45.4696 102.662 29.6383C102.662 13.8069 89.7827 0.925781 73.9532 0.925781ZM73.9532 3.30464C88.4947 3.30464 100.284 15.095 100.284 29.6383C100.284 44.1815 88.4947 55.9719 73.9532 55.9719C59.4117 55.9719 47.6227 44.1815 47.6227 29.6383C47.6227 15.095 59.4117 3.30464 73.9532 3.30464Z" fill="#4A4A4C"/>
<path d="M161.867 21.2523C162.594 20.0058 163.487 18.8735 164.495 17.8658L155.863 8.40234C153.693 10.4799 151.844 12.8796 150.39 15.5389L161.867 21.2523Z" fill="#3AAD49"/>
<path d="M183.025 14.575C184.334 15.1776 185.549 15.9359 186.65 16.8396L195.303 7.38653C193.028 5.4232 190.442 3.80267 187.637 2.59766L183.036 14.5647L183.025 14.575Z" fill="#D19F2A"/>
<path d="M202.843 17.4205L191.376 23.134C191.926 24.4117 192.311 25.7725 192.529 27.1853L205.284 25.9803C204.91 22.9574 204.069 20.0799 202.843 17.4102" fill="#BF2032"/>
<path d="M190.545 21.4816L202.012 15.7681C200.589 13.1296 198.781 10.7299 196.652 8.65234L188 18.1054C188.987 19.1131 189.838 20.2558 190.545 21.4919" fill="#269A48"/>
<path d="M159.582 29.638C159.582 29.3783 159.582 29.1186 159.603 28.8692L146.838 27.7266C146.796 28.3602 146.775 29.0043 146.775 29.638C146.775 32.0895 147.077 34.4684 147.648 36.7434L159.977 33.201C159.728 32.048 159.593 30.8637 159.593 29.638" fill="#47773E"/>
<path d="M188.945 40.1172C188.041 41.2183 186.992 42.2052 185.829 43.0466L192.57 53.954C195.073 52.2608 197.296 50.1936 199.166 47.8251L188.945 40.1172Z" fill="#FDB51F"/>
<path d="M192.695 29.637C192.695 30.842 192.56 32.0262 192.321 33.1585L204.65 36.7008C205.211 34.4362 205.513 32.0678 205.513 29.637C205.513 29.0345 205.492 28.432 205.461 27.8398L192.695 29.0449C192.695 29.2422 192.706 29.4396 192.706 29.637" fill="#EF3F29"/>
<path d="M163.549 40.3672L153.35 48.1167C155.25 50.454 157.494 52.49 160.008 54.1521L166.749 43.2551C165.564 42.4344 164.484 41.4579 163.549 40.3672Z" fill="#F99C25"/>
<path d="M159.789 27.0185C160.018 25.5745 160.433 24.2033 161.015 22.9048L149.548 17.1914C148.281 19.8923 147.408 22.8113 147.014 25.8654L159.789 27.0081V27.0185Z" fill="#007BBB"/>
<path d="M191.003 54.9517L184.272 44.0547C183.046 44.7403 181.738 45.2909 180.346 45.6544L182.724 58.2655C185.674 57.5903 188.468 56.458 191.003 54.9621" fill="#8D1837"/>
<path d="M191.822 34.9362C191.376 36.2451 190.773 37.4812 190.025 38.6239L200.256 46.3422C201.918 43.953 203.237 41.304 204.131 38.4681L191.812 34.9258L191.822 34.9362Z" fill="#00ACD7"/>
<path d="M178.528 46.0195C177.749 46.1338 176.949 46.1961 176.139 46.1961C175.485 46.1961 174.841 46.1546 174.217 46.0819L171.839 58.6929C173.241 58.9007 174.674 59.0046 176.139 59.0046C177.759 59.0046 179.349 58.8695 180.896 58.6202L178.528 46.0299V46.0195Z" fill="#F36B24"/>
<path d="M177.198 13.1105C178.621 13.2039 179.992 13.474 181.29 13.8999L185.892 1.93295C183.15 0.96686 180.231 0.395518 177.188 0.28125V13.1001L177.198 13.1105Z" fill="#E81D2C"/>
<path d="M172.389 45.7601C170.956 45.4277 169.585 44.9083 168.328 44.2227L161.587 55.1301C164.184 56.6156 167.019 57.7167 170.021 58.3504L172.389 45.7601Z" fill="#DF1783"/>
<path d="M171.164 13.8363C172.493 13.4208 173.895 13.1611 175.35 13.0884V0.269531C172.265 0.352635 169.305 0.913589 166.531 1.87967L171.164 13.8363Z" fill="#193767"/>
<path d="M162.428 38.8928C161.618 37.6878 160.953 36.3789 160.475 34.9766L148.156 38.5085C149.091 41.4483 150.473 44.1907 152.228 46.6423L162.428 38.8928Z" fill="#CA8B2A"/>
<path d="M165.887 16.6434C166.968 15.7812 168.162 15.0644 169.44 14.4931L164.807 2.54688C162.044 3.71033 159.51 5.26854 157.256 7.16954L165.898 16.6434H165.887Z" fill="#005588"/>
<path d="M4.49707 49.2808L25.3953 26.9154C29.4773 22.5939 30.4121 19.7476 30.4121 16.8182C30.4121 13.4213 28.0958 9.87901 23.5464 9.87901C18.997 9.87901 15.9952 13.1201 15.9952 20.2151H5.34879V18.9789C5.34879 5.01742 15.6836 0 23.5464 0C34.4214 0 41.983 7.09502 41.983 16.5066C41.983 23.7574 38.8254 28.5359 29.2592 38.176L19.3917 48.1277H42.6062V57.9963H4.49707V49.2808Z" fill="#171B1E"/>
<path d="M114.597 23.447L126.167 10.7944H105.425V0.925781H139.286V10.3373L126.479 23.2912C135.962 23.2912 141.903 30.3862 141.903 39.725C141.903 51.0584 133.656 58.9325 122.085 58.9325C114.908 58.9325 104.272 55.6187 103.348 42.1974L114.451 41.5014C114.763 48.2121 120.309 49.0639 122.085 49.0639C126.863 49.0639 130.333 44.7425 130.333 40.1198C130.333 34.8011 126.095 31.3315 121.691 31.3315C118.762 31.3315 116.061 32.495 114.597 33.1806V23.4574V23.447Z" fill="#171B1E"/>
<path d="M102.133 28.7321V30.5293C102.133 30.5293 102.112 30.5916 102.112 30.6227C102.07 32.0355 101.915 33.4275 101.655 34.8091C101.104 37.7697 100.107 40.5641 98.6531 43.2026C96.877 46.4125 94.5607 49.1861 91.7148 51.5027C90.084 52.8323 88.3183 53.9646 86.4383 54.8892C84.2051 55.9903 81.8681 56.7798 79.4168 57.2576C78.1912 57.4966 76.9551 57.6524 75.7087 57.7251C75.4283 57.7459 75.1582 57.7666 74.8882 57.777H73.0809C72.8108 57.7563 72.5304 57.7355 72.2603 57.7251C71.1178 57.6628 69.996 57.5277 68.8742 57.32C67.2227 57.0187 65.6128 56.572 64.0547 55.9799C63.6289 55.8241 63.2134 55.6475 62.7668 55.4605C65.592 54.3594 68.386 53.2582 71.1801 52.1675C71.1801 52.1571 71.1801 52.1467 71.1801 52.1363C66.4125 50.2665 61.645 48.407 56.8359 46.5268C61.645 44.6466 66.4125 42.7767 71.1801 40.9173C71.1801 40.9069 71.1801 40.8965 71.1801 40.8757C66.4125 39.0059 61.645 37.1464 56.8463 35.2662C61.6554 33.386 66.4229 31.5161 71.1905 29.6567C71.1905 29.6463 71.1905 29.6359 71.1905 29.6255C66.4229 27.7556 61.6554 25.8962 56.8463 24.016C61.6554 22.1357 66.4229 20.2659 71.1905 18.4064C71.1905 18.396 71.1905 18.3857 71.1905 18.3649C66.4229 16.495 61.6554 14.6356 56.8567 12.7553C61.6658 10.8751 66.4333 9.00527 71.2009 7.14581C71.2009 7.13542 71.2009 7.12504 71.2009 7.11465C68.4068 6.02391 65.6232 4.93316 62.8083 3.83203C62.8603 3.81126 62.8707 3.80087 62.8914 3.79048C65.5608 2.6478 68.3445 1.92064 71.2424 1.64016C72.7277 1.49473 74.2234 1.46356 75.7191 1.55706C77.194 1.64016 78.6586 1.84792 80.1023 2.15956C82.699 2.7309 85.1711 3.65544 87.4977 4.93316C90.8734 6.78223 93.7506 9.22342 96.1395 12.2359C97.6768 14.1785 98.9232 16.2873 99.8995 18.5623C100.751 20.536 101.354 22.5824 101.738 24.7016C101.925 25.7715 102.06 26.8415 102.112 27.9219C102.122 28.1919 102.143 28.4724 102.164 28.7425" fill="#E9322A"/>
<path d="M62.777 3.81108C65.5918 4.91221 68.3754 6.00296 71.1695 7.0937C71.1695 7.10409 71.1695 7.11447 71.1695 7.12486C66.4019 8.99471 61.6344 10.8542 56.8253 12.7344C61.624 14.6146 66.3916 16.4845 71.1591 18.3439C71.1591 18.3543 71.1591 18.3647 71.1591 18.3751C66.3916 20.2449 61.624 22.1044 56.8149 23.9846C61.624 25.8649 66.3916 27.7347 71.1591 29.5942C71.1591 29.6045 71.1591 29.6149 71.1591 29.6253C66.3916 31.4952 61.624 33.3546 56.8149 35.2348C61.6136 37.1151 66.3812 38.9849 71.1487 40.8444C71.1487 40.8548 71.1487 40.8652 71.1487 40.8755C66.3812 42.7454 61.6136 44.6048 56.8046 46.4851C61.6136 48.3653 66.3812 50.2352 71.1487 52.0946C71.1487 52.105 71.1487 52.1154 71.1487 52.1258C68.3547 53.2165 65.571 54.3073 62.7354 55.4188L61.4786 54.8474C59.5986 53.9229 57.8328 52.7906 56.2021 51.4609C53.3561 49.1444 51.0399 46.3812 49.2638 43.1609C47.8096 40.5327 46.8125 37.728 46.262 34.7674C46.0023 33.3858 45.8465 31.9834 45.8049 30.581C45.8049 30.5499 45.7946 30.5187 45.7842 30.4875V28.68C45.805 28.4099 45.8257 28.1294 45.8361 27.8594C45.8984 26.779 46.0231 25.6986 46.21 24.6391C46.584 22.5199 47.1968 20.4735 48.0381 18.4997C49.0145 16.2248 50.2713 14.116 51.7981 12.1734C54.1871 9.15053 57.0642 6.71973 60.4399 4.87066L62.7458 3.76953L62.777 3.81108Z" fill="white"/>
<path d="M125.763 71.5117H127.653V73.6205H125.763V71.5117ZM125.919 76.955H124.672C123.509 76.955 123.26 78.2432 123.26 79.0846C123.26 80.0507 123.8 81.0272 124.672 81.0272H125.919V76.9654V76.955ZM123.041 71.5117H124.911V73.6205H123.041V71.5117ZM124.547 82.9697C123.083 82.9697 121.141 81.9621 121.141 79.0846C121.141 76.4045 122.387 75.106 124.547 75.106H128.027V81.0272H130.51V82.9697H124.558H124.547Z" fill="#171B1E"/>
<path d="M131.828 84.2677H133.698V86.3765H131.828V84.2677ZM135.37 82.9692C134.321 82.9692 133.48 82.6679 132.825 82.1382C132.212 82.6991 131.34 82.9692 130.332 82.9692H129.72V81.0266H130.332C131.205 81.0266 131.704 80.5592 131.704 79.8112V75.1055H133.833V79.8632C133.833 80.5696 134.342 81.0266 135.38 81.0266H135.993V82.9692H135.38H135.37ZM129.117 84.2677H130.987V86.3765H129.117V84.2677Z" fill="#171B1E"/>
<path d="M141.353 77.7542C140.491 77.7542 139.92 78.3463 139.92 80.133C139.92 81.9198 140.491 82.4599 141.353 82.4599C142.216 82.4599 142.787 81.8574 142.787 80.185C142.787 78.3463 142.216 77.7542 141.353 77.7542ZM144.469 82.5119C143.898 83.7065 142.828 84.4025 141.353 84.4025C139.92 84.3817 138.819 83.7273 138.248 82.595C137.728 82.8443 137.084 82.9689 136.389 82.9689H135.786V81.0264C136.607 80.9744 137.604 80.9952 137.687 79.9772C137.822 77.536 139.089 75.957 141.353 75.957C143.618 75.957 144.947 77.7645 144.947 79.9772C144.947 80.6836 145.456 81.0264 146.505 81.0264H147.108V82.9689C146.235 82.9689 145.269 82.917 144.48 82.5119" fill="#171B1E"/>
<path d="M148.842 71.5117H150.981V73.6205H148.842V71.5117ZM152.55 82.9697C151.501 82.9697 150.659 82.6685 150.005 82.1387C149.403 82.6996 148.52 82.9697 147.512 82.9697H146.899V81.0272H147.512C148.385 81.0272 148.883 80.5597 148.883 79.8118V75.0852H151.013V79.8533C151.013 80.5597 151.522 81.0168 152.56 81.0168H153.173V82.9593H152.56L152.55 82.9697Z" fill="#171B1E"/>
<path d="M155.323 71.5117H157.048V73.6205H155.323V71.5117ZM158.606 82.9697C157.557 82.9697 156.715 82.6685 156.061 82.1387C155.448 82.6996 154.576 82.9697 153.568 82.9697H152.955V81.0272H153.568C154.441 81.0272 154.939 80.5597 154.939 79.8118V75.0852H157.068V79.8637C157.068 80.5701 157.577 81.0272 158.616 81.0272H159.229V82.9697H158.616H158.606ZM152.789 71.5117H154.513V73.6205H152.789V71.5117Z" fill="#171B1E"/>
<path d="M159.011 82.9699V81.0274C160.465 81.0274 161.14 80.4872 161.14 79.4899V72.0625H163.249V79.6042C163.249 81.6818 161.628 82.9595 159.011 82.9595" fill="#171B1E"/>
<path d="M166.987 72.0312H164.879V82.9595H166.987V72.0312Z" fill="#171B1E"/>
<path d="M178.683 71.5117H180.812V73.6205H178.683V71.5117ZM179.743 76.7265C178.88 76.7265 178.33 77.2148 178.33 79.0015C178.33 80.674 178.839 81.0272 179.743 81.0272C180.646 81.0272 181.155 80.6532 181.155 79.0223C181.155 77.2147 180.594 76.7265 179.743 76.7265ZM179.743 82.9697H175.204C172.887 82.9697 171.506 81.6504 171.506 79.4897V76.0825H173.614V79.4378C173.614 80.4974 173.988 81.0272 175.079 81.0272H176.492C176.273 80.4662 176.159 79.791 176.159 79.0015C176.159 76.4668 177.489 74.919 179.732 74.919C181.976 74.919 183.274 76.4564 183.274 79.0534C183.274 81.6504 182.007 82.9697 179.732 82.9697" fill="#171B1E"/>
<path d="M187.034 72.0312H184.926V82.9595H187.034V72.0312Z" fill="#171B1E"/>
<path d="M188.645 82.9689V81.0263H192.218V78.7513C192.218 77.2347 191.844 76.8503 190.815 76.8503L191.189 74.9805C193.35 74.9805 194.295 76.0297 194.295 78.0657V81.0367H196.455V82.9792H188.645V82.9689Z" fill="#171B1E"/>
<path d="M204.017 78.2114C204.017 77.0999 203.051 76.6428 202.553 76.4039V81.0266H204.017V78.2114ZM200.621 76.4143C200.112 76.6324 199.187 77.0895 199.187 78.201V81.0162H200.621V76.4143ZM195.988 82.9691V81.0266H197.172V78.2114C197.172 76.2688 198.585 74.8561 200.631 74.4821V73.1836H202.553V74.4821C204.589 74.8145 206.022 76.2688 206.022 78.2114V82.9691H195.988Z" fill="#171B1E"/>
<path d="M207.642 72.0308H209.75V82.959H207.642V72.0308ZM206.395 71.1062V70.2752H207.133V70.109C207.133 69.7039 207.268 68.5508 208.514 68.5508C209.168 68.5508 209.574 68.8417 209.812 69.3922C209.677 69.413 208.919 69.548 208.919 69.548C208.805 69.3922 208.68 69.3403 208.545 69.3403C208.057 69.3403 208.057 69.8493 208.057 70.0778V70.2648H209.999V71.0959H206.385L206.395 71.1062Z" fill="#171B1E"/>
<path d="M2.53438 71.6055H4.66367V73.7142H2.53438V71.6055ZM9.16114 83.0635C8.42368 83.0635 7.7797 82.8765 7.24998 82.5544V82.6168C7.24998 84.6528 5.8166 86.0448 3.84311 86.076C3.63537 86.076 3.54189 86.0968 3.38609 86.076C1.43338 86.0448 0 84.6424 0 82.596V75.1686H2.10852V82.5441C2.10852 83.5517 2.57592 84.0919 3.64576 84.0919C4.7156 84.0919 5.13107 83.5517 5.13107 82.5441V75.1686H7.26036V79.6873V79.6562C7.26036 80.5807 8.04976 81.1105 9.17153 81.1105H9.42081V83.0531H9.17153L9.16114 83.0635Z" fill="#171B1E"/>
<path d="M10.8955 84.3627H12.7651V86.4715H10.8955V84.3627ZM9.16093 83.0642H8.99474V81.1216H9.16093C10.5735 81.0905 11.0305 80.5815 11.0305 79.605V75.1797H13.1391V79.6985C13.1391 81.7553 11.7369 83.0434 9.16093 83.0538M8.18457 84.3627H10.075V86.4715H8.18457V84.3627Z" fill="#171B1E"/>
<path d="M19.5069 83.0642C19.216 83.0642 18.1046 83.0019 17.5853 82.5552C17.5853 84.3627 16.3908 86.1702 13.8564 86.0767V84.1861C15.5807 84.1861 15.5079 82.7837 15.5079 81.641V75.1797H17.5853C17.5853 75.1797 17.5853 78.0676 17.6165 79.5946C17.6165 80.6542 18.3747 81.1112 19.5069 81.1112H19.7769V83.0538H19.5069V83.0642Z" fill="#171B1E"/>
<path d="M19.4336 83.0645V81.1219H24.7516C24.5854 76.8732 20.4515 77.1433 20.4515 77.1433V75.2734C24.8867 75.2734 26.7563 77.9224 26.8809 81.1219H29.0414V83.0645H19.444H19.4336Z" fill="#171B1E"/>
<path d="M30.6206 84.3627H32.7499V86.4715H30.6206V84.3627ZM34.1729 83.0642C33.1238 83.0642 32.2825 82.7629 31.6281 82.2332C31.0257 82.7941 30.1428 83.0642 29.1353 83.0642H28.5225V81.1216H29.1353C30.0078 81.1216 30.5063 80.6542 30.5063 79.9062V75.1797H32.6356V79.9478C32.6356 80.6542 33.1446 81.1112 34.1833 81.1112H34.7961V83.0538H34.1833L34.1729 83.0642Z" fill="#171B1E"/>
<path d="M34.2764 83.0637V81.1211C35.7305 81.1211 36.4057 80.5809 36.4057 79.5837V72.1562H38.5142V79.698C38.5142 81.7756 36.8938 83.0533 34.2764 83.0533" fill="#171B1E"/>
<path d="M42.253 72.125H40.1445V83.0532H42.253V72.125Z" fill="#171B1E"/>
<path d="M51.3936 71.6055H53.284V73.7142H51.3936V71.6055ZM51.5494 77.0488H50.303C49.1397 77.0488 48.8904 78.3369 48.8904 79.1783C48.8904 80.1444 49.4305 81.1209 50.303 81.1209H51.5494V77.0592V77.0488ZM48.6827 71.6055H50.5523V73.7142H48.6827V71.6055ZM50.1784 83.0635C48.7138 83.0635 46.7715 82.0558 46.7715 79.1783C46.7715 76.4982 48.0179 75.1997 50.1784 75.1997H53.6579V81.1209H56.1404V83.0635H50.1887H50.1784Z" fill="#171B1E"/>
<path d="M61.0122 76.4274C60.1709 76.4274 59.5996 77.0403 59.5996 78.8893C59.5996 80.7384 60.1605 81.2682 61.0122 81.2682C61.8639 81.2682 62.4456 80.6449 62.4456 78.9101C62.4456 77.0403 61.8743 76.4274 61.0122 76.4274ZM61.0122 83.0653C59.9631 83.0653 59.0387 82.7121 58.4986 81.8188C58.0104 82.7433 56.9302 83.0653 55.6318 83.0653V81.1227C57.4184 81.1227 57.3664 79.4503 57.4184 78.3388C57.5326 76.1157 58.9037 74.6406 61.0122 74.6406C63.3077 74.6406 64.606 76.3235 64.606 78.8582C64.606 81.3928 63.3284 83.0549 61.0122 83.0549" fill="#171B1E"/>
<path d="M68.3351 72.125H66.2266V83.0532H68.3351V72.125Z" fill="#171B1E"/>
<path d="M69.9551 83.0626V81.12H73.5281V78.8451C73.5281 77.3284 73.1542 76.9441 72.1259 76.9441L72.4998 75.0742C74.6603 75.0742 75.6055 76.1234 75.6055 78.1595V81.1304H77.7659V83.073H69.9551V83.0626Z" fill="#171B1E"/>
<path d="M79.6148 71.6055H81.339V73.7142H79.6148V71.6055ZM82.9074 83.0635C81.8584 83.0635 81.017 82.7622 80.3627 82.2324C79.7498 82.7934 78.8773 83.0635 77.8698 83.0635H77.257V81.1209H77.8698C78.7423 81.1209 79.2409 80.643 79.2409 79.9055V75.179H81.3702V79.9574C81.3702 80.6638 81.8791 81.1209 82.9178 81.1209H83.5306V83.0635H82.9178H82.9074ZM77.0908 71.6055H78.815V73.7142H77.0908V71.6055Z" fill="#171B1E"/>
<path d="M82.9902 83.0642V81.1216H85.6492V75.1797H87.7162V81.1216H90.4479V75.1797H92.5876V81.1216H94.6442V75.1797H96.7319L96.7527 81.1216H98.7054V83.0642H82.9902Z" fill="#171B1E"/>
<path d="M103.806 77.8479C102.943 77.8479 102.372 78.44 102.372 80.2268C102.372 82.0135 102.943 82.5537 103.806 82.5537C104.668 82.5537 105.239 81.9512 105.239 80.2787C105.239 78.44 104.668 77.8479 103.806 77.8479ZM106.922 82.6056C106.35 83.8002 105.281 84.4962 103.806 84.4962C102.372 84.4755 101.271 83.821 100.7 82.6887C100.181 82.938 99.5366 83.0627 98.8407 83.0627H98.2383V81.1201C99.0588 81.0682 100.056 81.089 100.139 80.0709C100.274 77.6298 101.541 76.0508 103.806 76.0508C106.07 76.0508 107.399 77.8583 107.399 80.0709C107.399 80.7773 107.908 81.1201 108.957 81.1201H109.56V83.0627C108.687 83.0627 107.721 83.0108 106.932 82.6056" fill="#171B1E"/>
<path d="M109.051 83.0637V81.1211C110.505 81.1211 111.18 80.5809 111.18 79.5837V72.1562H113.289V79.698C113.289 81.7756 111.668 83.0533 109.051 83.0533" fill="#171B1E"/>
<path d="M117.027 72.125H114.919V83.0532H117.027V72.125Z" fill="#171B1E"/>
<path d="M54.8113 100.713C56.2032 100.713 56.951 99.809 56.951 98.7495C56.951 97.8976 56.3278 96.8069 54.5413 96.8069H52.5574V100.713H54.8113ZM54.3543 95.7993C55.6734 95.7993 56.4628 95.0929 56.4628 93.8359C56.4628 92.4128 55.6319 92.0076 54.3959 92.0076H52.5574V95.7993H54.3543ZM51.3525 91H54.8321C56.7121 91 57.7612 92.1946 57.7612 93.5243C57.7612 94.7189 57.4496 95.8824 56.0058 96.1732V96.2044C57.1691 96.2875 58.1559 97.0978 58.1559 98.8326C58.1559 100.453 56.8472 101.804 54.9256 101.804H51.3525V91Z" fill="#171B1E"/>
<path d="M63.8683 92.5167H63.8371L62.0091 97.6587H65.686L63.8579 92.5167H63.8683ZM63.2347 91H64.4707L68.532 101.804H67.1713L66.0911 98.7599H61.604L60.5238 101.804H59.1631L63.2243 91H63.2347Z" fill="#171B1E"/>
<path d="M70.0176 91H71.2224V95.7058H76.7378V91H77.9427V101.804H76.7378V96.7965H71.2224V101.804H70.0176V91Z" fill="#171B1E"/>
<path d="M83.8946 96.0784C85.3176 96.0784 86.2836 95.4032 86.2836 94.1151C86.2836 92.5153 85.0787 92.0894 83.8323 92.0894H81.7445V96.0888H83.8946V96.0784ZM83.8427 97.1692H81.7342V101.792H80.5293V90.9883H83.8738C86.7614 90.9883 87.5612 92.5257 87.5612 93.9385C87.5612 95.881 86.294 96.764 85.1099 97.0549L87.987 101.792H86.5121L83.8531 97.1692H83.8427Z" fill="#171B1E"/>
<path d="M93.0451 92.5167H93.0139L91.1858 97.6587H94.8627L93.0347 92.5167H93.0451ZM92.4115 91H93.6475L97.7087 101.804H96.3481L95.2678 98.7599H90.7807L89.7005 101.804H88.3398L92.4011 91H92.4115Z" fill="#171B1E"/>
<path d="M100.565 90.9883H99.3604V101.792H100.565V90.9883Z" fill="#171B1E"/>
<path d="M103.391 91H104.699L110.776 99.9025H110.796V91H112.012V101.804H110.703L104.627 92.8906H104.595V101.804H103.391V91Z" fill="#171B1E"/>
<path d="M124.819 93.8121C124.767 92.9395 124.102 91.8903 122.378 91.8903C120.653 91.8903 119.937 92.8668 119.937 93.9056C119.937 94.6223 120.373 95.2976 122.346 95.6923C125.057 96.2221 126.283 96.8869 126.283 98.7672C126.283 100.388 125.13 102.019 122.336 102.019C119.895 102.019 118.545 100.814 118.431 98.8295H119.656C119.874 100.253 120.83 100.928 122.398 100.928C124.247 100.928 124.995 99.8475 124.995 98.8918C124.995 97.718 124.33 97.344 122.419 96.9389C119.937 96.4195 118.732 95.7338 118.732 93.9263C118.732 92.1188 120.186 90.8203 122.367 90.8203C125.026 90.8203 125.847 92.2746 126.055 93.8328H124.819V93.8121Z" fill="#171B1E"/>
<path d="M129.835 100.713H132.204C134.956 100.713 136.265 98.5417 136.265 96.3291C136.265 94.1164 135.112 92.0907 131.902 92.0907H129.835V100.713ZM131.975 91C136.265 91 137.563 93.8152 137.563 96.3498C137.563 99.0507 135.88 101.804 132.432 101.804H128.62V91H131.965H131.975Z" fill="#171B1E"/>
<path d="M144.73 95.9948H149.674C149.633 99.0696 148.293 101.999 144.637 101.999C141.375 101.999 139.526 99.7137 139.526 96.3999C139.526 93.5432 141.323 90.8008 144.896 90.8008C147.42 90.8008 149.134 92.4109 149.394 94.1146L148.199 94.2288C147.867 93.1485 146.974 91.8811 144.699 91.8811C142.154 91.8811 140.825 93.8756 140.825 96.4519C140.825 99.1631 142.414 100.908 144.657 100.908C147.41 100.908 148.251 98.7061 148.397 97.0855H144.751V95.9948H144.73Z" fill="#171B1E"/>
<path d="M156.083 96.7539C156.031 96.0891 155.584 95.4139 154.317 95.4139C153.299 95.4139 152.593 95.8398 152.593 96.5358C152.593 97.2318 153.143 97.5434 154.473 97.7616C156.311 98.0628 157.36 98.5095 157.36 99.8184C157.36 100.868 156.56 102 154.317 102C152.073 102 151.398 100.868 151.273 99.6834H152.395C152.437 100.286 152.873 100.992 154.296 100.992C155.418 100.992 156.259 100.608 156.249 99.8704C156.238 99.299 155.875 99.0497 154.078 98.7484C152.624 98.4991 151.481 98.0317 151.481 96.6501C151.481 95.2685 152.686 94.4062 154.431 94.4062C156.041 94.4062 157.215 95.3412 157.215 96.7436H156.093L156.083 96.7539Z" fill="#171B1E"/>
</g>
<defs>
<clipPath id="clip0_6143_75952">
<rect width="210" height="102" fill="white"/>
</clipPath>
</defs>
</svg>
