<svg width="129" height="128" viewBox="0 0 129 128" fill="none" xmlns="http://www.w3.org/2000/svg">
<path fill-rule="evenodd" clip-rule="evenodd" d="M64.3753 22.9598C41.7093 22.9598 23.3348 41.3343 23.3348 64.0003C23.3348 86.6664 41.7093 105.041 64.3753 105.041C87.0413 105.041 105.416 86.6664 105.416 64.0003C105.416 41.3343 87.0413 22.9598 64.3753 22.9598ZM11.8477 64.0003C11.8477 34.9901 35.3651 11.4727 64.3753 11.4727C93.3855 11.4727 116.903 34.9901 116.903 64.0003C116.903 93.0105 93.3855 116.528 64.3753 116.528C35.3651 116.528 11.8477 93.0105 11.8477 64.0003Z" fill="#E5EAEF" fill-opacity="0.5"/>
<path fill-rule="evenodd" clip-rule="evenodd" d="M111.198 69.419C108.026 69.4409 105.437 66.8873 105.415 63.7153C105.412 63.2667 105.401 62.819 105.383 62.3722C105.365 61.9081 105.402 61.4546 105.489 61.0183C105.34 60.5991 105.238 60.1558 105.189 59.6938C105.095 58.8014 104.972 57.9143 104.82 57.0337C104.742 56.576 104.719 56.1216 104.748 55.6776C104.546 55.2814 104.387 54.8552 104.278 54.4036C104.069 53.5322 103.831 52.6687 103.565 51.8145C103.427 51.3709 103.346 50.9233 103.317 50.4793C103.064 50.1128 102.851 49.711 102.684 49.2774C102.363 48.4415 102.015 47.6164 101.639 46.8033C101.445 46.3815 101.306 45.9483 101.219 45.5118C100.921 45.1815 100.657 44.8109 100.435 44.4028C100.008 43.6168 99.5547 42.8442 99.0761 42.0864C98.8281 41.6936 98.6336 41.2823 98.4907 40.861C98.1521 40.5724 97.8419 40.2396 97.5688 39.8639C97.0433 39.1412 96.4933 38.4344 95.9192 37.7447C95.622 37.3877 95.3755 37.0053 95.1788 36.6063C94.8054 36.3644 94.4544 36.0749 94.1346 35.7381C93.8267 35.4139 93.513 35.0942 93.1936 34.7792C92.8742 34.4642 92.5502 34.155 92.2218 33.8516C91.8806 33.5364 91.5863 33.1895 91.3392 32.8195C90.9375 32.6284 90.5517 32.3871 90.1907 32.095C89.4931 31.5305 88.7787 30.9903 88.0488 30.4748C87.6694 30.2069 87.3323 29.9014 87.039 29.5668C86.6158 29.4298 86.2018 29.241 85.8057 28.9984C85.0413 28.5304 84.2625 28.0881 83.4707 27.6719C83.0595 27.4558 82.6853 27.1968 82.3509 26.9034C81.9133 26.8227 81.4782 26.6896 81.0537 26.5008C80.2355 26.1369 79.4056 25.7998 78.5654 25.4902C78.1295 25.3296 77.7248 25.1217 77.3549 24.8744C76.9105 24.8515 76.4618 24.7763 76.0163 24.6445C75.1585 24.3907 74.2918 24.1648 73.4176 23.9673C72.9645 23.865 72.5361 23.7117 72.1372 23.5148C71.6937 23.5501 71.239 23.5341 70.7802 23.4616C69.8976 23.3222 69.0089 23.2113 68.1152 23.1296C67.6527 23.0873 67.208 22.9912 66.7867 22.8482C66.3517 22.9411 65.8988 22.9846 65.4344 22.9726C64.9875 22.9611 64.5396 22.9568 64.0911 22.9599C60.919 22.9819 58.3298 20.4283 58.3078 17.2563C58.2859 14.0842 60.8395 11.495 64.0115 11.473C64.5855 11.4691 65.1585 11.4745 65.7305 11.4892C66.3261 11.5046 66.8983 11.6101 67.4342 11.7924C67.9877 11.6739 68.5682 11.6359 69.1616 11.6902C70.3055 11.7948 71.4432 11.9367 72.5729 12.1152C73.1616 12.2082 73.7151 12.3876 74.2226 12.6383C74.7869 12.5931 75.3675 12.6312 75.9488 12.7625C77.0679 13.0153 78.1772 13.3044 79.275 13.6292C79.8464 13.7983 80.3718 14.0483 80.8422 14.3631C81.4076 14.392 81.9782 14.5055 82.5374 14.7116C83.6127 15.1078 84.6748 15.5392 85.7219 16.0049C86.2664 16.2471 86.7546 16.5635 87.18 16.9371C87.7367 17.0394 88.2877 17.2265 88.8151 17.5037C89.8285 18.0364 90.8253 18.6025 91.8037 19.2016C92.312 19.5127 92.7547 19.8902 93.1277 20.3161C93.6664 20.4903 94.1882 20.7477 94.675 21.0914C95.6093 21.7512 96.5238 22.4427 97.4167 23.1652C97.8799 23.5401 98.2696 23.9721 98.5837 24.443C99.0949 24.686 99.5786 25.0093 100.016 25.4136C100.437 25.8018 100.851 26.1975 101.26 26.6005C101.668 27.0035 102.07 27.4126 102.464 27.8274C102.874 28.2595 103.204 28.7387 103.454 29.2465C103.929 29.5541 104.367 29.9377 104.748 30.3957C105.483 31.2785 106.187 32.1833 106.86 33.1084C107.21 33.5904 107.475 34.1086 107.656 34.6448C108.087 35.0118 108.471 35.4493 108.789 35.9532C109.402 36.9233 109.981 37.9121 110.528 38.918C110.813 39.4416 111.007 39.9899 111.117 40.5452C111.497 40.9654 111.82 41.4492 112.07 41.9902C112.55 43.0308 112.996 44.0868 113.407 45.1565C113.621 45.7128 113.742 46.2818 113.779 46.8467C114.1 47.3127 114.357 47.8346 114.534 48.4036C114.874 49.4968 115.179 50.602 115.447 51.7175C115.586 52.2969 115.632 52.8769 115.595 53.4417C115.853 53.9458 116.04 54.4968 116.141 55.0841C116.335 56.2112 116.493 57.3468 116.613 58.4891C116.676 59.0817 116.646 59.6628 116.535 60.2179C116.725 60.7512 116.838 61.3218 116.862 61.9172C116.884 62.4889 116.898 63.0618 116.902 63.6357C116.924 66.8078 114.37 69.397 111.198 69.419Z" fill="url(#paint0_linear_2275_32592)"/>
<defs>
<linearGradient id="paint0_linear_2275_32592" x1="121.894" y1="56.6927" x2="56.6253" y2="18.537" gradientUnits="userSpaceOnUse">
<stop stop-color="#012E5D"/>
<stop offset="0.755208" stop-color="#012E5D" stop-opacity="0.01"/>
<stop offset="1" stop-color="#E5EAEF" stop-opacity="0"/>
</linearGradient>
</defs>
</svg>
