<svg xmlns="http://www.w3.org/2000/svg" width="588" height="161" fill="none" xmlns:v="https://vecta.io/nano"><path d="M1.75 21.5V7.04h3.48l3.79 11.05 3.83-11.05h3.46V21.5h-2.47V10.16L10.03 21.5H8L4.22 10.23V21.5H1.75zm20.647.2c-.66 0-1.253-.12-1.78-.36-.52-.247-.93-.597-1.23-1.05-.293-.46-.44-1.017-.44-1.67 0-1.14.41-2 1.23-2.58.827-.58 2.14-.883 3.94-.91l1.55-.04v-.7c0-.547-.163-.973-.49-1.28-.32-.313-.82-.467-1.5-.46-.507.007-.967.127-1.38.36-.413.227-.687.61-.82 1.15h-2.07c.04-.707.243-1.297.61-1.77.373-.48.883-.837 1.53-1.07.647-.24 1.393-.36 2.24-.36.987 0 1.79.13 2.41.39s1.077.637 1.37 1.13c.293.487.44 1.077.44 1.77v7.25h-2.05l-.2-1.86c-.367.78-.837 1.32-1.41 1.62-.567.293-1.217.44-1.95.44zm.79-1.65c.3 0 .597-.053.89-.16.293-.113.557-.263.79-.45.24-.193.43-.407.57-.64.147-.233.223-.477.23-.73v-1.63l-1.27.02c-.627.007-1.177.073-1.65.2-.467.127-.83.33-1.09.61-.26.273-.39.64-.39 1.1 0 .527.183.94.55 1.24.367.293.823.44 1.37.44zm11.212 1.65c-.507 0-.997-.073-1.47-.22-.467-.153-.887-.373-1.26-.66a3.25 3.25 0 0 1-.89-1.08c-.22-.427-.33-.923-.33-1.49v-7.09h2.44v6.81c0 .56.177 1.02.53 1.38.36.36.9.54 1.62.54.653 0 1.177-.17 1.57-.51.393-.347.59-.843.59-1.49v-6.73h2.42V21.5h-1.87l-.27-2.02c-.127.567-.35 1.013-.67 1.34a2.63 2.63 0 0 1-1.11.68 4.27 4.27 0 0 1-1.3.2zm8.075-.2V11.16h2.33v2.24c.167-.513.403-.95.71-1.31a3.19 3.19 0 0 1 1.1-.84c.42-.193.877-.29 1.37-.29a3 3 0 0 1 .35.02c.113.013.197.037.25.07v2.33c-.073-.033-.17-.057-.29-.07-.113-.013-.213-.02-.3-.02-.5-.04-.943-.02-1.33.06-.38.08-.703.217-.97.41-.26.187-.457.427-.59.72-.133.287-.2.623-.2 1.01v6.01h-2.43zm8.087 0V11.16h2.33V21.5h-2.33zm-.04-12.15v-2.3h2.41v2.3h-2.41zm9.116 12.35a6.15 6.15 0 0 1-2.05-.34c-.64-.233-1.18-.597-1.62-1.09-.433-.493-.707-1.13-.82-1.91h2.14c.093.38.257.69.49.93a2.22 2.22 0 0 0 .84.53 3.23 3.23 0 0 0 1.01.16c.62 0 1.12-.107 1.5-.32s.57-.543.57-.99c0-.327-.107-.587-.32-.78-.207-.193-.547-.34-1.02-.44l-1.96-.45c-.88-.193-1.583-.513-2.11-.96s-.793-1.077-.8-1.89c-.007-.613.147-1.16.46-1.64s.78-.857 1.4-1.13c.62-.28 1.383-.42 2.29-.42 1.207 0 2.173.27 2.9.81.733.533 1.11 1.297 1.13 2.29h-2.07c-.073-.447-.283-.793-.63-1.04-.347-.253-.797-.38-1.35-.38-.573 0-1.043.11-1.41.33s-.55.557-.55 1.01a.84.84 0 0 0 .41.74c.28.18.703.333 1.27.46l1.86.45c.533.133.97.313 1.31.54s.603.477.79.75c.193.267.327.543.4.83a2.85 2.85 0 0 1 .12.78c0 .667-.173 1.237-.52 1.71-.34.467-.823.827-1.45 1.08-.62.253-1.357.38-2.21.38zm14.626 0c-1.367 0-2.44-.47-3.22-1.41s-1.17-2.277-1.17-4.01c0-1.08.157-2.017.47-2.81.32-.8.79-1.417 1.41-1.85.62-.44 1.383-.66 2.29-.66.427 0 .813.053 1.16.16.353.1.667.233.94.4s.503.35.69.55c.193.2.343.4.45.6V6.64h2.45V21.5h-1.8l-.27-2.12a4.53 4.53 0 0 1-.37.78c-.153.267-.363.517-.63.75a3.04 3.04 0 0 1-.98.57c-.393.147-.867.22-1.42.22zm.5-1.79c.873 0 1.51-.283 1.91-.85.407-.573.61-1.52.61-2.84-.007-.753-.1-1.387-.28-1.9-.173-.513-.44-.9-.8-1.16s-.83-.39-1.41-.39c-.733 0-1.337.27-1.81.81-.467.54-.7 1.42-.7 2.64 0 1.213.217 2.133.65 2.76.433.62 1.043.93 1.83.93zm12.051 1.79c-.987 0-1.847-.21-2.58-.63-.733-.427-1.303-1.037-1.71-1.83-.4-.793-.6-1.747-.6-2.86 0-1.08.197-2.027.59-2.84s.953-1.447 1.68-1.9c.733-.453 1.61-.68 2.63-.68.987 0 1.843.217 2.57.65a4.3 4.3 0 0 1 1.68 1.86c.4.807.6 1.777.6 2.91 0 1.047-.19 1.97-.57 2.77-.373.793-.923 1.417-1.65 1.87-.72.453-1.6.68-2.64.68zm.01-1.85c.56 0 1.02-.153 1.38-.46.367-.307.64-.727.82-1.26s.27-1.14.27-1.82c0-.633-.08-1.217-.24-1.75s-.423-.96-.79-1.28c-.36-.327-.84-.49-1.44-.49-.567 0-1.037.15-1.41.45-.367.293-.64.707-.82 1.24-.18.527-.27 1.137-.27 1.83 0 .627.08 1.21.24 1.75.16.533.423.967.79 1.3.367.327.857.49 1.47.49zm10.056 1.8c-.667 0-1.2-.083-1.6-.25s-.7-.39-.9-.67a2.26 2.26 0 0 1-.39-.94 6.44 6.44 0 0 1-.09-1.08V6.64h2.38v11.79c0 .447.09.793.27 1.04.187.247.487.39.9.43l.52.02v1.53l-.55.14c-.187.04-.367.06-.54.06zm7.161.05c-.986 0-1.846-.21-2.58-.63-.733-.427-1.303-1.037-1.71-1.83-.4-.793-.6-1.747-.6-2.86 0-1.08.197-2.027.59-2.84s.954-1.447 1.68-1.9c.734-.453 1.61-.68 2.63-.68.987 0 1.844.217 2.57.65s1.287 1.053 1.68 1.86c.4.807.6 1.777.6 2.91 0 1.047-.19 1.97-.57 2.77a4.32 4.32 0 0 1-1.65 1.87c-.72.453-1.6.68-2.64.68zm.01-1.85c.56 0 1.02-.153 1.38-.46.367-.307.64-.727.82-1.26s.27-1.14.27-1.82c0-.633-.08-1.217-.24-1.75s-.423-.96-.79-1.28c-.36-.327-.84-.49-1.44-.49-.566 0-1.036.15-1.41.45-.366.293-.64.707-.82 1.24-.18.527-.27 1.137-.27 1.83 0 .627.08 1.21.24 1.75.16.533.424.967.79 1.3.367.327.857.49 1.47.49zm7.076 1.65V11.16h2.33v2.24c.167-.513.403-.95.71-1.31.313-.367.68-.647 1.1-.84s.877-.29 1.37-.29c.12 0 .237.007.35.02s.197.037.25.07v2.33a.97.97 0 0 0-.29-.07 2.6 2.6 0 0 0-.3-.02c-.5-.04-.943-.02-1.33.06-.38.08-.703.217-.97.41-.26.187-.457.427-.59.72-.133.287-.2.623-.2 1.01v6.01h-2.43zm16.379.2c-1.367 0-2.44-.47-3.22-1.41s-1.17-2.277-1.17-4.01c0-1.08.157-2.017.47-2.81.32-.8.79-1.417 1.41-1.85.62-.44 1.383-.66 2.29-.66.427 0 .813.053 1.16.16.353.1.667.233.94.4a3.27 3.27 0 0 1 .69.55 2.73 2.73 0 0 1 .45.6V6.64h2.45V21.5h-1.8l-.27-2.12c-.087.247-.21.507-.37.78-.153.267-.363.517-.63.75-.26.233-.587.423-.98.57s-.867.22-1.42.22zm.5-1.79c.873 0 1.51-.283 1.91-.85.407-.573.61-1.52.61-2.84-.007-.753-.1-1.387-.28-1.9-.173-.513-.44-.9-.8-1.16s-.83-.39-1.41-.39c-.733 0-1.337.27-1.81.81-.467.54-.7 1.42-.7 2.64 0 1.213.217 2.133.65 2.76a2.1 2.1 0 0 0 1.83.93zm12.051 1.79c-.987 0-1.847-.21-2.58-.63a4.37 4.37 0 0 1-1.71-1.83c-.4-.793-.6-1.747-.6-2.86 0-1.08.197-2.027.59-2.84s.953-1.447 1.68-1.9c.733-.453 1.61-.68 2.63-.68.987 0 1.843.217 2.57.65s1.287 1.053 1.68 1.86c.4.807.6 1.777.6 2.91 0 1.047-.19 1.97-.57 2.77a4.32 4.32 0 0 1-1.65 1.87c-.72.453-1.6.68-2.64.68zm.01-1.85c.56 0 1.02-.153 1.38-.46.367-.307.64-.727.82-1.26s.27-1.14.27-1.82c0-.633-.08-1.217-.24-1.75s-.423-.96-.79-1.28c-.36-.327-.84-.49-1.44-.49-.567 0-1.037.15-1.41.45-.367.293-.64.707-.82 1.24-.18.527-.27 1.137-.27 1.83 0 .627.08 1.21.24 1.75.16.533.423.967.79 1.3.367.327.857.49 1.47.49zm10.056 1.8c-.667 0-1.2-.083-1.6-.25s-.7-.39-.9-.67a2.26 2.26 0 0 1-.39-.94 6.44 6.44 0 0 1-.09-1.08V6.64h2.38v11.79c0 .447.09.793.27 1.04.186.247.486.39.9.43l.52.02v1.53l-.55.14a2.58 2.58 0 0 1-.54.06zm7.161.05c-.987 0-1.847-.21-2.58-.63-.734-.427-1.304-1.037-1.71-1.83-.4-.793-.6-1.747-.6-2.86 0-1.08.196-2.027.59-2.84s.953-1.447 1.68-1.9c.733-.453 1.61-.68 2.63-.68.986 0 1.843.217 2.57.65s1.286 1.053 1.68 1.86c.4.807.6 1.777.6 2.91 0 1.047-.19 1.97-.57 2.77a4.33 4.33 0 0 1-1.65 1.87c-.72.453-1.6.68-2.64.68zm.01-1.85c.56 0 1.02-.153 1.38-.46.366-.307.64-.727.82-1.26s.27-1.14.27-1.82c0-.633-.08-1.217-.24-1.75s-.424-.96-.79-1.28c-.36-.327-.84-.49-1.44-.49-.567 0-1.037.15-1.41.45-.367.293-.64.707-.82 1.24-.18.527-.27 1.137-.27 1.83 0 .627.08 1.21.24 1.75.16.533.423.967.79 1.3.366.327.856.49 1.47.49zm7.075 1.65V11.16h2.33v2.24c.167-.513.404-.95.71-1.31.314-.367.68-.647 1.1-.84s.877-.29 1.37-.29c.12 0 .237.007.35.02s.197.037.25.07v2.33a.97.97 0 0 0-.29-.07 2.6 2.6 0 0 0-.3-.02c-.5-.04-.943-.02-1.33.06-.38.08-.703.217-.97.41a1.78 1.78 0 0 0-.59.72c-.133.287-.2.623-.2 1.01v6.01h-2.43zm6.327 2.67l1.14-2.61-.95-.07v-2.55h2.66v2.23l-1.87 3h-.98zm11.515-2.67v-8.62h-2.04v-1.72h2.04V9.62c0-.827.227-1.463.68-1.91.46-.447 1.124-.67 1.99-.67h2.18l.01 1.66h-1.44c-.393 0-.663.103-.81.31-.146.2-.22.517-.22.95v1.2h2.37v1.72h-2.33v8.62h-2.43zm6.67 0V11.16h2.33v2.24c.167-.513.403-.95.71-1.31.313-.367.68-.647 1.1-.84s.877-.29 1.37-.29c.12 0 .237.007.35.02s.197.037.25.07v2.33a.97.97 0 0 0-.29-.07 2.6 2.6 0 0 0-.3-.02c-.5-.04-.943-.02-1.33.06-.38.08-.703.217-.97.41-.26.187-.457.427-.59.72-.133.287-.2.623-.2 1.01v6.01h-2.43zm8.087 0V11.16h2.33V21.5h-2.33zm-.04-12.15v-2.3h2.41v2.3h-2.41zm5.254 12.15V11.16h2.38v1.48c.16-.267.376-.523.65-.77.28-.247.623-.447 1.03-.6s.883-.23 1.43-.23c.64 0 1.233.127 1.78.38.553.253.996.65 1.33 1.19.34.54.51 1.237.51 2.09v6.8h-2.44v-6.51c0-.68-.187-1.183-.56-1.51-.374-.333-.844-.5-1.41-.5-.387 0-.754.067-1.1.2-.347.127-.63.323-.85.59-.214.26-.32.587-.32.98v6.75h-2.43zm16.319 3.42c-1.74 0-3.077-.233-4.01-.7s-1.4-1.107-1.4-1.92c0-.367.09-.673.27-.92a2.41 2.41 0 0 1 .64-.61c.246-.16.473-.283.68-.37l.4-.19-.45-.26a1.84 1.84 0 0 1-.51-.44c-.147-.187-.22-.43-.22-.73 0-.347.163-.667.49-.96.333-.293.83-.503 1.49-.63-.647-.313-1.144-.737-1.49-1.27s-.52-1.087-.52-1.66c0-.68.196-1.263.59-1.75.4-.487.953-.86 1.66-1.12s1.53-.39 2.47-.39c.686 0 1.256.077 1.71.23.46.153.886.36 1.28.62l.56-.22.79-.32.83-.34.67-.28-.01 2.01-1.79.32c.086.193.153.403.2.63a2.68 2.68 0 0 1 .08.6c0 .6-.17 1.157-.51 1.67-.334.507-.837.913-1.51 1.22-.667.307-1.5.46-2.5.46-.1 0-.237-.003-.41-.01l-.42-.02c-.54.02-.91.083-1.11.19s-.3.223-.3.35c0 .18.15.3.45.36s.78.113 1.44.16l.92.05 1.27.08c1.18.073 2.073.37 2.68.89.606.513.91 1.18.91 2 0 .953-.44 1.737-1.32 2.35s-2.214.92-4 .92zm.41-1.43c.873 0 1.52-.12 1.94-.36a1.15 1.15 0 0 0 .63-1.06 1.07 1.07 0 0 0-.43-.88c-.287-.227-.714-.36-1.28-.4l-2.61-.16a1.59 1.59 0 0 0-.82.16c-.254.12-.46.29-.62.51-.16.213-.24.45-.24.71 0 .487.276.853.83 1.1.56.253 1.426.38 2.6.38zm-.44-7.32c.633 0 1.146-.16 1.54-.48.393-.327.59-.787.59-1.38 0-.613-.197-1.09-.59-1.43-.394-.347-.907-.52-1.54-.52-.647 0-1.17.173-1.57.52-.394.347-.59.823-.59 1.43 0 .573.19 1.027.57 1.36s.91.5 1.59.5zm7.989 5.33V11.16h2.33V21.5h-2.33zm-.04-12.15v-2.3h2.41v2.3h-2.41zm8.234 12.3c-.667 0-1.2-.083-1.6-.25s-.7-.39-.9-.67a2.26 2.26 0 0 1-.39-.94 6.44 6.44 0 0 1-.09-1.08V6.64h2.38v11.79c0 .447.09.793.27 1.04.187.247.487.39.9.43l.52.02v1.53l-.55.14a2.58 2.58 0 0 1-.54.06zm6.055 0c-.667 0-1.2-.083-1.6-.25s-.7-.39-.9-.67a2.26 2.26 0 0 1-.39-.94 6.44 6.44 0 0 1-.09-1.08V6.64h2.38v11.79c0 .447.09.793.27 1.04.186.247.486.39.9.43l.52.02v1.53l-.55.14a2.58 2.58 0 0 1-.54.06zm6.26.05c-.66 0-1.254-.12-1.78-.36-.52-.247-.93-.597-1.23-1.05-.294-.46-.44-1.017-.44-1.67 0-1.14.41-2 1.23-2.58.826-.58 2.14-.883 3.94-.91l1.55-.04v-.7c0-.547-.164-.973-.49-1.28-.32-.313-.82-.467-1.5-.46-.507.007-.967.127-1.38.36-.414.227-.687.61-.82 1.15h-2.07c.04-.707.243-1.297.61-1.77.373-.48.883-.837 1.53-1.07.646-.24 1.393-.36 2.24-.36.986 0 1.79.13 2.41.39s1.076.637 1.37 1.13c.293.487.44 1.077.44 1.77v7.25h-2.05l-.2-1.86c-.367.78-.837 1.32-1.41 1.62-.567.293-1.217.44-1.95.44zm.79-1.65a2.59 2.59 0 0 0 .89-.16 2.98 2.98 0 0 0 .79-.45c.24-.193.43-.407.57-.64.146-.233.223-.477.23-.73v-1.63l-1.27.02c-.627.007-1.177.073-1.65.2-.467.127-.83.33-1.09.61-.26.273-.39.64-.39 1.1 0 .527.183.94.55 1.24.366.293.823.44 1.37.44zm15.879 1.65c-.507 0-.997-.073-1.47-.22a4.2 4.2 0 0 1-1.26-.66c-.373-.293-.67-.653-.89-1.08s-.33-.923-.33-1.49v-7.09h2.44v6.81c0 .56.177 1.02.53 1.38.36.36.9.54 1.62.54.653 0 1.177-.17 1.57-.51.393-.347.59-.843.59-1.49v-6.73h2.42V21.5h-1.87l-.27-2.02c-.127.567-.35 1.013-.67 1.34-.313.32-.683.547-1.11.68a4.27 4.27 0 0 1-1.3.2zm12.127-.12c-.82 0-1.456-.107-1.91-.32-.446-.22-.756-.53-.93-.93s-.26-.877-.26-1.43v-6.02h-1.68v-1.72h1.75l.61-3.07h1.75v3.06h2.31v1.73h-2.31l.01 5.93c0 .307.034.533.1.68a.55.55 0 0 0 .34.28c.16.04.37.06.63.06h1.28v1.54c-.14.053-.346.1-.62.14-.266.047-.623.07-1.07.07zm8.604-.08V11.16h2.37v1.48c.3-.453.707-.847 1.22-1.18.52-.333 1.18-.5 1.98-.5.367 0 .737.063 1.11.19.38.127.73.313 1.05.56a2.73 2.73 0 0 1 .78.92c.327-.487.76-.887 1.3-1.2.547-.313 1.16-.47 1.84-.47.374 0 .757.06 1.15.18.4.12.767.32 1.1.6s.604.663.81 1.15c.207.48.31 1.083.31 1.81v6.8h-2.43v-6.51c0-.513-.09-.917-.27-1.21s-.413-.5-.7-.62c-.28-.127-.58-.19-.9-.19a2.65 2.65 0 0 0-.9.17c-.306.113-.57.3-.79.56-.213.26-.32.61-.32 1.05v6.75h-2.43v-6.9c0-.36-.093-.66-.28-.9s-.423-.42-.71-.54c-.28-.127-.566-.19-.86-.19-.3 0-.606.063-.92.19-.306.127-.563.32-.77.58s-.31.597-.31 1.01v6.75h-2.43zm20.568.2c-.66 0-1.253-.12-1.78-.36-.52-.247-.93-.597-1.23-1.05-.293-.46-.44-1.017-.44-1.67 0-1.14.41-2 1.23-2.58.827-.58 2.14-.883 3.94-.91l1.55-.04v-.7c0-.547-.163-.973-.49-1.28-.32-.313-.82-.467-1.5-.46a2.84 2.84 0 0 0-1.38.36c-.413.227-.686.61-.82 1.15h-2.07c.04-.707.244-1.297.61-1.77.374-.48.884-.837 1.53-1.07.647-.24 1.394-.36 2.24-.36.987 0 1.79.13 2.41.39s1.077.637 1.37 1.13c.294.487.44 1.077.44 1.77v7.25h-2.05l-.2-1.86c-.366.78-.836 1.32-1.41 1.62-.566.293-1.216.44-1.95.44zm.79-1.65c.3 0 .597-.053.89-.16a2.95 2.95 0 0 0 .79-.45c.24-.193.43-.407.57-.64.147-.233.224-.477.23-.73v-1.63l-1.27.02c-.626.007-1.176.073-1.65.2-.466.127-.83.33-1.09.61-.26.273-.39.64-.39 1.1 0 .527.184.94.55 1.24.367.293.824.44 1.37.44zM317 21.7c-.72 0-1.403-.113-2.05-.34-.64-.233-1.18-.597-1.62-1.09-.433-.493-.707-1.13-.82-1.91h2.14c.093.38.257.69.49.93a2.22 2.22 0 0 0 .84.53 3.23 3.23 0 0 0 1.01.16c.62 0 1.12-.107 1.5-.32s.57-.543.57-.99c0-.327-.107-.587-.32-.78-.207-.193-.547-.34-1.02-.44l-1.96-.45c-.88-.193-1.583-.513-2.11-.96s-.793-1.077-.8-1.89c-.007-.613.147-1.16.46-1.64s.78-.857 1.4-1.13c.62-.28 1.383-.42 2.29-.42 1.207 0 2.173.27 2.9.81.733.533 1.11 1.297 1.13 2.29h-2.07a1.52 1.52 0 0 0-.63-1.04c-.347-.253-.797-.38-1.35-.38-.573 0-1.043.11-1.41.33s-.55.557-.55 1.01c0 .313.137.56.41.74.28.18.703.333 1.27.46l1.86.45c.533.133.97.313 1.31.54s.603.477.79.75c.193.267.327.543.4.83a2.85 2.85 0 0 1 .12.78c0 .667-.173 1.237-.52 1.71-.34.467-.823.827-1.45 1.08-.62.253-1.357.38-2.21.38zm10.293 0c-.72 0-1.403-.113-2.05-.34-.64-.233-1.18-.597-1.62-1.09-.433-.493-.707-1.13-.82-1.91h2.14c.093.38.257.69.49.93a2.22 2.22 0 0 0 .84.53 3.23 3.23 0 0 0 1.01.16c.62 0 1.12-.107 1.5-.32s.57-.543.57-.99c0-.327-.107-.587-.32-.78-.207-.193-.547-.34-1.02-.44l-1.96-.45c-.88-.193-1.583-.513-2.11-.96s-.793-1.077-.8-1.89c-.007-.613.147-1.16.46-1.64s.78-.857 1.4-1.13c.62-.28 1.383-.42 2.29-.42 1.207 0 2.173.27 2.9.81.733.533 1.11 1.297 1.13 2.29h-2.07a1.52 1.52 0 0 0-.63-1.04c-.347-.253-.797-.38-1.35-.38-.573 0-1.043.11-1.41.33s-.55.557-.55 1.01c0 .313.137.56.41.74.28.18.703.333 1.27.46l1.86.45c.533.133.97.313 1.31.54s.603.477.79.75c.193.267.327.543.4.83a2.85 2.85 0 0 1 .12.78c0 .667-.173 1.237-.52 1.71-.34.467-.823.827-1.45 1.08-.62.253-1.357.38-2.21.38zm9.44 0c-.66 0-1.253-.12-1.78-.36-.52-.247-.93-.597-1.23-1.05-.293-.46-.44-1.017-.44-1.67 0-1.14.41-2 1.23-2.58.827-.58 2.14-.883 3.94-.91l1.55-.04v-.7c0-.547-.163-.973-.49-1.28-.32-.313-.82-.467-1.5-.46a2.84 2.84 0 0 0-1.38.36c-.413.227-.686.61-.82 1.15h-2.07c.04-.707.244-1.297.61-1.77.374-.48.884-.837 1.53-1.07.647-.24 1.394-.36 2.24-.36.987 0 1.79.13 2.41.39s1.077.637 1.37 1.13c.294.487.44 1.077.44 1.77v7.25h-2.05l-.2-1.86c-.366.78-.836 1.32-1.41 1.62-.566.293-1.216.44-1.95.44zm.79-1.65c.3 0 .597-.053.89-.16a2.95 2.95 0 0 0 .79-.45c.24-.193.43-.407.57-.64.147-.233.224-.477.23-.73v-1.63l-1.27.02c-.626.007-1.176.073-1.65.2-.466.127-.83.33-1.09.61-.26.273-.39.64-.39 1.1 0 .527.184.94.55 1.24.367.293.824.44 1.37.44zm12.12 1.45V11.16h2.33V21.5h-2.33zm-.04-12.15v-2.3h2.41v2.3h-2.41zm5.254 12.15V11.16h2.38v1.48c.16-.267.376-.523.65-.77.28-.247.623-.447 1.03-.6s.883-.23 1.43-.23c.64 0 1.233.127 1.78.38.553.253.996.65 1.33 1.19.34.54.51 1.237.51 2.09v6.8h-2.44v-6.51c0-.68-.187-1.183-.56-1.51-.374-.333-.844-.5-1.41-.5-.387 0-.754.067-1.1.2-.347.127-.63.323-.85.59-.214.26-.32.587-.32.98v6.75h-2.43zm11.248 2.67l1.14-2.61-.95-.07v-2.55h2.66v2.23l-1.87 3h-.98zm14.055-2.47c-.506 0-.996-.073-1.47-.22-.466-.153-.886-.373-1.26-.66-.373-.293-.67-.653-.89-1.08s-.33-.923-.33-1.49v-7.09h2.44v6.81c0 .56.177 1.02.53 1.38.36.36.9.54 1.62.54.654 0 1.177-.17 1.57-.51.394-.347.59-.843.59-1.49v-6.73h2.42V21.5h-1.87l-.27-2.02c-.126.567-.35 1.013-.67 1.34-.313.32-.683.547-1.11.68a4.27 4.27 0 0 1-1.3.2zm11.055-.05c-.666 0-1.2-.083-1.6-.25s-.7-.39-.9-.67a2.26 2.26 0 0 1-.39-.94 6.44 6.44 0 0 1-.09-1.08V6.64h2.38v11.79c0 .447.09.793.27 1.04.187.247.487.39.9.43l.52.02v1.53l-.55.14c-.186.04-.366.06-.54.06zm6.776-.07c-.82 0-1.457-.107-1.91-.32-.447-.22-.757-.53-.93-.93s-.26-.877-.26-1.43v-6.02h-1.68v-1.72h1.75l.61-3.07h1.75v3.06h2.31v1.73h-2.31l.01 5.93c0 .307.033.533.1.68a.55.55 0 0 0 .34.28c.16.04.37.06.63.06h1.28v1.54c-.14.053-.347.1-.62.14-.267.047-.623.07-1.07.07zm3.936-.08V11.16h2.33v2.24c.167-.513.403-.95.71-1.31.313-.367.68-.647 1.1-.84s.877-.29 1.37-.29c.12 0 .237.007.35.02s.197.037.25.07v2.33a.97.97 0 0 0-.29-.07 2.6 2.6 0 0 0-.3-.02c-.5-.04-.943-.02-1.33.06-.38.08-.703.217-.97.41-.26.187-.457.427-.59.72-.133.287-.2.623-.2 1.01v6.01h-2.43zm8.087 0V11.16h2.33V21.5h-2.33zm-.04-12.15v-2.3h2.41v2.3h-2.41zm9.496 12.35c-.947 0-1.79-.207-2.53-.62-.733-.42-1.31-1.027-1.73-1.82-.42-.8-.63-1.763-.63-2.89 0-1.073.197-2.013.59-2.82.4-.813.963-1.447 1.69-1.9.733-.46 1.603-.69 2.61-.69.807 0 1.517.16 2.13.48a3.83 3.83 0 0 1 1.47 1.33 4.23 4.23 0 0 1 .67 1.93h-2.07c-.053-.313-.17-.61-.35-.89-.18-.287-.423-.517-.73-.69-.3-.18-.667-.27-1.1-.27-.78 0-1.41.287-1.89.86s-.72 1.453-.72 2.64c0 1.093.227 1.963.68 2.61.46.647 1.117.97 1.97.97.427 0 .793-.093 1.1-.28.307-.193.547-.43.72-.71.18-.287.293-.573.34-.86h2.02a3.84 3.84 0 0 1-.65 1.87c-.373.547-.867.977-1.48 1.29-.613.307-1.317.46-2.11.46zm11.109 0c-.993 0-1.87-.21-2.63-.63-.753-.427-1.343-1.033-1.77-1.82-.42-.787-.63-1.723-.63-2.81 0-1.06.19-2 .57-2.82.387-.827.943-1.477 1.67-1.95.733-.473 1.617-.71 2.65-.71 1.02 0 1.877.217 2.57.65s1.22 1.04 1.58 1.82c.36.773.54 1.68.54 2.72v.74h-7.15c-.007.587.087 1.107.28 1.56s.48.81.86 1.07c.38.253.85.38 1.41.38.573 0 1.07-.127 1.49-.38.427-.26.71-.653.85-1.18h2.22c-.12.72-.407 1.33-.86 1.83a4.33 4.33 0 0 1-1.64 1.14 5.29 5.29 0 0 1-2.01.39zm-2.61-6.32h4.86c0-.5-.09-.95-.27-1.35-.173-.407-.437-.727-.79-.96-.353-.24-.8-.36-1.34-.36-.533 0-.983.13-1.35.39s-.643.597-.83 1.01c-.187.407-.28.83-.28 1.27zm13.406 6.32c-.72 0-1.403-.113-2.05-.34-.64-.233-1.18-.597-1.62-1.09-.433-.493-.707-1.13-.82-1.91h2.14c.093.38.257.69.49.93a2.22 2.22 0 0 0 .84.53 3.23 3.23 0 0 0 1.01.16c.62 0 1.12-.107 1.5-.32s.57-.543.57-.99c0-.327-.107-.587-.32-.78-.207-.193-.547-.34-1.02-.44l-1.96-.45c-.88-.193-1.583-.513-2.11-.96s-.793-1.077-.8-1.89c-.007-.613.147-1.16.46-1.64s.78-.857 1.4-1.13c.62-.28 1.383-.42 2.29-.42 1.207 0 2.173.27 2.9.81.733.533 1.11 1.297 1.13 2.29h-2.07a1.52 1.52 0 0 0-.63-1.04c-.347-.253-.797-.38-1.35-.38-.573 0-1.043.11-1.41.33s-.55.557-.55 1.01c0 .313.137.56.41.74.28.18.703.333 1.27.46l1.86.45c.533.133.97.313 1.31.54s.603.477.79.75c.193.267.327.543.4.83a2.85 2.85 0 0 1 .12.78c0 .667-.173 1.237-.52 1.71-.34.467-.823.827-1.45 1.08-.62.253-1.357.38-2.21.38zm15.562 3.22c-1.74 0-3.077-.233-4.01-.7s-1.4-1.107-1.4-1.92c0-.367.09-.673.27-.92a2.41 2.41 0 0 1 .64-.61 4.4 4.4 0 0 1 .68-.37l.4-.19-.45-.26a1.84 1.84 0 0 1-.51-.44c-.147-.187-.22-.43-.22-.73 0-.347.163-.667.49-.96.333-.293.83-.503 1.49-.63-.647-.313-1.143-.737-1.49-1.27s-.52-1.087-.52-1.66c0-.68.197-1.263.59-1.75.4-.487.953-.86 1.66-1.12s1.53-.39 2.47-.39c.687 0 1.257.077 1.71.23.46.153.887.36 1.28.62l.56-.22.79-.32.83-.34.67-.28-.01 2.01-1.79.32c.087.193.153.403.2.63a2.68 2.68 0 0 1 .08.6c0 .6-.17 1.157-.51 1.67-.333.507-.837.913-1.51 1.22-.667.307-1.5.46-2.5.46-.1 0-.237-.003-.41-.01l-.42-.02c-.54.02-.91.083-1.11.19s-.3.223-.3.35c0 .18.15.3.45.36s.78.113 1.44.16l.92.05 1.27.08c1.18.073 2.073.37 2.68.89.607.513.91 1.18.91 2 0 .953-.44 1.737-1.32 2.35s-2.213.92-4 .92zm.41-1.43c.873 0 1.52-.12 1.94-.36a1.15 1.15 0 0 0 .63-1.06 1.07 1.07 0 0 0-.43-.88c-.287-.227-.713-.36-1.28-.4l-2.61-.16a1.59 1.59 0 0 0-.82.16 1.6 1.6 0 0 0-.62.51c-.16.213-.24.45-.24.71 0 .487.277.853.83 1.1.56.253 1.427.38 2.6.38zm-.44-7.32c.633 0 1.147-.16 1.54-.48.393-.327.59-.787.59-1.38 0-.613-.197-1.09-.59-1.43-.393-.347-.907-.52-1.54-.52-.647 0-1.17.173-1.57.52-.393.347-.59.823-.59 1.43 0 .573.19 1.027.57 1.36s.91.5 1.59.5zm7.95 5.33V11.16h2.33v2.24c.166-.513.403-.95.71-1.31.313-.367.68-.647 1.1-.84s.876-.29 1.37-.29a3.01 3.01 0 0 1 .35.02c.113.013.196.037.25.07v2.33c-.074-.033-.17-.057-.29-.07a2.63 2.63 0 0 0-.3-.02c-.5-.04-.944-.02-1.33.06-.38.08-.704.217-.97.41-.26.187-.457.427-.59.72-.134.287-.2.623-.2 1.01v6.01h-2.43zm10.743.2c-.66 0-1.253-.12-1.78-.36-.52-.247-.93-.597-1.23-1.05-.293-.46-.44-1.017-.44-1.67 0-1.14.41-2 1.23-2.58.827-.58 2.14-.883 3.94-.91l1.55-.04v-.7c0-.547-.163-.973-.49-1.28-.32-.313-.82-.467-1.5-.46a2.84 2.84 0 0 0-1.38.36c-.413.227-.686.61-.82 1.15h-2.07c.04-.707.244-1.297.61-1.77.374-.48.884-.837 1.53-1.07.647-.24 1.394-.36 2.24-.36.987 0 1.79.13 2.41.39s1.077.637 1.37 1.13c.294.487.44 1.077.44 1.77v7.25h-2.05l-.2-1.86c-.366.78-.836 1.32-1.41 1.62-.566.293-1.216.44-1.95.44zm.79-1.65c.3 0 .597-.053.89-.16a2.95 2.95 0 0 0 .79-.45c.24-.193.43-.407.57-.64.147-.233.224-.477.23-.73v-1.63l-1.27.02c-.626.007-1.176.073-1.65.2-.466.127-.83.33-1.09.61-.26.273-.39.64-.39 1.1 0 .527.184.94.55 1.24.367.293.824.44 1.37.44zm9.86 1.45l-3.82-10.34h2.23l2.48 7.24h.13l2.47-7.24h2.24l-3.81 10.34h-1.92zm7.494 0V11.16h2.33V21.5h-2.33zm-.04-12.15v-2.3h2.41v2.3h-2.41zM502.7 21.7c-1.366 0-2.44-.47-3.22-1.41s-1.17-2.277-1.17-4.01c0-1.08.157-2.017.47-2.81.32-.8.79-1.417 1.41-1.85.62-.44 1.384-.66 2.29-.66a3.93 3.93 0 0 1 1.16.16 3.75 3.75 0 0 1 .94.4c.274.167.504.35.69.55a2.67 2.67 0 0 1 .45.6V6.64h2.45V21.5h-1.8l-.27-2.12a4.48 4.48 0 0 1-.37.78c-.153.267-.363.517-.63.75-.26.233-.586.423-.98.57s-.866.22-1.42.22zm.5-1.79c.874 0 1.51-.283 1.91-.85.407-.573.61-1.52.61-2.84-.006-.753-.1-1.387-.28-1.9-.173-.513-.44-.9-.8-1.16s-.83-.39-1.41-.39a2.3 2.3 0 0 0-1.81.81c-.466.54-.7 1.42-.7 2.64 0 1.213.217 2.133.65 2.76.434.62 1.044.93 1.83.93zm10.701 1.79c-.66 0-1.253-.12-1.78-.36-.52-.247-.93-.597-1.23-1.05-.293-.46-.44-1.017-.44-1.67 0-1.14.41-2 1.23-2.58.827-.58 2.14-.883 3.94-.91l1.55-.04v-.7c0-.547-.163-.973-.49-1.28-.32-.313-.82-.467-1.5-.46a2.84 2.84 0 0 0-1.38.36c-.413.227-.686.61-.82 1.15h-2.07c.04-.707.244-1.297.61-1.77.374-.48.884-.837 1.53-1.07.647-.24 1.394-.36 2.24-.36.987 0 1.79.13 2.41.39s1.077.637 1.37 1.13c.294.487.44 1.077.44 1.77v7.25h-2.05l-.2-1.86c-.366.78-.836 1.32-1.41 1.62-.566.293-1.216.44-1.95.44zm.79-1.65c.3 0 .597-.053.89-.16a2.95 2.95 0 0 0 .79-.45c.24-.193.43-.407.57-.64.147-.233.224-.477.23-.73v-1.63l-1.27.02c-.626.007-1.176.073-1.65.2-.466.127-.83.33-1.09.61-.26.273-.39.64-.39 1.1 0 .527.184.94.55 1.24.367.293.824.44 1.37.44zm16.244 1.65c-.987 0-1.847-.21-2.58-.63a4.37 4.37 0 0 1-1.71-1.83c-.4-.793-.6-1.747-.6-2.86 0-1.08.197-2.027.59-2.84s.953-1.447 1.68-1.9c.733-.453 1.61-.68 2.63-.68.987 0 1.843.217 2.57.65s1.287 1.053 1.68 1.86c.4.807.6 1.777.6 2.91 0 1.047-.19 1.97-.57 2.77a4.32 4.32 0 0 1-1.65 1.87c-.72.453-1.6.68-2.64.68zm.01-1.85c.56 0 1.02-.153 1.38-.46.367-.307.64-.727.82-1.26s.27-1.14.27-1.82c0-.633-.08-1.217-.24-1.75s-.423-.96-.79-1.28c-.36-.327-.84-.49-1.44-.49-.567 0-1.037.15-1.41.45-.367.293-.64.707-.82 1.24-.18.527-.27 1.137-.27 1.83 0 .627.08 1.21.24 1.75.16.533.423.967.79 1.3.367.327.857.49 1.47.49zm10.916 1.85c-1.367 0-2.44-.47-3.22-1.41s-1.17-2.277-1.17-4.01c0-1.08.156-2.017.47-2.81.32-.8.79-1.417 1.41-1.85.62-.44 1.383-.66 2.29-.66a3.94 3.94 0 0 1 1.16.16 3.78 3.78 0 0 1 .94.4 3.27 3.27 0 0 1 .69.55 2.73 2.73 0 0 1 .45.6V6.64h2.45V21.5h-1.8l-.27-2.12c-.087.247-.21.507-.37.78-.154.267-.364.517-.63.75-.26.233-.587.423-.98.57s-.867.22-1.42.22zm.5-1.79c.873 0 1.51-.283 1.91-.85.406-.573.61-1.52.61-2.84-.007-.753-.1-1.387-.28-1.9-.174-.513-.44-.9-.8-1.16s-.83-.39-1.41-.39c-.734 0-1.337.27-1.81.81-.467.54-.7 1.42-.7 2.64 0 1.213.216 2.133.65 2.76a2.1 2.1 0 0 0 1.83.93zm7.848 1.59V11.16h2.33V21.5h-2.33zm-.04-12.15v-2.3h2.41v2.3h-2.41zm9.496 12.35c-.986 0-1.846-.21-2.58-.63a4.37 4.37 0 0 1-1.71-1.83c-.4-.793-.6-1.747-.6-2.86 0-1.08.197-2.027.59-2.84s.954-1.447 1.68-1.9c.734-.453 1.61-.68 2.63-.68.987 0 1.844.217 2.57.65s1.287 1.053 1.68 1.86c.4.807.6 1.777.6 2.91 0 1.047-.19 1.97-.57 2.77a4.32 4.32 0 0 1-1.65 1.87c-.72.453-1.6.68-2.64.68zm.01-1.85c.56 0 1.02-.153 1.38-.46.367-.307.64-.727.82-1.26s.27-1.14.27-1.82c0-.633-.08-1.217-.24-1.75s-.423-.96-.79-1.28c-.36-.327-.84-.49-1.44-.49-.566 0-1.036.15-1.41.45-.366.293-.64.707-.82 1.24-.18.527-.27 1.137-.27 1.83 0 .627.08 1.21.24 1.75.16.533.424.967.79 1.3.367.327.857.49 1.47.49zm6.736 1.65v-2.8h2.75v2.8h-2.75zM5.48 49.5L.42 35.04h2.35L6.89 46.7l4.12-11.66h2.36L8.3 49.5H5.48zm13.243.2c-.993 0-1.87-.21-2.63-.63-.753-.427-1.343-1.033-1.77-1.82-.42-.787-.63-1.723-.63-2.81 0-1.06.19-2 .57-2.82.387-.827.943-1.477 1.67-1.95.733-.473 1.617-.71 2.65-.71 1.02 0 1.877.217 2.57.65a4.13 4.13 0 0 1 1.58 1.82c.36.773.54 1.68.54 2.72v.74h-7.15c-.007.587.087 1.107.28 1.56s.48.81.86 1.07c.38.253.85.38 1.41.38.573 0 1.07-.127 1.49-.38.427-.26.71-.653.85-1.18h2.22c-.12.72-.407 1.33-.86 1.83a4.33 4.33 0 0 1-1.64 1.14 5.29 5.29 0 0 1-2.01.39zm-2.61-6.32h4.86c0-.5-.09-.95-.27-1.35-.173-.407-.437-.727-.79-.96-.353-.24-.8-.36-1.34-.36-.533 0-.983.13-1.35.39s-.643.597-.83 1.01a3.01 3.01 0 0 0-.28 1.27zM29.52 49.7a6.15 6.15 0 0 1-2.05-.34c-.64-.233-1.18-.597-1.62-1.09-.433-.493-.707-1.13-.82-1.91h2.14c.093.38.257.69.49.93a2.22 2.22 0 0 0 .84.53c.327.107.663.16 1.01.16.62 0 1.12-.107 1.5-.32s.57-.543.57-.99c0-.327-.107-.587-.32-.78-.207-.193-.547-.34-1.02-.44L28.28 45c-.88-.193-1.583-.513-2.11-.96s-.793-1.077-.8-1.89c-.007-.613.147-1.16.46-1.64s.78-.857 1.4-1.13c.62-.28 1.383-.42 2.29-.42 1.207 0 2.173.27 2.9.81.733.533 1.11 1.297 1.13 2.29h-2.07c-.073-.447-.283-.793-.63-1.04-.347-.253-.797-.38-1.35-.38-.573 0-1.043.11-1.41.33s-.55.557-.55 1.01a.84.84 0 0 0 .41.74c.28.18.703.333 1.27.46l1.86.45c.533.133.97.313 1.31.54s.603.477.79.75c.193.267.327.543.4.83a2.85 2.85 0 0 1 .12.78c0 .667-.173 1.237-.52 1.71-.34.467-.823.827-1.45 1.08-.62.253-1.357.38-2.21.38zm10.424-.12c-.82 0-1.457-.107-1.91-.32-.447-.22-.757-.53-.93-.93s-.26-.877-.26-1.43v-6.02h-1.68v-1.72h1.75l.61-3.07h1.75v3.06h2.31v1.73h-2.31l.01 5.93c0 .307.033.533.1.68a.55.55 0 0 0 .34.28c.16.04.37.06.63.06h1.28v1.54c-.14.053-.347.1-.62.14a6.48 6.48 0 0 1-1.07.07zm3.976-.08V39.16h2.33V49.5h-2.33zm-.04-12.15v-2.3h2.41v2.3h-2.41zM54.594 49.7c-.553 0-1.027-.073-1.42-.22s-.723-.337-.99-.57c-.26-.233-.47-.483-.63-.75-.153-.273-.27-.533-.35-.78l-.28 2.12h-1.79V34.64h2.44v6.03c.107-.2.253-.4.44-.6.193-.2.427-.383.7-.55s.583-.3.93-.4c.353-.107.743-.16 1.17-.16 1.287 0 2.303.457 3.05 1.37s1.12 2.23 1.12 3.95c0 1.087-.167 2.037-.5 2.85-.327.813-.817 1.447-1.47 1.9-.647.447-1.453.67-2.42.67zm-.5-1.79c.727 0 1.323-.29 1.79-.87s.7-1.52.7-2.82c0-1.133-.22-1.99-.66-2.57-.44-.587-1.06-.88-1.86-.88-.573 0-1.043.13-1.41.39-.36.26-.63.647-.81 1.16-.173.513-.263 1.147-.27 1.9 0 1.32.2 2.267.6 2.84.407.567 1.047.85 1.92.85zm10.832 1.79c-.507 0-.997-.073-1.47-.22-.467-.153-.887-.373-1.26-.66a3.25 3.25 0 0 1-.89-1.08c-.22-.427-.33-.923-.33-1.49v-7.09h2.44v6.81c0 .56.177 1.02.53 1.38.36.36.9.54 1.62.54.653 0 1.177-.17 1.57-.51.393-.347.59-.843.59-1.49v-6.73h2.42V49.5h-1.87l-.27-2.02c-.127.567-.35 1.013-.67 1.34-.313.32-.683.547-1.11.68a4.27 4.27 0 0 1-1.3.2zm11.055-.05c-.667 0-1.2-.083-1.6-.25s-.7-.39-.9-.67a2.26 2.26 0 0 1-.39-.94 6.44 6.44 0 0 1-.09-1.08V34.64h2.38v11.79c0 .447.09.793.27 1.04.187.247.487.39.9.43l.52.02v1.53l-.55.14c-.187.04-.367.06-.54.06zm6.933.05c-.507 0-.997-.073-1.47-.22-.467-.153-.887-.373-1.26-.66a3.25 3.25 0 0 1-.89-1.08c-.22-.427-.33-.923-.33-1.49v-7.09h2.44v6.81c0 .56.177 1.02.53 1.38.36.36.9.54 1.62.54.653 0 1.177-.17 1.57-.51.393-.347.59-.843.59-1.49v-6.73h2.42V49.5h-1.87l-.27-2.02c-.127.567-.35 1.013-.67 1.34a2.63 2.63 0 0 1-1.11.68 4.27 4.27 0 0 1-1.3.2zm8.075-.2V39.16h2.37v1.48c.3-.453.707-.847 1.22-1.18.52-.333 1.18-.5 1.98-.5a3.44 3.44 0 0 1 1.11.19c.38.127.73.313 1.05.56a2.74 2.74 0 0 1 .78.92c.327-.487.76-.887 1.3-1.2.547-.313 1.16-.47 1.84-.47.374 0 .757.06 1.15.18.4.12.767.32 1.1.6s.604.663.81 1.15c.207.48.31 1.083.31 1.81v6.8h-2.43v-6.51c0-.513-.09-.917-.27-1.21s-.413-.5-.7-.62c-.28-.127-.58-.19-.9-.19a2.65 2.65 0 0 0-.9.17c-.306.113-.57.3-.79.56-.213.26-.32.61-.32 1.05v6.75h-2.43v-6.9c0-.36-.093-.66-.28-.9a1.73 1.73 0 0 0-.71-.54c-.28-.127-.567-.19-.86-.19-.3 0-.607.063-.92.19a1.89 1.89 0 0 0-.77.58c-.207.26-.31.597-.31 1.01v6.75h-2.43zm26.455.08c-.82 0-1.457-.107-1.91-.32-.447-.22-.757-.53-.93-.93s-.26-.877-.26-1.43v-6.02h-1.68v-1.72h1.75l.61-3.07h1.75v3.06h2.31v1.73h-2.31l.01 5.93c0 .307.033.533.1.68a.55.55 0 0 0 .34.28c.16.04.37.06.63.06h1.28v1.54c-.14.053-.347.1-.62.14-.267.047-.623.07-1.07.07zm3.936-.08V39.16h2.33v2.24c.167-.513.403-.95.71-1.31.313-.367.68-.647 1.1-.84s.877-.29 1.37-.29c.12 0 .237.007.35.02s.197.037.25.07v2.33a.97.97 0 0 0-.29-.07 2.6 2.6 0 0 0-.3-.02c-.5-.04-.943-.02-1.33.06-.38.08-.703.217-.97.41-.26.187-.457.427-.59.72-.133.287-.2.623-.2 1.01v6.01h-2.43zm8.087 0V39.16h2.33V49.5h-2.33zm-.04-12.15v-2.3h2.41v2.3h-2.41zm9.116 12.35c-.72 0-1.403-.113-2.05-.34-.64-.233-1.18-.597-1.62-1.09-.433-.493-.707-1.13-.82-1.91h2.14c.093.38.257.69.49.93a2.22 2.22 0 0 0 .84.53 3.23 3.23 0 0 0 1.01.16c.62 0 1.12-.107 1.5-.32s.57-.543.57-.99c0-.327-.107-.587-.32-.78-.207-.193-.547-.34-1.02-.44l-1.96-.45c-.88-.193-1.583-.513-2.11-.96s-.793-1.077-.8-1.89c-.007-.613.147-1.16.46-1.64s.78-.857 1.4-1.13c.62-.28 1.383-.42 2.29-.42 1.207 0 2.173.27 2.9.81.733.533 1.11 1.297 1.13 2.29h-2.07a1.52 1.52 0 0 0-.63-1.04c-.347-.253-.797-.38-1.35-.38-.573 0-1.043.11-1.41.33s-.55.557-.55 1.01c0 .313.137.56.41.74.28.18.703.333 1.27.46l1.86.45c.533.133.97.313 1.31.54s.603.477.79.75c.193.267.327.543.4.83a2.85 2.85 0 0 1 .12.78c0 .667-.173 1.237-.52 1.71-.34.467-.823.827-1.45 1.08-.62.253-1.357.38-2.21.38zm10.425-.12c-.82 0-1.457-.107-1.91-.32-.447-.22-.757-.53-.93-.93s-.26-.877-.26-1.43v-6.02h-1.68v-1.72h1.75l.61-3.07h1.75v3.06h2.31v1.73h-2.31l.01 5.93c0 .307.033.533.1.68.073.14.186.233.34.28.16.04.37.06.63.06h1.28v1.54c-.14.053-.347.1-.62.14-.267.047-.624.07-1.07.07zm3.975-.08V39.16h2.33V49.5h-2.33zm-.04-12.15v-2.3h2.41v2.3h-2.41zM164.9 52.72V47.8a3.6 3.6 0 0 1-.48.69 3.72 3.72 0 0 1-.67.61 3.09 3.09 0 0 1-.86.44 3.37 3.37 0 0 1-1.07.16c-.8 0-1.527-.187-2.18-.56-.654-.38-1.174-.97-1.56-1.77-.38-.807-.57-1.857-.57-3.15 0-1.133.163-2.09.49-2.87.326-.787.793-1.38 1.4-1.78.613-.407 1.346-.61 2.2-.61a3.69 3.69 0 0 1 1.11.16c.346.1.656.237.93.41.28.173.523.37.73.59a4.27 4.27 0 0 1 .52.67l.02-1.63h2.43v13.56h-2.44zm-2.54-4.84c.566 0 1.04-.163 1.42-.49.38-.333.663-.773.85-1.32.186-.553.28-1.157.28-1.81 0-1.013-.214-1.847-.64-2.5-.42-.66-1.057-.99-1.91-.99-.727 0-1.334.29-1.82.87-.48.58-.72 1.453-.72 2.62 0 1.16.223 2.053.67 2.68.453.627 1.076.94 1.87.94zm11.531 1.82c-.507 0-.997-.073-1.47-.22a4.2 4.2 0 0 1-1.26-.66c-.373-.293-.67-.653-.89-1.08s-.33-.923-.33-1.49v-7.09h2.44v6.81c0 .56.177 1.02.53 1.38.36.36.9.54 1.62.54.653 0 1.177-.17 1.57-.51.393-.347.59-.843.59-1.49v-6.73h2.42V49.5h-1.87l-.27-2.02c-.127.567-.35 1.013-.67 1.34-.313.32-.683.547-1.11.68a4.27 4.27 0 0 1-1.3.2zm12.547 0c-.993 0-1.87-.21-2.63-.63-.753-.427-1.343-1.033-1.77-1.82-.42-.787-.63-1.723-.63-2.81 0-1.06.19-2 .57-2.82.387-.827.944-1.477 1.67-1.95.734-.473 1.617-.71 2.65-.71 1.02 0 1.877.217 2.57.65s1.22 1.04 1.58 1.82c.36.773.54 1.68.54 2.72v.74h-7.15c-.006.587.087 1.107.28 1.56a2.41 2.41 0 0 0 .86 1.07c.38.253.85.38 1.41.38.574 0 1.07-.127 1.49-.38.427-.26.71-.653.85-1.18h2.22c-.12.72-.406 1.33-.86 1.83-.446.5-.993.88-1.64 1.14a5.29 5.29 0 0 1-2.01.39zm-2.61-6.32h4.86c0-.5-.09-.95-.27-1.35-.173-.407-.436-.727-.79-.96-.353-.24-.8-.36-1.34-.36-.533 0-.983.13-1.35.39a2.46 2.46 0 0 0-.83 1.01 3.02 3.02 0 0 0-.28 1.27zm17.046 6.32c-.66 0-1.253-.12-1.78-.36-.52-.247-.93-.597-1.23-1.05-.293-.46-.44-1.017-.44-1.67 0-1.14.41-2 1.23-2.58.827-.58 2.14-.883 3.94-.91l1.55-.04v-.7c0-.547-.163-.973-.49-1.28-.32-.313-.82-.467-1.5-.46-.507.007-.967.127-1.38.36-.413.227-.687.61-.82 1.15h-2.07c.04-.707.243-1.297.61-1.77.373-.48.883-.837 1.53-1.07.647-.24 1.393-.36 2.24-.36.987 0 1.79.13 2.41.39s1.077.637 1.37 1.13c.293.487.44 1.077.44 1.77v7.25h-2.05l-.2-1.86c-.367.78-.837 1.32-1.41 1.62-.567.293-1.217.44-1.95.44zm.79-1.65c.3 0 .597-.053.89-.16.293-.113.557-.263.79-.45.24-.193.43-.407.57-.64.147-.233.223-.477.23-.73v-1.63l-1.27.02c-.627.007-1.177.073-1.65.2-.467.127-.83.33-1.09.61-.26.273-.39.64-.39 1.1 0 .527.183.94.55 1.24.367.293.823.44 1.37.44zm11.211 1.65c-.506 0-.996-.073-1.47-.22-.466-.153-.886-.373-1.26-.66-.373-.293-.67-.653-.89-1.08s-.33-.923-.33-1.49v-7.09h2.44v6.81c0 .56.177 1.02.53 1.38.36.36.9.54 1.62.54.654 0 1.177-.17 1.57-.51.394-.347.59-.843.59-1.49v-6.73h2.42V49.5h-1.87l-.27-2.02c-.126.567-.35 1.013-.67 1.34-.313.32-.683.547-1.11.68a4.27 4.27 0 0 1-1.3.2zm12.519 3.22c-1.74 0-3.077-.233-4.01-.7s-1.4-1.107-1.4-1.92c0-.367.09-.673.27-.92a2.41 2.41 0 0 1 .64-.61 4.4 4.4 0 0 1 .68-.37l.4-.19-.45-.26a1.84 1.84 0 0 1-.51-.44c-.147-.187-.22-.43-.22-.73 0-.347.163-.667.49-.96.333-.293.83-.503 1.49-.63-.647-.313-1.143-.737-1.49-1.27s-.52-1.087-.52-1.66c0-.68.197-1.263.59-1.75.4-.487.953-.86 1.66-1.12s1.53-.39 2.47-.39c.687 0 1.257.077 1.71.23.46.153.887.36 1.28.62l.56-.22.79-.32.83-.34.67-.28-.01 2.01-1.79.32c.087.193.153.403.2.63a2.68 2.68 0 0 1 .08.6c0 .6-.17 1.157-.51 1.67-.333.507-.837.913-1.51 1.22-.667.307-1.5.46-2.5.46-.1 0-.237-.003-.41-.01l-.42-.02c-.54.02-.91.083-1.11.19s-.3.223-.3.35c0 .18.15.3.45.36s.78.113 1.44.16l.92.05 1.27.08c1.18.073 2.073.37 2.68.89.607.513.91 1.18.91 2 0 .953-.44 1.737-1.32 2.35s-2.213.92-4 .92zm.41-1.43c.873 0 1.52-.12 1.94-.36a1.15 1.15 0 0 0 .63-1.06 1.07 1.07 0 0 0-.43-.88c-.287-.227-.713-.36-1.28-.4l-2.61-.16a1.59 1.59 0 0 0-.82.16 1.6 1.6 0 0 0-.62.51c-.16.213-.24.45-.24.71 0 .487.277.853.83 1.1.56.253 1.427.38 2.6.38zm-.44-7.32c.633 0 1.147-.16 1.54-.48.393-.327.59-.787.59-1.38 0-.613-.197-1.09-.59-1.43-.393-.347-.907-.52-1.54-.52-.647 0-1.17.173-1.57.52-.393.347-.59.823-.59 1.43 0 .573.19 1.027.57 1.36s.91.5 1.59.5zm11.515 5.53c-.506 0-.996-.073-1.47-.22-.466-.153-.886-.373-1.26-.66-.373-.293-.67-.653-.89-1.08s-.33-.923-.33-1.49v-7.09h2.44v6.81c0 .56.177 1.02.53 1.38.36.36.9.54 1.62.54.654 0 1.177-.17 1.57-.51.394-.347.59-.843.59-1.49v-6.73h2.42V49.5h-1.87l-.27-2.02c-.126.567-.35 1.013-.67 1.34-.313.32-.683.547-1.11.68a4.27 4.27 0 0 1-1.3.2zm12.548 0c-.994 0-1.87-.21-2.63-.63a4.51 4.51 0 0 1-1.77-1.82c-.42-.787-.63-1.723-.63-2.81 0-1.06.19-2 .57-2.82.386-.827.943-1.477 1.67-1.95.733-.473 1.616-.71 2.65-.71 1.02 0 1.876.217 2.57.65s1.22 1.04 1.58 1.82c.36.773.54 1.68.54 2.72v.74h-7.15c-.007.587.086 1.107.28 1.56s.48.81.86 1.07c.38.253.85.38 1.41.38.573 0 1.07-.127 1.49-.38.426-.26.71-.653.85-1.18h2.22c-.12.72-.407 1.33-.86 1.83-.447.5-.994.88-1.64 1.14a5.29 5.29 0 0 1-2.01.39zm-2.61-6.32h4.86c0-.5-.09-.95-.27-1.35a2.12 2.12 0 0 0-.79-.96c-.354-.24-.8-.36-1.34-.36-.534 0-.984.13-1.35.39s-.644.597-.83 1.01c-.187.407-.28.83-.28 1.27zm18.015 6.32c-.72 0-1.403-.113-2.05-.34-.64-.233-1.18-.597-1.62-1.09-.433-.493-.706-1.13-.82-1.91h2.14c.094.38.257.69.49.93a2.22 2.22 0 0 0 .84.53c.327.107.664.16 1.01.16.62 0 1.12-.107 1.5-.32s.57-.543.57-.99c0-.327-.106-.587-.32-.78-.206-.193-.546-.34-1.02-.44l-1.96-.45c-.88-.193-1.583-.513-2.11-.96s-.793-1.077-.8-1.89c-.006-.613.147-1.16.46-1.64s.78-.857 1.4-1.13c.62-.28 1.384-.42 2.29-.42 1.207 0 2.174.27 2.9.81.734.533 1.11 1.297 1.13 2.29h-2.07a1.52 1.52 0 0 0-.63-1.04c-.346-.253-.796-.38-1.35-.38-.573 0-1.043.11-1.41.33s-.55.557-.55 1.01c0 .313.137.56.41.74.28.18.704.333 1.27.46l1.86.45c.534.133.97.313 1.31.54s.604.477.79.75c.194.267.327.543.4.83a2.85 2.85 0 0 1 .12.78c0 .667-.173 1.237-.52 1.71-.34.467-.823.827-1.45 1.08-.62.253-1.356.38-2.21.38zm6.432-.2V39.16h2.33V49.5h-2.33zm-.04-12.15v-2.3h2.41v2.3h-2.41zm9.306 12.23c-.82 0-1.457-.107-1.91-.32-.447-.22-.757-.53-.93-.93s-.26-.877-.26-1.43v-6.02h-1.68v-1.72h1.75l.61-3.07h1.75v3.06h2.31v1.73h-2.31l.01 5.93c0 .307.033.533.1.68a.55.55 0 0 0 .34.28c.16.04.37.06.63.06h1.28v1.54c-.14.053-.347.1-.62.14-.267.047-.623.07-1.07.07zm11.594.12c-.66 0-1.253-.12-1.78-.36-.52-.247-.93-.597-1.23-1.05-.293-.46-.44-1.017-.44-1.67 0-1.14.41-2 1.23-2.58.827-.58 2.14-.883 3.94-.91l1.55-.04v-.7c0-.547-.163-.973-.49-1.28-.32-.313-.82-.467-1.5-.46-.507.007-.967.127-1.38.36-.413.227-.687.61-.82 1.15h-2.07c.04-.707.243-1.297.61-1.77.373-.48.883-.837 1.53-1.07.647-.24 1.393-.36 2.24-.36.987 0 1.79.13 2.41.39s1.077.637 1.37 1.13c.293.487.44 1.077.44 1.77v7.25h-2.05l-.2-1.86c-.367.78-.837 1.32-1.41 1.62-.567.293-1.217.44-1.95.44zm.79-1.65c.3 0 .597-.053.89-.16.293-.113.557-.263.79-.45.24-.193.43-.407.57-.64.147-.233.223-.477.23-.73v-1.63l-1.27.02c-.627.007-1.177.073-1.65.2-.467.127-.83.33-1.09.61-.26.273-.39.64-.39 1.1 0 .527.183.94.55 1.24.367.293.823.44 1.37.44zm7.411 1.45V39.16h2.37v1.48c.3-.453.707-.847 1.22-1.18.52-.333 1.18-.5 1.98-.5.367 0 .737.063 1.11.19.38.127.73.313 1.05.56a2.73 2.73 0 0 1 .78.92c.327-.487.76-.887 1.3-1.2.547-.313 1.16-.47 1.84-.47.374 0 .757.06 1.15.18.4.12.767.32 1.1.6s.604.663.81 1.15c.207.48.31 1.083.31 1.81v6.8h-2.43v-6.51c0-.513-.09-.917-.27-1.21s-.413-.5-.7-.62c-.28-.127-.58-.19-.9-.19a2.65 2.65 0 0 0-.9.17c-.306.113-.57.3-.79.56-.213.26-.32.61-.32 1.05v6.75h-2.43v-6.9c0-.36-.093-.66-.28-.9s-.423-.42-.71-.54c-.28-.127-.566-.19-.86-.19-.3 0-.606.063-.92.19-.306.127-.563.32-.77.58s-.31.597-.31 1.01v6.75h-2.43zm22.207.2c-.993 0-1.87-.21-2.63-.63-.753-.427-1.343-1.033-1.77-1.82-.42-.787-.63-1.723-.63-2.81 0-1.06.19-2 .57-2.82.387-.827.943-1.477 1.67-1.95.733-.473 1.617-.71 2.65-.71 1.02 0 1.877.217 2.57.65s1.22 1.04 1.58 1.82c.36.773.54 1.68.54 2.72v.74h-7.15c-.007.587.087 1.107.28 1.56s.48.81.86 1.07c.38.253.85.38 1.41.38.573 0 1.07-.127 1.49-.38.427-.26.71-.653.85-1.18h2.22c-.12.72-.407 1.33-.86 1.83a4.33 4.33 0 0 1-1.64 1.14 5.29 5.29 0 0 1-2.01.39zm-2.61-6.32h4.86c0-.5-.09-.95-.27-1.35-.173-.407-.437-.727-.79-.96-.353-.24-.8-.36-1.34-.36-.533 0-.983.13-1.35.39s-.643.597-.83 1.01c-.187.407-.28.83-.28 1.27zm13.245 6.2c-.82 0-1.457-.107-1.91-.32-.447-.22-.757-.53-.93-.93s-.26-.877-.26-1.43v-6.02h-1.68v-1.72h1.75l.61-3.07h1.75v3.06h2.31v1.73h-2.31l.01 5.93c0 .307.033.533.1.68.073.14.186.233.34.28.16.04.37.06.63.06h1.28v1.54c-.14.053-.347.1-.62.14-.267.047-.624.07-1.07.07zm12.998.12c-.993 0-1.87-.21-2.63-.63-.753-.427-1.343-1.033-1.77-1.82-.42-.787-.63-1.723-.63-2.81 0-1.06.19-2 .57-2.82.387-.827.943-1.477 1.67-1.95.733-.473 1.617-.71 2.65-.71 1.02 0 1.877.217 2.57.65s1.22 1.04 1.58 1.82c.36.773.54 1.68.54 2.72v.74h-7.15c-.007.587.087 1.107.28 1.56s.48.81.86 1.07c.38.253.85.38 1.41.38.573 0 1.07-.127 1.49-.38.427-.26.71-.653.85-1.18h2.22c-.12.72-.407 1.33-.86 1.83a4.33 4.33 0 0 1-1.64 1.14 5.29 5.29 0 0 1-2.01.39zm-2.61-6.32h4.86c0-.5-.09-.95-.27-1.35-.173-.407-.437-.727-.79-.96-.353-.24-.8-.36-1.34-.36-.533 0-.983.13-1.35.39s-.643.597-.83 1.01c-.187.407-.28.83-.28 1.27zm13.406 6.32c-.72 0-1.403-.113-2.05-.34-.64-.233-1.18-.597-1.62-1.09-.433-.493-.707-1.13-.82-1.91h2.14c.093.38.257.69.49.93a2.22 2.22 0 0 0 .84.53 3.23 3.23 0 0 0 1.01.16c.62 0 1.12-.107 1.5-.32s.57-.543.57-.99c0-.327-.107-.587-.32-.78-.207-.193-.547-.34-1.02-.44l-1.96-.45c-.88-.193-1.583-.513-2.11-.96s-.793-1.077-.8-1.89c-.007-.613.147-1.16.46-1.64s.78-.857 1.4-1.13c.62-.28 1.383-.42 2.29-.42 1.207 0 2.173.27 2.9.81.733.533 1.11 1.297 1.13 2.29h-2.07a1.52 1.52 0 0 0-.63-1.04c-.347-.253-.797-.38-1.35-.38-.573 0-1.043.11-1.41.33s-.55.557-.55 1.01c0 .313.137.56.41.74.28.18.703.333 1.27.46l1.86.45c.533.133.97.313 1.31.54s.603.477.79.75c.193.267.327.543.4.83a2.85 2.85 0 0 1 .12.78c0 .667-.173 1.237-.52 1.71-.34.467-.823.827-1.45 1.08-.62.253-1.357.38-2.21.38zm10.424-.12c-.82 0-1.456-.107-1.91-.32-.446-.22-.756-.53-.93-.93s-.26-.877-.26-1.43v-6.02h-1.68v-1.72h1.75l.61-3.07h1.75v3.06h2.31v1.73h-2.31l.01 5.93c0 .307.034.533.1.68a.55.55 0 0 0 .34.28c.16.04.37.06.63.06h1.28v1.54c-.14.053-.346.1-.62.14-.266.047-.623.07-1.07.07zm12.769.12c-.947 0-1.79-.207-2.53-.62-.734-.42-1.31-1.027-1.73-1.82-.42-.8-.63-1.763-.63-2.89 0-1.073.196-2.013.59-2.82.4-.813.963-1.447 1.69-1.9.733-.46 1.603-.69 2.61-.69.806 0 1.516.16 2.13.48a3.83 3.83 0 0 1 1.47 1.33c.373.567.596 1.21.67 1.93h-2.07a2.38 2.38 0 0 0-.35-.89 2.02 2.02 0 0 0-.73-.69c-.3-.18-.667-.27-1.1-.27-.78 0-1.41.287-1.89.86s-.72 1.453-.72 2.64c0 1.093.226 1.963.68 2.61.46.647 1.116.97 1.97.97.426 0 .793-.093 1.1-.28.306-.193.546-.43.72-.71.18-.287.293-.573.34-.86h2.02a3.84 3.84 0 0 1-.65 1.87 3.92 3.92 0 0 1-1.48 1.29c-.614.307-1.317.46-2.11.46zm10.319 0c-.507 0-.997-.073-1.47-.22a4.2 4.2 0 0 1-1.26-.66c-.373-.293-.67-.653-.89-1.08s-.33-.923-.33-1.49v-7.09h2.44v6.81c0 .56.177 1.02.53 1.38.36.36.9.54 1.62.54.653 0 1.177-.17 1.57-.51.393-.347.59-.843.59-1.49v-6.73h2.42V49.5h-1.87l-.27-2.02c-.127.567-.35 1.013-.67 1.34-.313.32-.683.547-1.11.68a4.27 4.27 0 0 1-1.3.2zm8.075-.2V39.16h2.33v2.24c.167-.513.403-.95.71-1.31.313-.367.68-.647 1.1-.84s.877-.29 1.37-.29c.12 0 .237.007.35.02s.197.037.25.07v2.33a.97.97 0 0 0-.29-.07 2.6 2.6 0 0 0-.3-.02c-.5-.04-.943-.02-1.33.06-.38.08-.703.217-.97.41-.26.187-.457.427-.59.72-.133.287-.2.623-.2 1.01v6.01h-2.43zm11.968.2a6.15 6.15 0 0 1-2.05-.34c-.64-.233-1.18-.597-1.62-1.09-.434-.493-.707-1.13-.82-1.91h2.14c.093.38.256.69.49.93a2.22 2.22 0 0 0 .84.53 3.23 3.23 0 0 0 1.01.16c.62 0 1.12-.107 1.5-.32s.57-.543.57-.99c0-.327-.107-.587-.32-.78-.207-.193-.547-.34-1.02-.44l-1.96-.45c-.88-.193-1.584-.513-2.11-.96s-.794-1.077-.8-1.89c-.007-.613.146-1.16.46-1.64s.78-.857 1.4-1.13c.62-.28 1.383-.42 2.29-.42 1.206 0 2.173.27 2.9.81.733.533 1.11 1.297 1.13 2.29h-2.07c-.074-.447-.284-.793-.63-1.04-.347-.253-.797-.38-1.35-.38-.574 0-1.044.11-1.41.33s-.55.557-.55 1.01a.84.84 0 0 0 .41.74c.28.18.703.333 1.27.46l1.86.45c.533.133.97.313 1.31.54s.603.477.79.75c.193.267.326.543.4.83a2.85 2.85 0 0 1 .12.78c0 .667-.174 1.237-.52 1.71-.34.467-.824.827-1.45 1.08-.62.253-1.357.38-2.21.38zm10.191 0c-.506 0-.996-.073-1.47-.22-.466-.153-.886-.373-1.26-.66-.373-.293-.67-.653-.89-1.08s-.33-.923-.33-1.49v-7.09h2.44v6.81c0 .56.177 1.02.53 1.38.36.36.9.54 1.62.54.654 0 1.177-.17 1.57-.51.394-.347.59-.843.59-1.49v-6.73h2.42V49.5h-1.87l-.27-2.02c-.126.567-.35 1.013-.67 1.34-.313.32-.683.547-1.11.68a4.27 4.27 0 0 1-1.3.2zm11.938 0a6.15 6.15 0 0 1-2.05-.34c-.64-.233-1.18-.597-1.62-1.09-.434-.493-.707-1.13-.82-1.91h2.14c.093.38.256.69.49.93a2.22 2.22 0 0 0 .84.53 3.23 3.23 0 0 0 1.01.16c.62 0 1.12-.107 1.5-.32s.57-.543.57-.99c0-.327-.107-.587-.32-.78-.207-.193-.547-.34-1.02-.44l-1.96-.45c-.88-.193-1.584-.513-2.11-.96s-.794-1.077-.8-1.89c-.007-.613.146-1.16.46-1.64s.78-.857 1.4-1.13c.62-.28 1.383-.42 2.29-.42 1.206 0 2.173.27 2.9.81.733.533 1.11 1.297 1.13 2.29h-2.07c-.074-.447-.284-.793-.63-1.04-.347-.253-.797-.38-1.35-.38-.574 0-1.044.11-1.41.33s-.55.557-.55 1.01a.84.84 0 0 0 .41.74c.28.18.703.333 1.27.46l1.86.45c.533.133.97.313 1.31.54s.603.477.79.75c.193.267.326.543.4.83a2.85 2.85 0 0 1 .12.78c0 .667-.174 1.237-.52 1.71-.34.467-.824.827-1.45 1.08-.62.253-1.357.38-2.21.38z" fill="#333"/><g fill="#012e5d"><path d="M1.25 105.5V90.64h2.9v6.01a4.34 4.34 0 0 1 .63-.71 3.13 3.13 0 0 1 .95-.6c.38-.16.843-.24 1.39-.24.66 0 1.26.13 1.8.39.547.253.983.623 1.31 1.11.333.487.5 1.08.5 1.78v7.12H7.8v-6.69c0-.467-.17-.823-.51-1.07-.333-.253-.74-.38-1.22-.38a2.51 2.51 0 0 0-.91.17 1.68 1.68 0 0 0-.72.52c-.18.227-.27.51-.27.85v6.6H1.25zm15.944.11c-.913 0-1.62-.117-2.12-.35-.493-.233-.837-.56-1.03-.98-.187-.42-.28-.907-.28-1.46v-5.63h-1.68v-2.03h1.77l.74-3.12h2.08v3.11h2.3v2.04h-2.3l.02 5.51c0 .253.03.443.09.57a.49.49 0 0 0 .3.24 2.36 2.36 0 0 0 .53.05h1.39v1.8c-.14.06-.35.117-.63.17s-.673.08-1.18.08zm7.637 0c-.913 0-1.62-.117-2.12-.35-.493-.233-.837-.56-1.03-.98-.187-.42-.28-.907-.28-1.46v-5.63h-1.68v-2.03h1.77l.74-3.12h2.08v3.11h2.3v2.04h-2.3l.02 5.51c0 .253.03.443.09.57a.49.49 0 0 0 .3.24c.14.033.317.05.53.05h1.39v1.8c-.14.06-.35.117-.63.17s-.673.08-1.18.08zm3.86 3.11V95.16h2.93l.01 1.49a3.15 3.15 0 0 1 .56-.67 4.05 4.05 0 0 1 .75-.54 3.59 3.59 0 0 1 .89-.35c.32-.087.657-.13 1.01-.13.767 0 1.45.19 2.05.57.6.373 1.07.953 1.41 1.74.347.78.52 1.773.52 2.98 0 1.253-.187 2.283-.56 3.09-.367.8-.873 1.393-1.52 1.78s-1.377.58-2.19.58c-.333 0-.647-.047-.94-.14-.293-.087-.567-.21-.82-.37a3.81 3.81 0 0 1-.67-.55 4.3 4.3 0 0 1-.51-.69v4.77h-2.92zm5.16-5.16c.633 0 1.163-.263 1.59-.79.433-.527.65-1.36.65-2.5 0-1-.207-1.78-.62-2.34-.407-.567-.947-.85-1.62-.85-.753 0-1.317.307-1.69.92-.367.607-.55 1.363-.55 2.27 0 .58.08 1.12.24 1.62.167.5.413.903.74 1.21.333.307.753.46 1.26.46zm6.728-5.02v-3.13h3.2v3.13h-3.2zm0 6.9v-3.12h3.2v3.12h-3.2zm4.631.43l5.06-14.83h2.03l-5.05 14.83h-2.04zm7.617 0l5.06-14.83h2.03l-5.05 14.83h-2.04zm7.737-.37l3.97-5.39-3.63-4.95h3.06l2.15 2.9 2.14-2.9h3.05l-3.66 4.95 3.98 5.39h-3.06l-2.47-3.37-2.47 3.37h-3.06zm12.398 0v-3.18h3.2v3.18h-3.2zm10.151.2c-.96 0-1.817-.213-2.57-.64s-1.347-1.037-1.78-1.83c-.427-.8-.64-1.753-.64-2.86 0-1.067.207-2.007.62-2.82s.993-1.447 1.74-1.9c.753-.46 1.63-.69 2.63-.69.867 0 1.613.177 2.24.53a3.94 3.94 0 0 1 1.49 1.43c.367.6.577 1.27.63 2.01h-2.43a2.58 2.58 0 0 0-.29-.81 1.81 1.81 0 0 0-.62-.67c-.267-.18-.6-.27-1-.27-.68 0-1.233.263-1.66.79-.42.52-.63 1.313-.63 2.38 0 1.007.207 1.807.62 2.4.413.587.99.88 1.73.88.393 0 .72-.097.98-.29.267-.193.473-.423.62-.69a2.53 2.53 0 0 0 .28-.76h2.37a4.07 4.07 0 0 1-.62 1.94 3.98 3.98 0 0 1-1.5 1.37c-.627.333-1.363.5-2.21.5zm10.928 0c-1.013 0-1.897-.217-2.65-.65-.747-.433-1.327-1.047-1.74-1.84-.407-.793-.61-1.733-.61-2.82s.203-2.037.61-2.85c.413-.813.993-1.447 1.74-1.9.753-.453 1.64-.68 2.66-.68s1.903.223 2.65.67a4.42 4.42 0 0 1 1.73 1.88c.407.813.61 1.773.61 2.88 0 1.04-.2 1.96-.6 2.76a4.46 4.46 0 0 1-1.71 1.87c-.74.453-1.637.68-2.69.68zm.01-2.17c.513 0 .927-.15 1.24-.45s.54-.693.68-1.18c.14-.493.21-1.03.21-1.61 0-.547-.063-1.063-.19-1.55s-.347-.88-.66-1.18-.74-.45-1.28-.45c-.513 0-.93.143-1.25.43-.313.28-.543.663-.69 1.15a5.46 5.46 0 0 0-.22 1.6c0 .54.067 1.06.2 1.56.133.493.357.897.67 1.21s.743.47 1.29.47zm6.984 1.97V95.16h2.86v1.46c.313-.453.733-.843 1.26-1.17.533-.327 1.203-.49 2.01-.49a3.29 3.29 0 0 1 1.08.19c.367.127.71.313 1.03.56a2.74 2.74 0 0 1 .79.91c.333-.473.77-.867 1.31-1.18.547-.32 1.153-.48 1.82-.48.387 0 .777.063 1.17.19.4.127.767.333 1.1.62s.6.67.8 1.15c.207.473.31 1.06.31 1.76v6.82h-2.92v-6.46c0-.413-.083-.743-.25-.99-.16-.253-.367-.433-.62-.54a1.87 1.87 0 0 0-.79-.17 2.11 2.11 0 0 0-.79.16 1.59 1.59 0 0 0-.68.49c-.187.227-.28.523-.28.89v6.62h-2.91v-6.72c0-.313-.083-.577-.25-.79a1.56 1.56 0 0 0-.63-.48 1.81 1.81 0 0 0-.76-.17 2.03 2.03 0 0 0-.8.17 1.57 1.57 0 0 0-.67.51c-.18.227-.27.513-.27.86v6.62h-2.92zm16.89.37l5.06-14.83h2.03l-5.05 14.83h-2.04zm13.098-.26c-.914 0-1.62-.117-2.12-.35-.494-.233-.837-.56-1.03-.98-.187-.42-.28-.907-.28-1.46v-5.63h-1.68v-2.03h1.77l.74-3.12h2.08v3.11h2.3v2.04h-2.3l.02 5.51c0 .253.03.443.09.57a.49.49 0 0 0 .3.24c.14.033.316.05.53.05h1.39v1.8c-.14.06-.35.117-.63.17s-.674.08-1.18.08zm8.278.09c-1.027 0-1.93-.213-2.71-.64-.774-.433-1.377-1.043-1.81-1.83s-.65-1.713-.65-2.78c0-1.033.196-1.963.59-2.79a4.71 4.71 0 0 1 1.72-1.97c.746-.487 1.65-.73 2.71-.73 1.053 0 1.936.223 2.65.67a4.18 4.18 0 0 1 1.62 1.85c.366.787.55 1.697.55 2.73v.79h-6.95c0 .527.086.987.26 1.38.173.387.423.687.75.9.333.207.733.31 1.2.31.5 0 .936-.107 1.31-.32s.636-.563.79-1.05h2.63c-.12.733-.414 1.36-.88 1.88s-1.034.917-1.7 1.19a5.44 5.44 0 0 1-2.08.41zm-2.28-6.44h4.22a2.69 2.69 0 0 0-.24-1.14 1.83 1.83 0 0 0-.7-.82c-.307-.2-.694-.3-1.16-.3-.447 0-.83.11-1.15.33a2.16 2.16 0 0 0-.73.84 2.38 2.38 0 0 0-.24 1.09zm11.18 6.24l-3.35-10.34h2.58l1.98 6.41h.07l1.9-6.41h2.09l1.92 6.41h.08l1.92-6.41h2.64l-3.4 10.34h-2.33l-1.92-6.26-1.93 6.26h-2.25zm13.361 0V95.16h2.811v2.45c.166-.527.4-.987.7-1.38.306-.4.676-.71 1.11-.93.433-.227.923-.34 1.47-.34a1.59 1.59 0 0 1 .26.02c.086.007.15.02.19.04v2.78c-.06-.027-.134-.043-.22-.05l-.22-.02c-.574-.047-1.064-.03-1.471.05s-.736.217-.989.41a1.67 1.67 0 0 0-.55.71 2.49 2.49 0 0 0-.17.94v5.66h-2.921zm10.858 0l-3.35-10.34h2.58l1.98 6.41h.07l1.9-6.41h2.09l1.92 6.41h.08l1.92-6.41h2.64l-3.4 10.34h-2.33l-1.92-6.26-1.93 6.26h-2.25zm17.799.2c-1.027 0-1.93-.213-2.71-.64-.774-.433-1.377-1.043-1.81-1.83s-.65-1.713-.65-2.78c0-1.033.196-1.963.59-2.79a4.71 4.71 0 0 1 1.72-1.97c.746-.487 1.65-.73 2.71-.73 1.053 0 1.936.223 2.65.67a4.18 4.18 0 0 1 1.62 1.85c.366.787.55 1.697.55 2.73v.79h-6.95c0 .527.086.987.26 1.38.173.387.423.687.75.9.333.207.733.31 1.2.31.5 0 .936-.107 1.31-.32s.636-.563.79-1.05h2.63c-.12.733-.414 1.36-.88 1.88s-1.034.917-1.7 1.19a5.44 5.44 0 0 1-2.08.41zm-2.28-6.44h4.22a2.69 2.69 0 0 0-.24-1.14 1.83 1.83 0 0 0-.7-.82c-.307-.2-.694-.3-1.16-.3-.447 0-.83.11-1.15.33a2.16 2.16 0 0 0-.73.84 2.38 2.38 0 0 0-.24 1.09zM0 109.9h195.749v1.4H0v-1.4z"/><g stroke="#012e5d" stroke-width=".125"><use href="#B"/><use href="#B" x="-3.437"/><use href="#B" x="3.438"/></g></g><g stroke-linejoin="round"><path d="M8.209 151.5l1.25 2.188c.055.095.134.175.229.23a.62.62 0 0 0 .628 0c.095-.055.174-.135.229-.23l1.25-2.188h5.081c.166 0 .325-.066.442-.183s.183-.276.183-.442v-10c0-.166-.066-.325-.183-.442s-.276-.183-.442-.183H3.125c-.166 0-.325.066-.442.183s-.183.276-.183.442v10c0 .166.066.325.183.442s.276.183.442.183h5.084z" stroke="#012e5d"/><g stroke-linecap="round"><path d="M43.625 143.375L45.5 141.5l-1.875-1.875M30.5 146.5a5 5 0 0 1 5-5h10m-13.125 8.125L30.5 151.5l1.875 1.875" stroke="#012e5d"/><path d="M45.5 146.5a5 5 0 0 1-5 5h-10" stroke="#012e5d"/></g><path d="M66 154l6.981-7.081a3.91 3.91 0 0 0 1.144-2.763c0-1.036-.412-2.03-1.144-2.762s-1.726-1.144-2.763-1.144-2.03.411-2.763 1.144L66 142.75l-1.456-1.356c-.733-.733-1.726-1.144-2.763-1.144s-2.03.411-2.763 1.144-1.144 1.726-1.144 2.762a3.91 3.91 0 0 0 1.144 2.763L66 154z" stroke="#012e5d"/><path d="M516.416 154.025c1.286-1.37 4.662-4.275 9.459-4.275v3.75l6.25-6.25-6.25-6.25v3.75c-4.125 0-9.413 3.941-10 9.027-.008.065.005.132.037.19a.31.31 0 0 0 .143.132c.06.028.128.035.193.022s.124-.047.168-.096z" stroke="#012e5d" stroke-width="1.5"/></g><path d="M547.632 154.66c-.576 0-1.139-.072-1.688-.216s-1.051-.36-1.504-.648-.827-.648-1.12-1.08-.461-.939-.52-1.52h2.392c.08.352.232.648.456.888s.523.424.88.552c.363.128.776.192 1.24.192.368 0 .717-.053 1.048-.16a1.89 1.89 0 0 0 .808-.488c.208-.219.312-.493.312-.824 0-.395-.144-.691-.432-.888-.288-.203-.68-.363-1.176-.48l-2.168-.472c-.613-.128-1.149-.325-1.608-.592-.453-.272-.803-.624-1.048-1.056s-.368-.968-.368-1.592c0-.72.197-1.341.592-1.864s.941-.923 1.624-1.2c.688-.283 1.459-.424 2.312-.424.965 0 1.779.157 2.44.472.667.309 1.176.731 1.528 1.264a3.16 3.16 0 0 1 .536 1.768h-2.336c-.043-.4-.165-.72-.368-.96a1.69 1.69 0 0 0-.784-.528c-.315-.112-.675-.168-1.08-.168-.699 0-1.208.141-1.528.424s-.48.611-.48.984c0 .352.12.637.36.856.245.213.637.376 1.176.488l2.008.432c.747.144 1.352.373 1.816.688.464.309.803.685 1.016 1.128a3.39 3.39 0 0 1 .32 1.488c0 .699-.2 1.315-.6 1.848-.395.528-.941.941-1.64 1.24s-1.504.448-2.416.448zm6.446-.16v-11.888h2.32v4.808c.133-.192.301-.381.504-.568s.456-.352.76-.48.675-.192 1.112-.192c.528 0 1.008.104 1.44.312s.787.499 1.048.888c.267.389.4.864.4 1.424v5.696h-2.344v-5.352c0-.373-.136-.659-.408-.856-.267-.203-.592-.304-.976-.304-.251 0-.493.045-.728.136s-.427.229-.576.416c-.144.181-.216.408-.216.68v5.28h-2.336zm11.878.16c-.523 0-.997-.099-1.424-.296-.421-.197-.755-.483-1-.856-.245-.379-.368-.837-.368-1.376 0-.907.339-1.595 1.016-2.064.677-.475 1.747-.72 3.208-.736l1.04-.016v-.496c0-.379-.112-.669-.336-.872s-.563-.309-1.032-.304a2.21 2.21 0 0 0-.968.24c-.304.155-.515.424-.632.808h-1.944c.032-.597.205-1.088.52-1.472.32-.389.749-.677 1.288-.864s1.155-.288 1.848-.288c.843 0 1.52.107 2.032.32s.883.509 1.112.904c.235.389.352.853.352 1.392v5.816h-1.952l-.192-1.424c-.283.597-.637 1.011-1.064 1.24-.421.229-.923.344-1.504.344zm.792-1.536c.208 0 .411-.037.608-.112a2.09 2.09 0 0 0 .544-.312c.16-.133.285-.283.376-.448a1.07 1.07 0 0 0 .152-.512v-1.224l-.84.016c-.389.005-.752.053-1.088.144-.336.085-.608.227-.816.424-.203.197-.304.464-.304.8 0 .384.131.685.392.904.267.213.592.32.976.32zm5.814 1.376v-8.272h2.249v1.96c.133-.421.32-.789.56-1.104s.541-.568.888-.744c.346-.181.738-.272 1.176-.272.074 0 .144.005.208.016a.43.43 0 0 1 .152.032v2.224c-.048-.021-.107-.035-.176-.04l-.176-.016c-.459-.037-.851-.024-1.177.04s-.589.173-.791.328a1.34 1.34 0 0 0-.44.568c-.09.224-.136.475-.136.752v4.528h-2.337zm10.379.16c-.822 0-1.544-.171-2.168-.512-.619-.347-1.102-.835-1.448-1.464s-.52-1.371-.52-2.224c0-.827.157-1.571.472-2.232.32-.667.778-1.192 1.376-1.576s1.32-.584 2.168-.584c.842 0 1.549.179 2.12.536s1.002.845 1.296 1.48c.293.629.44 1.357.44 2.184v.632h-5.56c0 .421.069.789.208 1.104.138.309.338.549.6.72.266.165.586.248.96.248.4 0 .749-.085 1.048-.256s.509-.451.632-.84h2.104c-.096.587-.331 1.088-.704 1.504s-.827.733-1.36.952a4.34 4.34 0 0 1-1.664.328zm-1.824-5.152h3.376c0-.331-.064-.635-.192-.912a1.47 1.47 0 0 0-.56-.656c-.246-.16-.555-.24-.928-.24-.358 0-.664.088-.92.264a1.73 1.73 0 0 0-.584.672 1.89 1.89 0 0 0-.192.872zM542 158.02h45.365v1.12H542v-1.12z" fill="#012e5d"/><defs ><path id="B" d="M10 145.312c.311 0 .563.252.563.563s-.252.563-.562.563-.562-.252-.562-.563.252-.563.563-.563z"/></defs></svg>