<svg width="588" height="160" viewBox="0 0 588 160" fill="none" xmlns="http://www.w3.org/2000/svg">
<path d="M1.75 21V6.54H5.23L9.02 17.59L12.85 6.54H16.31V21H13.84V9.66L10.03 21H8L4.22 9.73V21H1.75ZM22.3778 21.2C20.3878 21.2 18.9278 20.08 18.9278 18.12C18.9278 15.84 20.4978 14.69 24.0978 14.63L25.6478 14.59V13.89C25.6478 12.8 25.0078 12.14 23.6578 12.15C22.6478 12.17 21.7278 12.59 21.4578 13.66H19.3878C19.4978 11.53 21.2178 10.46 23.7678 10.46C26.7178 10.46 27.9878 11.67 27.9878 13.75V21H25.9378L25.7378 19.14C24.9878 20.69 23.8378 21.2 22.3778 21.2ZM23.1678 19.55C24.3678 19.55 25.6378 18.58 25.6478 17.57V15.94L24.3778 15.96C22.4978 15.98 21.2478 16.49 21.2478 17.87C21.2478 18.93 22.0678 19.55 23.1678 19.55ZM34.3792 21.2C32.3692 21.19 30.4292 20.01 30.4292 17.75V10.66H32.8692V17.47C32.8692 18.6 33.5792 19.39 35.0192 19.39C36.3292 19.39 37.1792 18.68 37.1792 17.39V10.66H39.5992V21H37.7292L37.4592 18.98C37.0792 20.68 35.7092 21.21 34.3792 21.2ZM42.4542 21V10.66H44.7842V12.9C45.2842 11.36 46.4842 10.46 47.9642 10.46C48.2042 10.46 48.4442 10.49 48.5642 10.55V12.88C48.4142 12.82 48.1442 12.79 47.9742 12.79C45.9742 12.63 44.8842 13.45 44.8842 14.99V21H42.4542ZM52.9111 6.55V8.85H50.5011V6.55H52.9111ZM52.8711 10.66V21H50.5411V10.66H52.8711ZM59.6173 21.2C57.4573 21.2 55.4673 20.2 55.1273 17.86H57.2673C57.5373 19.01 58.5673 19.48 59.6073 19.48C60.8473 19.48 61.6773 19.06 61.6773 18.17C61.6773 17.52 61.2773 17.15 60.3373 16.95L58.3773 16.5C56.6173 16.11 55.4773 15.28 55.4673 13.65C55.4573 11.81 56.8873 10.46 59.6173 10.46C62.0273 10.46 63.5973 11.57 63.6473 13.56H61.5773C61.4273 12.67 60.7073 12.14 59.5973 12.14C58.4473 12.14 57.6373 12.58 57.6373 13.48C57.6373 14.11 58.1873 14.44 59.3173 14.68L61.1773 15.13C63.2973 15.66 63.7973 17.06 63.7973 18.03C63.7973 20.03 62.1673 21.2 59.6173 21.2ZM74.2044 21.2C71.4644 21.2 69.8144 19.25 69.8144 15.78C69.8144 12.55 71.2544 10.46 73.9844 10.46C75.6844 10.46 76.8044 11.38 77.2244 12.17V6.14H79.6744V21H77.8744L77.6044 18.88C77.2844 19.87 76.4144 21.2 74.2044 21.2ZM74.7044 19.41C76.4544 19.41 77.2244 18.36 77.2244 15.72C77.2044 13.47 76.4544 12.27 74.7344 12.27C73.2644 12.27 72.2244 13.28 72.2244 15.72C72.2244 18.15 73.1244 19.41 74.7044 19.41ZM86.7552 21.2C83.7952 21.2 81.8652 19.23 81.8652 15.88C81.8652 12.63 83.6952 10.46 86.7652 10.46C89.7252 10.46 91.6152 12.49 91.6152 15.88C91.6152 19.02 89.8752 21.2 86.7552 21.2ZM86.7652 19.35C88.4352 19.35 89.2352 17.86 89.2352 15.81C89.2352 13.91 88.5752 12.29 86.7652 12.29C85.0652 12.29 84.2652 13.73 84.2652 15.81C84.2652 17.68 84.9252 19.35 86.7652 19.35ZM96.8209 21.15C94.1409 21.15 93.8409 19.68 93.8409 18.21V6.14H96.2209V17.93C96.2209 18.83 96.5709 19.33 97.3909 19.4L97.9109 19.42V20.95C97.5509 21.07 97.1509 21.15 96.8209 21.15ZM103.962 21.2C101.002 21.2 99.0722 19.23 99.0722 15.88C99.0722 12.63 100.902 10.46 103.972 10.46C106.932 10.46 108.822 12.49 108.822 15.88C108.822 19.02 107.082 21.2 103.962 21.2ZM103.972 19.35C105.642 19.35 106.442 17.86 106.442 15.81C106.442 13.91 105.782 12.29 103.972 12.29C102.272 12.29 101.472 13.73 101.472 15.81C101.472 17.68 102.132 19.35 103.972 19.35ZM111.048 21V10.66H113.378V12.9C113.878 11.36 115.078 10.46 116.558 10.46C116.798 10.46 117.038 10.49 117.158 10.55V12.88C117.008 12.82 116.738 12.79 116.568 12.79C114.568 12.63 113.478 13.45 113.478 14.99V21H111.048ZM127.408 21.2C124.668 21.2 123.018 19.25 123.018 15.78C123.018 12.55 124.458 10.46 127.188 10.46C128.888 10.46 130.008 11.38 130.428 12.17V6.14H132.878V21H131.078L130.808 18.88C130.488 19.87 129.618 21.2 127.408 21.2ZM127.908 19.41C129.658 19.41 130.428 18.36 130.428 15.72C130.408 13.47 129.658 12.27 127.938 12.27C126.468 12.27 125.428 13.28 125.428 15.72C125.428 18.15 126.328 19.41 127.908 19.41ZM139.958 21.2C136.998 21.2 135.068 19.23 135.068 15.88C135.068 12.63 136.898 10.46 139.968 10.46C142.928 10.46 144.818 12.49 144.818 15.88C144.818 19.02 143.078 21.2 139.958 21.2ZM139.968 19.35C141.638 19.35 142.438 17.86 142.438 15.81C142.438 13.91 141.778 12.29 139.968 12.29C138.268 12.29 137.468 13.73 137.468 15.81C137.468 17.68 138.128 19.35 139.968 19.35ZM150.024 21.15C147.344 21.15 147.044 19.68 147.044 18.21V6.14H149.424V17.93C149.424 18.83 149.774 19.33 150.594 19.4L151.114 19.42V20.95C150.754 21.07 150.354 21.15 150.024 21.15ZM157.165 21.2C154.205 21.2 152.275 19.23 152.275 15.88C152.275 12.63 154.105 10.46 157.175 10.46C160.135 10.46 162.025 12.49 162.025 15.88C162.025 19.02 160.285 21.2 157.165 21.2ZM157.175 19.35C158.845 19.35 159.645 17.86 159.645 15.81C159.645 13.91 158.985 12.29 157.175 12.29C155.475 12.29 154.675 13.73 154.675 15.81C154.675 17.68 155.335 19.35 157.175 19.35ZM164.251 21V10.66H166.581V12.9C167.081 11.36 168.281 10.46 169.761 10.46C170.001 10.46 170.241 10.49 170.361 10.55V12.88C170.211 12.82 169.941 12.79 169.771 12.79C167.771 12.63 166.681 13.45 166.681 14.99V21H164.251ZM170.598 23.67L171.738 21.06L170.788 20.99V18.44H173.448V20.67L171.578 23.67H170.598ZM186.873 10.66V12.38H184.543V21H182.113V12.38H180.073V10.66H182.113V9.12C182.113 7.47 183.043 6.54 184.783 6.54H186.963L186.973 8.2H185.533C184.743 8.2 184.503 8.59 184.503 9.46V10.66H186.873ZM188.782 21V10.66H191.112V12.9C191.612 11.36 192.812 10.46 194.292 10.46C194.532 10.46 194.772 10.49 194.892 10.55V12.88C194.742 12.82 194.472 12.79 194.302 12.79C192.302 12.63 191.212 13.45 191.212 14.99V21H188.782ZM199.239 6.55V8.85H196.829V6.55H199.239ZM199.199 10.66V21H196.869V10.66H199.199ZM202.083 21V10.66H204.463V12.14C204.943 11.34 205.923 10.54 207.573 10.54C209.483 10.54 211.193 11.63 211.193 14.2V21H208.753V14.49C208.753 13.14 207.913 12.48 206.783 12.48C205.613 12.48 204.513 13.07 204.513 14.25V21H202.083ZM218.402 24.42C214.922 24.42 212.992 23.42 212.992 21.8C212.992 20.35 214.752 19.86 214.982 19.71C214.642 19.52 213.802 19.18 213.802 18.28C213.802 17.58 214.452 16.94 215.782 16.69C214.482 16.06 213.772 14.92 213.772 13.76C213.772 11.72 215.682 10.5 218.492 10.5C219.872 10.5 220.702 10.83 221.482 11.35C222.012 11.14 223.612 10.49 224.332 10.19L224.322 12.2L222.532 12.52C222.702 12.91 222.812 13.4 222.812 13.75C222.812 15.56 221.292 17.1 218.292 17.1C218.082 17.1 217.672 17.09 217.462 17.07C216.382 17.11 216.052 17.35 216.052 17.61C216.052 17.97 216.622 18.04 217.942 18.13C218.412 18.16 219.202 18.2 220.132 18.26C222.492 18.41 223.722 19.51 223.722 21.15C223.722 23.06 221.972 24.42 218.402 24.42ZM218.372 15.67C219.642 15.67 220.502 15 220.502 13.81C220.502 12.59 219.642 11.86 218.372 11.86C217.072 11.86 216.212 12.6 216.212 13.81C216.212 14.97 217.012 15.67 218.372 15.67ZM218.812 22.99C220.562 22.99 221.382 22.5 221.382 21.57C221.382 20.86 220.802 20.37 219.672 20.29L217.062 20.13C216.202 20.08 215.382 20.73 215.382 21.51C215.382 22.49 216.472 22.99 218.812 22.99ZM228.731 6.55V8.85H226.321V6.55H228.731ZM228.691 10.66V21H226.361V10.66H228.691ZM234.555 21.15C231.875 21.15 231.575 19.68 231.575 18.21V6.14H233.955V17.93C233.955 18.83 234.305 19.33 235.125 19.4L235.645 19.42V20.95C235.285 21.07 234.885 21.15 234.555 21.15ZM240.61 21.15C237.93 21.15 237.63 19.68 237.63 18.21V6.14H240.01V17.93C240.01 18.83 240.36 19.33 241.18 19.4L241.7 19.42V20.95C241.34 21.07 240.94 21.15 240.61 21.15ZM246.87 21.2C244.88 21.2 243.42 20.08 243.42 18.12C243.42 15.84 244.99 14.69 248.59 14.63L250.14 14.59V13.89C250.14 12.8 249.5 12.14 248.15 12.15C247.14 12.17 246.22 12.59 245.95 13.66H243.88C243.99 11.53 245.71 10.46 248.26 10.46C251.21 10.46 252.48 11.67 252.48 13.75V21H250.43L250.23 19.14C249.48 20.69 248.33 21.2 246.87 21.2ZM247.66 19.55C248.86 19.55 250.13 18.58 250.14 17.57V15.94L248.87 15.96C246.99 15.98 245.74 16.49 245.74 17.87C245.74 18.93 246.56 19.55 247.66 19.55ZM263.539 21.2C261.529 21.19 259.589 20.01 259.589 17.75V10.66H262.029V17.47C262.029 18.6 262.739 19.39 264.179 19.39C265.489 19.39 266.339 18.68 266.339 17.39V10.66H268.759V21H266.889L266.619 18.98C266.239 20.68 264.869 21.21 263.539 21.2ZM277.307 12.38H274.997L275.007 18.31C275.007 19.23 275.287 19.33 276.077 19.33H277.357V20.87C277.077 20.98 276.557 21.08 275.667 21.08C273.207 21.08 272.567 20.06 272.567 18.4V12.38H270.887V10.66H272.637L273.247 7.59H274.997V10.65H277.307V12.38ZM284.271 21V10.66H286.641V12.14C287.231 11.23 288.231 10.46 289.841 10.46C290.931 10.46 292.201 11.04 292.781 12.13C293.441 11.16 294.561 10.46 295.921 10.46C297.421 10.46 299.291 11.29 299.291 14.2V21H296.861V14.49C296.861 12.95 295.931 12.47 294.991 12.47C294.131 12.47 292.981 12.93 292.981 14.25V21H290.551V14.1C290.551 13.03 289.561 12.47 288.701 12.47C287.791 12.47 286.701 13.02 286.701 14.25V21H284.271ZM304.839 21.2C302.849 21.2 301.389 20.08 301.389 18.12C301.389 15.84 302.959 14.69 306.559 14.63L308.109 14.59V13.89C308.109 12.8 307.469 12.14 306.119 12.15C305.109 12.17 304.189 12.59 303.919 13.66H301.849C301.959 11.53 303.679 10.46 306.229 10.46C309.179 10.46 310.449 11.67 310.449 13.75V21H308.399L308.199 19.14C307.449 20.69 306.299 21.2 304.839 21.2ZM305.629 19.55C306.829 19.55 308.099 18.58 308.109 17.57V15.94L306.839 15.96C304.959 15.98 303.709 16.49 303.709 17.87C303.709 18.93 304.529 19.55 305.629 19.55ZM316.903 21.2C314.743 21.2 312.753 20.2 312.413 17.86H314.553C314.823 19.01 315.853 19.48 316.893 19.48C318.133 19.48 318.963 19.06 318.963 18.17C318.963 17.52 318.563 17.15 317.623 16.95L315.663 16.5C313.903 16.11 312.763 15.28 312.753 13.65C312.743 11.81 314.173 10.46 316.903 10.46C319.313 10.46 320.883 11.57 320.933 13.56H318.863C318.713 12.67 317.993 12.14 316.883 12.14C315.733 12.14 314.923 12.58 314.923 13.48C314.923 14.11 315.473 14.44 316.603 14.68L318.463 15.13C320.583 15.66 321.083 17.06 321.083 18.03C321.083 20.03 319.453 21.2 316.903 21.2ZM327.195 21.2C325.035 21.2 323.045 20.2 322.705 17.86H324.845C325.115 19.01 326.145 19.48 327.185 19.48C328.425 19.48 329.255 19.06 329.255 18.17C329.255 17.52 328.855 17.15 327.915 16.95L325.955 16.5C324.195 16.11 323.055 15.28 323.045 13.65C323.035 11.81 324.465 10.46 327.195 10.46C329.605 10.46 331.175 11.57 331.225 13.56H329.155C329.005 12.67 328.285 12.14 327.175 12.14C326.025 12.14 325.215 12.58 325.215 13.48C325.215 14.11 325.765 14.44 326.895 14.68L328.755 15.13C330.875 15.66 331.375 17.06 331.375 18.03C331.375 20.03 329.745 21.2 327.195 21.2ZM336.636 21.2C334.646 21.2 333.186 20.08 333.186 18.12C333.186 15.84 334.756 14.69 338.356 14.63L339.906 14.59V13.89C339.906 12.8 339.266 12.14 337.916 12.15C336.906 12.17 335.986 12.59 335.716 13.66H333.646C333.756 11.53 335.476 10.46 338.026 10.46C340.976 10.46 342.246 11.67 342.246 13.75V21H340.196L339.996 19.14C339.246 20.69 338.096 21.2 336.636 21.2ZM337.426 19.55C338.626 19.55 339.896 18.58 339.906 17.57V15.94L338.636 15.96C336.756 15.98 335.506 16.49 335.506 17.87C335.506 18.93 336.326 19.55 337.426 19.55ZM351.915 6.55V8.85H349.505V6.55H351.915ZM351.875 10.66V21H349.545V10.66H351.875ZM354.759 21V10.66H357.139V12.14C357.619 11.34 358.599 10.54 360.249 10.54C362.159 10.54 363.869 11.63 363.869 14.2V21H361.429V14.49C361.429 13.14 360.589 12.48 359.459 12.48C358.289 12.48 357.189 13.07 357.189 14.25V21H354.759ZM366.008 23.67L367.148 21.06L366.198 20.99V18.44H368.858V20.67L366.988 23.67H366.008ZM380.063 21.2C378.053 21.19 376.113 20.01 376.113 17.75V10.66H378.553V17.47C378.553 18.6 379.263 19.39 380.703 19.39C382.013 19.39 382.863 18.68 382.863 17.39V10.66H385.283V21H383.413L383.143 18.98C382.763 20.68 381.393 21.21 380.063 21.2ZM391.118 21.15C388.438 21.15 388.138 19.68 388.138 18.21V6.14H390.518V17.93C390.518 18.83 390.868 19.33 391.688 19.4L392.208 19.42V20.95C391.848 21.07 391.448 21.15 391.118 21.15ZM399.533 12.38H397.223L397.233 18.31C397.233 19.23 397.513 19.33 398.303 19.33H399.583V20.87C399.303 20.98 398.783 21.08 397.893 21.08C395.433 21.08 394.793 20.06 394.793 18.4V12.38H393.113V10.66H394.863L395.473 7.59H397.223V10.65H399.533V12.38ZM401.829 21V10.66H404.159V12.9C404.659 11.36 405.859 10.46 407.339 10.46C407.579 10.46 407.819 10.49 407.939 10.55V12.88C407.789 12.82 407.519 12.79 407.349 12.79C405.349 12.63 404.259 13.45 404.259 14.99V21H401.829ZM412.286 6.55V8.85H409.876V6.55H412.286ZM412.246 10.66V21H409.916V10.66H412.246ZM419.372 10.46C421.792 10.46 423.422 12.03 423.642 14.2H421.572C421.412 13.26 420.692 12.35 419.392 12.35C417.842 12.35 416.782 13.49 416.782 15.85C416.782 18.04 417.732 19.43 419.432 19.43C420.722 19.43 421.442 18.44 421.592 17.58H423.612C423.422 19.69 421.752 21.2 419.372 21.2C416.532 21.2 414.482 19.26 414.482 15.87C414.482 12.66 416.342 10.46 419.372 10.46ZM427.862 16.39C427.852 18.15 428.742 19.4 430.412 19.4C431.562 19.4 432.472 18.9 432.752 17.84H434.972C434.612 20 432.552 21.2 430.462 21.2C427.472 21.2 425.432 19.19 425.432 15.94C425.432 12.77 427.222 10.46 430.322 10.46C433.372 10.46 435.012 12.53 435.012 15.65V16.39H427.862ZM427.852 14.88H432.712C432.712 13.38 431.932 12.21 430.312 12.21C428.702 12.21 427.852 13.55 427.852 14.88ZM441.238 21.2C439.078 21.2 437.088 20.2 436.748 17.86H438.888C439.158 19.01 440.188 19.48 441.228 19.48C442.468 19.48 443.298 19.06 443.298 18.17C443.298 17.52 442.898 17.15 441.958 16.95L439.998 16.5C438.238 16.11 437.098 15.28 437.088 13.65C437.078 11.81 438.508 10.46 441.238 10.46C443.648 10.46 445.218 11.57 445.268 13.56H443.198C443.048 12.67 442.328 12.14 441.218 12.14C440.068 12.14 439.258 12.58 439.258 13.48C439.258 14.11 439.808 14.44 440.938 14.68L442.798 15.13C444.918 15.66 445.418 17.06 445.418 18.03C445.418 20.03 443.788 21.2 441.238 21.2ZM456.781 24.42C453.301 24.42 451.371 23.42 451.371 21.8C451.371 20.35 453.131 19.86 453.361 19.71C453.021 19.52 452.181 19.18 452.181 18.28C452.181 17.58 452.831 16.94 454.161 16.69C452.861 16.06 452.151 14.92 452.151 13.76C452.151 11.72 454.061 10.5 456.871 10.5C458.251 10.5 459.081 10.83 459.861 11.35C460.391 11.14 461.991 10.49 462.711 10.19L462.701 12.2L460.911 12.52C461.081 12.91 461.191 13.4 461.191 13.75C461.191 15.56 459.671 17.1 456.671 17.1C456.461 17.1 456.051 17.09 455.841 17.07C454.761 17.11 454.431 17.35 454.431 17.61C454.431 17.97 455.001 18.04 456.321 18.13C456.791 18.16 457.581 18.2 458.511 18.26C460.871 18.41 462.101 19.51 462.101 21.15C462.101 23.06 460.351 24.42 456.781 24.42ZM456.751 15.67C458.021 15.67 458.881 15 458.881 13.81C458.881 12.59 458.021 11.86 456.751 11.86C455.451 11.86 454.591 12.6 454.591 13.81C454.591 14.97 455.391 15.67 456.751 15.67ZM457.191 22.99C458.941 22.99 459.761 22.5 459.761 21.57C459.761 20.86 459.181 20.37 458.051 20.29L455.441 20.13C454.581 20.08 453.761 20.73 453.761 21.51C453.761 22.49 454.851 22.99 457.191 22.99ZM464.7 21V10.66H467.03V12.9C467.53 11.36 468.73 10.46 470.21 10.46C470.45 10.46 470.69 10.49 470.81 10.55V12.88C470.66 12.82 470.39 12.79 470.22 12.79C468.22 12.63 467.13 13.45 467.13 14.99V21H464.7ZM475.444 21.2C473.454 21.2 471.994 20.08 471.994 18.12C471.994 15.84 473.564 14.69 477.164 14.63L478.714 14.59V13.89C478.714 12.8 478.074 12.14 476.724 12.15C475.714 12.17 474.794 12.59 474.524 13.66H472.454C472.564 11.53 474.284 10.46 476.834 10.46C479.784 10.46 481.054 11.67 481.054 13.75V21H479.004L478.804 19.14C478.054 20.69 476.904 21.2 475.444 21.2ZM476.234 19.55C477.434 19.55 478.704 18.58 478.714 17.57V15.94L477.444 15.96C475.564 15.98 474.314 16.49 474.314 17.87C474.314 18.93 475.134 19.55 476.234 19.55ZM491.824 10.66L488.014 21H486.094L482.274 10.66H484.504L486.984 17.9H487.114L489.584 10.66H491.824ZM495.958 6.55V8.85H493.548V6.55H495.958ZM495.918 10.66V21H493.588V10.66H495.918ZM502.544 21.2C499.804 21.2 498.154 19.25 498.154 15.78C498.154 12.55 499.594 10.46 502.324 10.46C504.024 10.46 505.144 11.38 505.564 12.17V6.14H508.014V21H506.214L505.944 18.88C505.624 19.87 504.754 21.2 502.544 21.2ZM503.044 19.41C504.794 19.41 505.564 18.36 505.564 15.72C505.544 13.47 504.794 12.27 503.074 12.27C501.604 12.27 500.564 13.28 500.564 15.72C500.564 18.15 501.464 19.41 503.044 19.41ZM513.745 21.2C511.755 21.2 510.295 20.08 510.295 18.12C510.295 15.84 511.865 14.69 515.465 14.63L517.015 14.59V13.89C517.015 12.8 516.375 12.14 515.025 12.15C514.015 12.17 513.095 12.59 512.825 13.66H510.755C510.865 11.53 512.585 10.46 515.135 10.46C518.085 10.46 519.355 11.67 519.355 13.75V21H517.305L517.105 19.14C516.355 20.69 515.205 21.2 513.745 21.2ZM514.535 19.55C515.735 19.55 517.005 18.58 517.015 17.57V15.94L515.745 15.96C513.865 15.98 512.615 16.49 512.615 17.87C512.615 18.93 513.435 19.55 514.535 19.55ZM530.759 21.2C527.799 21.2 525.869 19.23 525.869 15.88C525.869 12.63 527.699 10.46 530.769 10.46C533.729 10.46 535.619 12.49 535.619 15.88C535.619 19.02 533.879 21.2 530.759 21.2ZM530.769 19.35C532.439 19.35 533.239 17.86 533.239 15.81C533.239 13.91 532.579 12.29 530.769 12.29C529.069 12.29 528.269 13.73 528.269 15.81C528.269 17.68 528.929 19.35 530.769 19.35ZM541.685 21.2C538.945 21.2 537.295 19.25 537.295 15.78C537.295 12.55 538.735 10.46 541.465 10.46C543.165 10.46 544.285 11.38 544.705 12.17V6.14H547.155V21H545.355L545.085 18.88C544.765 19.87 543.895 21.2 541.685 21.2ZM542.185 19.41C543.935 19.41 544.705 18.36 544.705 15.72C544.685 13.47 543.935 12.27 542.215 12.27C540.745 12.27 539.705 13.28 539.705 15.72C539.705 18.15 540.605 19.41 542.185 19.41ZM552.403 6.55V8.85H549.993V6.55H552.403ZM552.363 10.66V21H550.033V10.66H552.363ZM559.49 21.2C556.53 21.2 554.6 19.23 554.6 15.88C554.6 12.63 556.43 10.46 559.5 10.46C562.46 10.46 564.35 12.49 564.35 15.88C564.35 19.02 562.61 21.2 559.49 21.2ZM559.5 19.35C561.17 19.35 561.97 17.86 561.97 15.81C561.97 13.91 561.31 12.29 559.5 12.29C557.8 12.29 557 13.73 557 15.81C557 17.68 557.66 19.35 559.5 19.35ZM566.235 21V18.2H568.985V21H566.235ZM13.37 34.54L8.3 49H5.48L0.42 34.54H2.77L6.89 46.2L11.01 34.54H13.37ZM16.1234 44.39C16.1134 46.15 17.0034 47.4 18.6734 47.4C19.8234 47.4 20.7334 46.9 21.0134 45.84H23.2334C22.8734 48 20.8134 49.2 18.7234 49.2C15.7334 49.2 13.6934 47.19 13.6934 43.94C13.6934 40.77 15.4834 38.46 18.5834 38.46C21.6334 38.46 23.2734 40.53 23.2734 43.65V44.39H16.1234ZM16.1134 42.88H20.9734C20.9734 41.38 20.1934 40.21 18.5734 40.21C16.9634 40.21 16.1134 41.55 16.1134 42.88ZM29.5002 49.2C27.3402 49.2 25.3502 48.2 25.0102 45.86H27.1502C27.4202 47.01 28.4502 47.48 29.4902 47.48C30.7302 47.48 31.5602 47.06 31.5602 46.17C31.5602 45.52 31.1602 45.15 30.2202 44.95L28.2602 44.5C26.5002 44.11 25.3602 43.28 25.3502 41.65C25.3402 39.81 26.7702 38.46 29.5002 38.46C31.9102 38.46 33.4802 39.57 33.5302 41.56H31.4602C31.3102 40.67 30.5902 40.14 29.4802 40.14C28.3302 40.14 27.5202 40.58 27.5202 41.48C27.5202 42.11 28.0702 42.44 29.2002 42.68L31.0602 43.13C33.1802 43.66 33.6802 45.06 33.6802 46.03C33.6802 48.03 32.0502 49.2 29.5002 49.2ZM41.545 40.38H39.235L39.245 46.31C39.245 47.23 39.525 47.33 40.315 47.33H41.595V48.87C41.315 48.98 40.795 49.08 39.905 49.08C37.445 49.08 36.805 48.06 36.805 46.4V40.38H35.125V38.66H36.875L37.485 35.59H39.235V38.65H41.545V40.38ZM46.2509 34.55V36.85H43.8409V34.55H46.2509ZM46.2109 38.66V49H43.8809V38.66H46.2109ZM54.5548 49.2C52.3448 49.2 51.4848 47.87 51.1648 46.88L50.8848 49H49.0948V34.14H51.5348V40.17C51.9648 39.38 53.0748 38.46 54.7748 38.46C57.3448 38.46 58.9448 40.35 58.9448 43.78C58.9448 47.05 57.4548 49.2 54.5548 49.2ZM54.0548 47.41C55.5048 47.41 56.5448 46.33 56.5448 43.72C56.5448 41.45 55.6248 40.27 54.0248 40.27C52.3048 40.27 51.5548 41.47 51.5348 43.72C51.5348 46.36 52.3048 47.41 54.0548 47.41ZM64.887 49.2C62.877 49.19 60.937 48.01 60.937 45.75V38.66H63.377V45.47C63.377 46.6 64.087 47.39 65.527 47.39C66.837 47.39 67.687 46.68 67.687 45.39V38.66H70.107V49H68.237L67.967 46.98C67.587 48.68 66.217 49.21 64.887 49.2ZM75.942 49.15C73.262 49.15 72.962 47.68 72.962 46.21V34.14H75.342V45.93C75.342 46.83 75.692 47.33 76.512 47.4L77.032 47.42V48.95C76.672 49.07 76.272 49.15 75.942 49.15ZM82.8753 49.2C80.8653 49.19 78.9253 48.01 78.9253 45.75V38.66H81.3653V45.47C81.3653 46.6 82.0753 47.39 83.5153 47.39C84.8253 47.39 85.6753 46.68 85.6753 45.39V38.66H88.0953V49H86.2253L85.9553 46.98C85.5753 48.68 84.2053 49.21 82.8753 49.2ZM90.9503 49V38.66H93.3203V40.14C93.9103 39.23 94.9103 38.46 96.5203 38.46C97.6103 38.46 98.8803 39.04 99.4603 40.13C100.12 39.16 101.24 38.46 102.6 38.46C104.1 38.46 105.97 39.29 105.97 42.2V49H103.54V42.49C103.54 40.95 102.61 40.47 101.67 40.47C100.81 40.47 99.6603 40.93 99.6603 42.25V49H97.2303V42.1C97.2303 41.03 96.2403 40.47 95.3803 40.47C94.4703 40.47 93.3803 41.02 93.3803 42.25V49H90.9503ZM119.045 40.38H116.735L116.745 46.31C116.745 47.23 117.025 47.33 117.815 47.33H119.095V48.87C118.815 48.98 118.295 49.08 117.405 49.08C114.945 49.08 114.305 48.06 114.305 46.4V40.38H112.625V38.66H114.375L114.985 35.59H116.735V38.65H119.045V40.38ZM121.341 49V38.66H123.671V40.9C124.171 39.36 125.371 38.46 126.851 38.46C127.091 38.46 127.331 38.49 127.451 38.55V40.88C127.301 40.82 127.031 40.79 126.861 40.79C124.861 40.63 123.771 41.45 123.771 42.99V49H121.341ZM131.798 34.55V36.85H129.388V34.55H131.798ZM131.758 38.66V49H129.428V38.66H131.758ZM138.504 49.2C136.344 49.2 134.354 48.2 134.014 45.86H136.154C136.424 47.01 137.454 47.48 138.494 47.48C139.734 47.48 140.564 47.06 140.564 46.17C140.564 45.52 140.164 45.15 139.224 44.95L137.264 44.5C135.504 44.11 134.364 43.28 134.354 41.65C134.344 39.81 135.774 38.46 138.504 38.46C140.914 38.46 142.484 39.57 142.534 41.56H140.464C140.314 40.67 139.594 40.14 138.484 40.14C137.334 40.14 136.524 40.58 136.524 41.48C136.524 42.11 137.074 42.44 138.204 42.68L140.064 43.13C142.184 43.66 142.684 45.06 142.684 46.03C142.684 48.03 141.054 49.2 138.504 49.2ZM150.549 40.38H148.239L148.249 46.31C148.249 47.23 148.529 47.33 149.319 47.33H150.599V48.87C150.319 48.98 149.799 49.08 148.909 49.08C146.449 49.08 145.809 48.06 145.809 46.4V40.38H144.129V38.66H145.879L146.489 35.59H148.239V38.65H150.549V40.38ZM155.255 34.55V36.85H152.845V34.55H155.255ZM155.215 38.66V49H152.885V38.66H155.215ZM167.281 52.22H164.841V47.3C164.331 48.24 163.331 49.2 161.761 49.2C159.351 49.2 157.451 47.59 157.451 43.72C157.451 40.32 158.991 38.46 161.541 38.46C163.171 38.46 164.271 39.38 164.831 40.29L164.851 38.66H167.281V52.22ZM162.301 47.38C164.001 47.38 164.851 45.72 164.851 43.76C164.851 41.73 164.001 40.27 162.301 40.27C160.841 40.27 159.761 41.44 159.761 43.76C159.761 46.08 160.711 47.38 162.301 47.38ZM173.832 49.2C171.822 49.19 169.882 48.01 169.882 45.75V38.66H172.322V45.47C172.322 46.6 173.032 47.39 174.472 47.39C175.782 47.39 176.632 46.68 176.632 45.39V38.66H179.052V49H177.182L176.912 46.98C176.532 48.68 175.162 49.21 173.832 49.2ZM183.78 44.39C183.77 46.15 184.66 47.4 186.33 47.4C187.48 47.4 188.39 46.9 188.67 45.84H190.89C190.53 48 188.47 49.2 186.38 49.2C183.39 49.2 181.35 47.19 181.35 43.94C181.35 40.77 183.14 38.46 186.24 38.46C189.29 38.46 190.93 40.53 190.93 43.65V44.39H183.78ZM183.77 42.88H188.63C188.63 41.38 187.85 40.21 186.23 40.21C184.62 40.21 183.77 41.55 183.77 42.88ZM200.815 49.2C198.825 49.2 197.365 48.08 197.365 46.12C197.365 43.84 198.935 42.69 202.535 42.63L204.085 42.59V41.89C204.085 40.8 203.445 40.14 202.095 40.15C201.085 40.17 200.165 40.59 199.895 41.66H197.825C197.935 39.53 199.655 38.46 202.205 38.46C205.155 38.46 206.425 39.67 206.425 41.75V49H204.375L204.175 47.14C203.425 48.69 202.275 49.2 200.815 49.2ZM201.605 47.55C202.805 47.55 204.075 46.58 204.085 45.57V43.94L202.815 43.96C200.935 43.98 199.685 44.49 199.685 45.87C199.685 46.93 200.505 47.55 201.605 47.55ZM212.817 49.2C210.807 49.19 208.867 48.01 208.867 45.75V38.66H211.307V45.47C211.307 46.6 212.017 47.39 213.457 47.39C214.767 47.39 215.617 46.68 215.617 45.39V38.66H218.037V49H216.167L215.897 46.98C215.517 48.68 214.147 49.21 212.817 49.2ZM225.335 52.42C221.855 52.42 219.925 51.42 219.925 49.8C219.925 48.35 221.685 47.86 221.915 47.71C221.575 47.52 220.735 47.18 220.735 46.28C220.735 45.58 221.385 44.94 222.715 44.69C221.415 44.06 220.705 42.92 220.705 41.76C220.705 39.72 222.615 38.5 225.425 38.5C226.805 38.5 227.635 38.83 228.415 39.35C228.945 39.14 230.545 38.49 231.265 38.19L231.255 40.2L229.465 40.52C229.635 40.91 229.745 41.4 229.745 41.75C229.745 43.56 228.225 45.1 225.225 45.1C225.015 45.1 224.605 45.09 224.395 45.07C223.315 45.11 222.985 45.35 222.985 45.61C222.985 45.97 223.555 46.04 224.875 46.13C225.345 46.16 226.135 46.2 227.065 46.26C229.425 46.41 230.655 47.51 230.655 49.15C230.655 51.06 228.905 52.42 225.335 52.42ZM225.305 43.67C226.575 43.67 227.435 43 227.435 41.81C227.435 40.59 226.575 39.86 225.305 39.86C224.005 39.86 223.145 40.6 223.145 41.81C223.145 42.97 223.945 43.67 225.305 43.67ZM225.745 50.99C227.495 50.99 228.315 50.5 228.315 49.57C228.315 48.86 227.735 48.37 226.605 48.29L223.995 48.13C223.135 48.08 222.315 48.73 222.315 49.51C222.315 50.49 223.405 50.99 225.745 50.99ZM236.821 49.2C234.811 49.19 232.871 48.01 232.871 45.75V38.66H235.311V45.47C235.311 46.6 236.021 47.39 237.461 47.39C238.771 47.39 239.621 46.68 239.621 45.39V38.66H242.041V49H240.171L239.901 46.98C239.521 48.68 238.151 49.21 236.821 49.2ZM246.768 44.39C246.758 46.15 247.648 47.4 249.318 47.4C250.468 47.4 251.378 46.9 251.658 45.84H253.878C253.518 48 251.458 49.2 249.368 49.2C246.378 49.2 244.338 47.19 244.338 43.94C244.338 40.77 246.128 38.46 249.228 38.46C252.278 38.46 253.918 40.53 253.918 43.65V44.39H246.768ZM246.758 42.88H251.618C251.618 41.38 250.838 40.21 249.218 40.21C247.608 40.21 246.758 41.55 246.758 42.88ZM264.774 49.2C262.614 49.2 260.624 48.2 260.284 45.86H262.424C262.694 47.01 263.724 47.48 264.764 47.48C266.004 47.48 266.834 47.06 266.834 46.17C266.834 45.52 266.434 45.15 265.494 44.95L263.534 44.5C261.774 44.11 260.634 43.28 260.624 41.65C260.614 39.81 262.044 38.46 264.774 38.46C267.184 38.46 268.754 39.57 268.804 41.56H266.734C266.584 40.67 265.864 40.14 264.754 40.14C263.604 40.14 262.794 40.58 262.794 41.48C262.794 42.11 263.344 42.44 264.474 42.68L266.334 43.13C268.454 43.66 268.954 45.06 268.954 46.03C268.954 48.03 267.324 49.2 264.774 49.2ZM273.575 34.55V36.85H271.165V34.55H273.575ZM273.535 38.66V49H271.205V38.66H273.535ZM282.111 40.38H279.801L279.811 46.31C279.811 47.23 280.091 47.33 280.881 47.33H282.161V48.87C281.881 48.98 281.361 49.08 280.471 49.08C278.011 49.08 277.371 48.06 277.371 46.4V40.38H275.691V38.66H277.441L278.051 35.59H279.801V38.65H282.111V40.38ZM292.065 49.2C290.075 49.2 288.615 48.08 288.615 46.12C288.615 43.84 290.185 42.69 293.785 42.63L295.335 42.59V41.89C295.335 40.8 294.695 40.14 293.345 40.15C292.335 40.17 291.415 40.59 291.145 41.66H289.075C289.185 39.53 290.905 38.46 293.455 38.46C296.405 38.46 297.675 39.67 297.675 41.75V49H295.625L295.425 47.14C294.675 48.69 293.525 49.2 292.065 49.2ZM292.855 47.55C294.055 47.55 295.325 46.58 295.335 45.57V43.94L294.065 43.96C292.185 43.98 290.935 44.49 290.935 45.87C290.935 46.93 291.755 47.55 292.855 47.55ZM300.267 49V38.66H302.637V40.14C303.227 39.23 304.227 38.46 305.837 38.46C306.927 38.46 308.197 39.04 308.777 40.13C309.437 39.16 310.557 38.46 311.917 38.46C313.417 38.46 315.287 39.29 315.287 42.2V49H312.857V42.49C312.857 40.95 311.927 40.47 310.987 40.47C310.127 40.47 308.977 40.93 308.977 42.25V49H306.547V42.1C306.547 41.03 305.557 40.47 304.697 40.47C303.787 40.47 302.697 41.02 302.697 42.25V49H300.267ZM319.873 44.39C319.863 46.15 320.753 47.4 322.423 47.4C323.573 47.4 324.483 46.9 324.763 45.84H326.983C326.623 48 324.563 49.2 322.473 49.2C319.483 49.2 317.443 47.19 317.443 43.94C317.443 40.77 319.233 38.46 322.333 38.46C325.383 38.46 327.023 40.53 327.023 43.65V44.39H319.873ZM319.863 42.88H324.723C324.723 41.38 323.943 40.21 322.323 40.21C320.713 40.21 319.863 41.55 319.863 42.88ZM334.748 40.38H332.438L332.448 46.31C332.448 47.23 332.728 47.33 333.518 47.33H334.798V48.87C334.518 48.98 333.998 49.08 333.108 49.08C330.648 49.08 330.008 48.06 330.008 46.4V40.38H328.328V38.66H330.078L330.688 35.59H332.438V38.65H334.748V40.38ZM343.487 44.39C343.477 46.15 344.367 47.4 346.037 47.4C347.187 47.4 348.097 46.9 348.377 45.84H350.597C350.237 48 348.177 49.2 346.087 49.2C343.097 49.2 341.057 47.19 341.057 43.94C341.057 40.77 342.847 38.46 345.947 38.46C348.997 38.46 350.637 40.53 350.637 43.65V44.39H343.487ZM343.477 42.88H348.337C348.337 41.38 347.557 40.21 345.937 40.21C344.327 40.21 343.477 41.55 343.477 42.88ZM356.863 49.2C354.703 49.2 352.713 48.2 352.373 45.86H354.513C354.783 47.01 355.813 47.48 356.853 47.48C358.093 47.48 358.923 47.06 358.923 46.17C358.923 45.52 358.523 45.15 357.583 44.95L355.623 44.5C353.863 44.11 352.723 43.28 352.713 41.65C352.703 39.81 354.133 38.46 356.863 38.46C359.273 38.46 360.843 39.57 360.893 41.56H358.823C358.673 40.67 357.953 40.14 356.843 40.14C355.693 40.14 354.883 40.58 354.883 41.48C354.883 42.11 355.433 42.44 356.563 42.68L358.423 43.13C360.543 43.66 361.043 45.06 361.043 46.03C361.043 48.03 359.413 49.2 356.863 49.2ZM368.908 40.38H366.598L366.608 46.31C366.608 47.23 366.888 47.33 367.678 47.33H368.958V48.87C368.678 48.98 368.158 49.08 367.268 49.08C364.808 49.08 364.168 48.06 364.168 46.4V40.38H362.488V38.66H364.238L364.848 35.59H366.598V38.65H368.908V40.38ZM380.017 38.46C382.437 38.46 384.067 40.03 384.287 42.2H382.217C382.057 41.26 381.337 40.35 380.037 40.35C378.487 40.35 377.427 41.49 377.427 43.85C377.427 46.04 378.377 47.43 380.077 47.43C381.367 47.43 382.087 46.44 382.237 45.58H384.257C384.067 47.69 382.397 49.2 380.017 49.2C377.177 49.2 375.127 47.26 375.127 43.87C375.127 40.66 376.987 38.46 380.017 38.46ZM390.336 49.2C388.326 49.19 386.386 48.01 386.386 45.75V38.66H388.826V45.47C388.826 46.6 389.536 47.39 390.976 47.39C392.286 47.39 393.136 46.68 393.136 45.39V38.66H395.556V49H393.686L393.416 46.98C393.036 48.68 391.666 49.21 390.336 49.2ZM398.411 49V38.66H400.741V40.9C401.241 39.36 402.441 38.46 403.921 38.46C404.161 38.46 404.401 38.49 404.521 38.55V40.88C404.371 40.82 404.101 40.79 403.931 40.79C401.931 40.63 400.841 41.45 400.841 42.99V49H398.411ZM410.36 49.2C408.2 49.2 406.21 48.2 405.87 45.86H408.01C408.28 47.01 409.31 47.48 410.35 47.48C411.59 47.48 412.42 47.06 412.42 46.17C412.42 45.52 412.02 45.15 411.08 44.95L409.12 44.5C407.36 44.11 406.22 43.28 406.21 41.65C406.2 39.81 407.63 38.46 410.36 38.46C412.77 38.46 414.34 39.57 414.39 41.56H412.32C412.17 40.67 411.45 40.14 410.34 40.14C409.19 40.14 408.38 40.58 408.38 41.48C408.38 42.11 408.93 42.44 410.06 42.68L411.92 43.13C414.04 43.66 414.54 45.06 414.54 46.03C414.54 48.03 412.91 49.2 410.36 49.2ZM420.551 49.2C418.541 49.19 416.601 48.01 416.601 45.75V38.66H419.041V45.47C419.041 46.6 419.751 47.39 421.191 47.39C422.501 47.39 423.351 46.68 423.351 45.39V38.66H425.771V49H423.901L423.631 46.98C423.251 48.68 421.881 49.21 420.551 49.2ZM432.488 49.2C430.328 49.2 428.338 48.2 427.998 45.86H430.138C430.408 47.01 431.438 47.48 432.478 47.48C433.718 47.48 434.548 47.06 434.548 46.17C434.548 45.52 434.148 45.15 433.208 44.95L431.248 44.5C429.488 44.11 428.348 43.28 428.338 41.65C428.328 39.81 429.758 38.46 432.488 38.46C434.898 38.46 436.468 39.57 436.518 41.56H434.448C434.298 40.67 433.578 40.14 432.468 40.14C431.318 40.14 430.508 40.58 430.508 41.48C430.508 42.11 431.058 42.44 432.188 42.68L434.048 43.13C436.168 43.66 436.668 45.06 436.668 46.03C436.668 48.03 435.038 49.2 432.488 49.2Z" fill="#333333"/>
<path d="M1.25 105V90.14H4.15V96.15C4.65 95.44 5.48 94.6 7.12 94.6C9.09 94.6 10.73 95.79 10.73 97.88V105H7.8V98.31C7.8 97.37 7.02 96.86 6.07 96.86C5.11 96.86 4.17 97.38 4.17 98.4V105H1.25ZM18.9939 96.69H16.6939L16.7139 102.2C16.7139 102.96 16.9939 103.06 17.6339 103.06H19.0239V104.86C18.7439 104.98 18.2239 105.11 17.2139 105.11C14.4839 105.11 13.7839 103.98 13.7839 102.32V96.69H12.1039V94.66H13.8739L14.6139 91.54H16.6939V94.65H18.9939V96.69ZM26.6306 96.69H24.3306L24.3506 102.2C24.3506 102.96 24.6306 103.06 25.2706 103.06H26.6606V104.86C26.3806 104.98 25.8606 105.11 24.8506 105.11C22.1206 105.11 21.4206 103.98 21.4206 102.32V96.69H19.7406V94.66H21.5106L22.2506 91.54H24.3306V94.65H26.6306V96.69ZM28.7109 108.22V94.66H31.6409L31.6509 96.15C32.2809 95.19 33.4509 94.46 34.8609 94.46C37.1709 94.46 38.8409 96.13 38.8409 99.75C38.8409 103.5 37.0209 105.2 34.5709 105.2C33.2409 105.2 32.2009 104.42 31.6309 103.45V108.22H28.7109ZM33.8709 103.06C35.1309 103.06 36.1109 102.06 36.1109 99.77C36.1109 97.78 35.2109 96.58 33.8709 96.58C32.3509 96.58 31.6309 97.96 31.6309 99.77C31.6309 101.5 32.3509 103.06 33.8709 103.06ZM43.7994 94.91V98.04H40.5994V94.91H43.7994ZM43.7994 101.82V104.94H40.5994V101.82H43.7994ZM45.23 105.37L50.29 90.54H52.32L47.27 105.37H45.23ZM52.8472 105.37L57.9072 90.54H59.9372L54.8872 105.37H52.8472ZM71.6444 105H68.5844L66.1144 101.63L63.6444 105H60.5844L64.5544 99.61L60.9244 94.66H63.9844L66.1344 97.56L68.2744 94.66H71.3244L67.6644 99.61L71.6444 105ZM72.9822 105V101.82H76.1822V105H72.9822ZM83.1328 94.46C85.7228 94.46 87.3328 96.21 87.4928 98.43H85.0628C84.9328 97.61 84.3528 96.68 83.1528 96.68C81.7928 96.68 80.8628 97.72 80.8628 99.85C80.8628 101.87 81.7328 103.13 83.2128 103.13C84.3928 103.13 84.9728 102.1 85.0928 101.39H87.4628C87.3328 103.53 85.6628 105.2 83.1328 105.2C80.2528 105.2 78.1428 103.18 78.1428 99.87C78.1428 96.66 80.1228 94.46 83.1328 94.46ZM94.0413 105.2C91.0013 105.2 89.0413 103.15 89.0413 99.89C89.0413 96.63 90.9813 94.46 94.0513 94.46C97.1013 94.46 99.0413 96.58 99.0413 99.89C99.0413 103 97.1913 105.2 94.0413 105.2ZM94.0513 103.03C95.5813 103.03 96.1813 101.53 96.1813 99.79C96.1813 98.15 95.6713 96.61 94.0513 96.61C92.5013 96.61 91.8913 98.03 91.8913 99.79C91.8913 101.41 92.4113 103.03 94.0513 103.03ZM101.035 105V94.66H103.895V96.12C104.515 95.21 105.545 94.46 107.165 94.46C108.225 94.46 109.455 95.03 110.065 96.12C110.735 95.18 111.855 94.46 113.195 94.46C114.735 94.46 116.575 95.39 116.575 98.18V105H113.655V98.54C113.655 97.29 112.825 96.84 111.995 96.84C111.225 96.84 110.245 97.28 110.245 98.38V105H107.335V98.28C107.335 97.34 106.465 96.84 105.695 96.84C104.895 96.84 103.955 97.34 103.955 98.38V105H101.035ZM117.925 105.37L122.985 90.54H125.015L119.965 105.37H117.925ZM132.803 96.69H130.503L130.523 102.2C130.523 102.96 130.803 103.06 131.443 103.06H132.833V104.86C132.553 104.98 132.033 105.11 131.023 105.11C128.293 105.11 127.593 103.98 127.593 102.32V96.69H125.913V94.66H127.683L128.423 91.54H130.503V94.65H132.803V96.69ZM137.021 100.5C137.011 102.08 137.831 103.09 139.231 103.09C140.231 103.09 141.031 102.69 141.331 101.72H143.961C143.611 103.93 141.451 105.2 139.301 105.2C136.231 105.2 134.131 103.16 134.131 99.95C134.131 96.84 135.981 94.46 139.151 94.46C142.311 94.46 143.971 96.61 143.971 99.71V100.5H137.021ZM137.021 98.76H141.241C141.241 97.51 140.551 96.5 139.141 96.5C137.801 96.5 137.011 97.62 137.021 98.76ZM160.071 94.66L156.671 105H154.341L152.421 98.74L150.491 105H148.231L144.881 94.66H147.471L149.451 101.07H149.521L151.421 94.66H153.511L155.431 101.07H155.511L157.431 94.66H160.071ZM161.66 105V94.66H164.47V97.11C164.96 95.53 166.12 94.46 167.75 94.46C167.94 94.46 168.12 94.48 168.2 94.52V97.3C168.08 97.25 167.9 97.24 167.76 97.23C165.46 97.03 164.58 97.95 164.58 99.34V105H161.66ZM184.407 94.66L181.007 105H178.677L176.757 98.74L174.827 105H172.567L169.217 94.66H171.807L173.787 101.07H173.857L175.757 94.66H177.847L179.767 101.07H179.847L181.767 94.66H184.407ZM188.154 100.5C188.144 102.08 188.964 103.09 190.364 103.09C191.364 103.09 192.164 102.69 192.464 101.72H195.094C194.744 103.93 192.584 105.2 190.434 105.2C187.364 105.2 185.264 103.16 185.264 99.95C185.264 96.84 187.114 94.46 190.284 94.46C193.444 94.46 195.104 96.61 195.104 99.71V100.5H188.154ZM188.154 98.76H192.374C192.374 97.51 191.684 96.5 190.274 96.5C188.934 96.5 188.144 97.62 188.154 98.76Z" fill="#012E5D"/>
<path d="M0 109.4H195.964V110.8H0V109.4Z" fill="#012E5D"/>
<path d="M10 144.812C10.3107 144.812 10.5625 145.064 10.5625 145.375C10.5625 145.686 10.3107 145.938 10 145.938C9.68934 145.938 9.4375 145.686 9.4375 145.375C9.4375 145.064 9.68934 144.812 10 144.812Z" fill="#012E5D" stroke="#012E5D" stroke-width="0.125"/>
<path d="M6.5625 144.812C6.87316 144.812 7.125 145.064 7.125 145.375C7.125 145.686 6.87316 145.938 6.5625 145.938C6.25184 145.938 6 145.686 6 145.375C6 145.064 6.25184 144.812 6.5625 144.812Z" fill="#012E5D" stroke="#012E5D" stroke-width="0.125"/>
<path d="M13.4375 144.812C13.7482 144.812 14 145.064 14 145.375C14 145.686 13.7482 145.938 13.4375 145.938C13.1268 145.938 12.875 145.686 12.875 145.375C12.875 145.064 13.1268 144.812 13.4375 144.812Z" fill="#012E5D" stroke="#012E5D" stroke-width="0.125"/>
<path d="M8.20859 151L9.45859 153.188C9.51322 153.283 9.59222 153.363 9.68758 153.418C9.78294 153.474 9.89127 153.503 10.0016 153.503C10.1119 153.503 10.2202 153.474 10.3155 153.418C10.4109 153.363 10.4899 153.283 10.5445 153.188L11.7945 151H16.875C17.0408 151 17.1997 150.934 17.3169 150.817C17.4342 150.7 17.5 150.541 17.5 150.375V140.375C17.5 140.209 17.4342 140.05 17.3169 139.933C17.1997 139.816 17.0408 139.75 16.875 139.75H3.125C2.95924 139.75 2.80027 139.816 2.68306 139.933C2.56585 140.05 2.5 140.209 2.5 140.375V150.375C2.5 150.541 2.56585 150.7 2.68306 150.817C2.80027 150.934 2.95924 151 3.125 151H8.20859Z" stroke="#012E5D" stroke-linecap="round" stroke-linejoin="round"/>
<path d="M43.625 142.875L45.5 141L43.625 139.125" stroke="#012E5D" stroke-linecap="round" stroke-linejoin="round"/>
<path d="M30.5 146C30.5 144.674 31.0268 143.402 31.9645 142.464C32.9021 141.527 34.1739 141 35.5 141H45.5" stroke="#012E5D" stroke-linecap="round" stroke-linejoin="round"/>
<path d="M32.375 149.125L30.5 151L32.375 152.875" stroke="#012E5D" stroke-linecap="round" stroke-linejoin="round"/>
<path d="M45.5 146C45.5 147.326 44.9732 148.598 44.0355 149.536C43.0979 150.473 41.8261 151 40.5 151H30.5" stroke="#012E5D" stroke-linecap="round" stroke-linejoin="round"/>
<path d="M66 153.5L72.9812 146.418C73.7139 145.686 74.1255 144.692 74.1255 143.656C74.1255 142.62 73.7139 141.626 72.9812 140.893C72.2486 140.161 71.2549 139.749 70.2187 139.749C69.1826 139.749 68.1889 140.161 67.4562 140.893L66 142.25L64.5437 140.893C63.8111 140.161 62.8174 139.749 61.7812 139.749C60.7451 139.749 59.7514 140.161 59.0187 140.893C58.2861 141.626 57.8745 142.62 57.8745 143.656C57.8745 144.692 58.2861 145.686 59.0187 146.418L66 153.5Z" stroke="#012E5D" stroke-linecap="round" stroke-linejoin="round"/>
<path d="M502.416 153.525C503.702 152.155 507.078 149.25 511.875 149.25V153L518.125 146.75L511.875 140.5V144.25C507.75 144.25 502.462 148.191 501.875 153.277C501.867 153.342 501.88 153.409 501.912 153.467C501.945 153.525 501.994 153.571 502.055 153.599C502.115 153.627 502.183 153.634 502.248 153.621C502.313 153.608 502.372 153.574 502.416 153.525Z" stroke="#012E5D" stroke-width="1.5" stroke-linecap="round" stroke-linejoin="round"/>
<path d="M531.471 142.704C531.141 142.704 530.879 142.603 530.688 142.4C530.495 142.187 530.399 141.904 530.399 141.552C530.399 141.189 530.495 140.907 530.688 140.704C530.879 140.501 531.141 140.4 531.471 140.4C531.802 140.4 532.063 140.501 532.255 140.704C532.437 140.907 532.527 141.189 532.527 141.552C532.527 141.915 532.431 142.197 532.239 142.4C532.047 142.603 531.791 142.704 531.471 142.704ZM534.192 142.704C533.861 142.704 533.6 142.603 533.408 142.4C533.216 142.187 533.12 141.904 533.12 141.552C533.12 141.189 533.216 140.907 533.408 140.704C533.6 140.501 533.861 140.4 534.192 140.4C534.522 140.4 534.778 140.501 534.96 140.704C535.152 140.907 535.248 141.189 535.248 141.552C535.248 141.904 535.152 142.187 534.96 142.4C534.768 142.603 534.512 142.704 534.192 142.704ZM533.712 153C532.731 153 531.888 152.845 531.184 152.536C530.491 152.227 529.957 151.779 529.584 151.192C529.221 150.605 529.04 149.901 529.04 149.08C529.04 148.216 529.243 147.491 529.648 146.904C530.053 146.307 530.608 145.853 531.312 145.544C532.016 145.235 532.816 145.08 533.712 145.08H534.16V144.296H536.56V151.08H538.56C538.613 151.08 538.64 151.101 538.64 151.144V152.92C538.64 152.973 538.613 153 538.56 153H533.712ZM534.176 151.08V147H533.76C533.035 147 532.475 147.181 532.08 147.544C531.685 147.896 531.488 148.413 531.488 149.096C531.488 149.725 531.68 150.216 532.064 150.568C532.448 150.909 533.003 151.08 533.728 151.08H534.176ZM538.404 153C538.351 153 538.324 152.973 538.324 152.92V151.144C538.324 151.101 538.351 151.08 538.404 151.08H544.66V148.504C544.66 147.864 544.436 147.373 543.988 147.032C543.551 146.68 542.927 146.504 542.116 146.504H539.396V144.776C539.578 144.403 539.775 144.051 539.988 143.72C540.202 143.379 540.442 143.048 540.708 142.728C541.306 142.024 541.994 141.4 542.772 140.856C543.562 140.312 544.426 139.869 545.364 139.528L546.244 141.672C545.786 141.811 545.332 141.987 544.884 142.2C544.447 142.413 544.031 142.653 543.636 142.92C543.252 143.176 542.911 143.448 542.612 143.736C542.314 144.013 542.068 144.296 541.876 144.584H542.484C544.01 144.584 545.151 144.888 545.908 145.496C546.666 146.093 547.044 146.995 547.044 148.2V153H538.404ZM550.554 156.84C550.01 156.84 549.509 156.776 549.05 156.648C548.591 156.52 548.111 156.285 547.61 155.944L548.57 154.392C548.847 154.573 549.093 154.696 549.306 154.76C549.53 154.824 549.791 154.856 550.09 154.856C550.517 154.856 550.858 154.691 551.114 154.36C551.381 154.04 551.514 153.635 551.514 153.144V145.08H553.898V153.256C553.898 153.981 553.759 154.611 553.482 155.144C553.205 155.688 552.815 156.104 552.314 156.392C551.823 156.691 551.237 156.84 550.554 156.84ZM561.25 151.08C561.303 151.08 561.33 151.101 561.33 151.144V152.92C561.33 152.973 561.303 153 561.25 153H556.866V140.84H559.25V151.08H561.25ZM569.691 143.128C569.435 143.128 569.222 143.048 569.051 142.888C568.87 142.728 568.779 142.483 568.779 142.152C568.779 141.811 568.87 141.565 569.051 141.416C569.222 141.256 569.435 141.176 569.691 141.176C569.969 141.176 570.187 141.261 570.347 141.432C570.518 141.603 570.603 141.843 570.603 142.152C570.603 142.44 570.518 142.675 570.347 142.856C570.187 143.037 569.969 143.128 569.691 143.128ZM568.331 145.704C568.001 145.704 567.739 145.603 567.547 145.4C567.355 145.187 567.259 144.904 567.259 144.552C567.259 144.189 567.355 143.907 567.547 143.704C567.739 143.501 568.001 143.4 568.331 143.4C568.662 143.4 568.923 143.501 569.115 143.704C569.297 143.907 569.387 144.189 569.387 144.552C569.387 144.904 569.291 145.187 569.099 145.4C568.907 145.603 568.651 145.704 568.331 145.704ZM571.051 145.704C570.721 145.704 570.459 145.603 570.267 145.4C570.075 145.187 569.979 144.904 569.979 144.552C569.979 144.189 570.07 143.907 570.251 143.704C570.443 143.501 570.71 143.4 571.051 143.4C571.371 143.4 571.627 143.501 571.819 143.704C572.011 143.907 572.107 144.189 572.107 144.552C572.107 144.904 572.011 145.187 571.819 145.4C571.627 145.603 571.371 145.704 571.051 145.704ZM572.548 153C572.089 153 571.652 152.899 571.236 152.696C570.82 152.493 570.42 152.195 570.036 151.8C569.737 152.195 569.364 152.493 568.916 152.696C568.479 152.899 567.961 153 567.364 153H561.092C561.039 153 561.012 152.973 561.012 152.92V151.144C561.012 151.101 561.039 151.08 561.092 151.08H563.092V146.328H565.476V151.08H566.836C567.369 151.08 567.759 150.936 568.004 150.648C568.249 150.349 568.372 149.875 568.372 149.224V146.328H570.756V149.416C570.756 149.544 570.751 149.667 570.74 149.784C570.74 149.901 570.729 150.019 570.708 150.136C570.975 150.488 571.236 150.733 571.492 150.872C571.748 151.011 572.084 151.08 572.5 151.08H573.492V145.08H575.876V151.08H577.956C578.009 151.08 578.036 151.101 578.036 151.144V152.92C578.036 152.973 578.009 153 577.956 153H572.548ZM577.795 153C577.742 153 577.715 152.973 577.715 152.92V151.144C577.715 151.101 577.742 151.08 577.795 151.08H579.603C579.464 150.749 579.358 150.403 579.283 150.04C579.208 149.667 579.171 149.277 579.171 148.872C579.171 148.413 579.246 147.917 579.395 147.384C579.555 146.84 579.752 146.376 579.987 145.992C580.499 145.693 581.043 145.469 581.619 145.32C582.206 145.16 582.718 145.08 583.155 145.08C583.518 145.08 583.864 145.123 584.195 145.208C584.526 145.283 584.84 145.395 585.139 145.544C585.736 145.853 586.2 146.296 586.531 146.872C586.862 147.437 587.027 148.099 587.027 148.856C587.027 149.261 586.979 149.645 586.883 150.008C586.798 150.371 586.659 150.707 586.467 151.016C586.072 151.645 585.539 152.136 584.867 152.488C584.206 152.829 583.47 153 582.659 153H577.795ZM581.379 149.208C581.379 149.475 581.411 149.768 581.475 150.088C581.539 150.397 581.63 150.728 581.747 151.08H582.355C582.782 151.08 583.166 150.984 583.507 150.792C583.848 150.589 584.12 150.317 584.323 149.976C584.526 149.635 584.627 149.261 584.627 148.856C584.627 148.291 584.488 147.843 584.211 147.512C583.934 147.171 583.566 147 583.107 147C582.872 147 582.627 147.037 582.371 147.112C582.126 147.187 581.875 147.299 581.619 147.448C581.544 147.725 581.486 148.013 581.443 148.312C581.4 148.6 581.379 148.899 581.379 149.208Z" fill="#012E5D"/>
<path d="M528 155H547.45V155.8H528V155ZM554.347 155H569.531V155.8H554.347V155ZM561.172 155H587.907V155.8H561.172V155Z" fill="#012E5D"/>
</svg>
